SplineFontDB: 3.0
FontName: TudorRoseBold
FullName: Tudor Rose Bold
FamilyName: TudorRose
Weight: Bold
Copyright: Created by James Kilfiger with FontForge 2.0 (http://fontforge.sf.net)\nReleased to public domain.
UComments: "2009-7-12: Created." 
Version: 001.000
ItalicAngle: 0
UnderlinePosition: -100
UnderlineWidth: 50
Ascent: 850
Descent: 250
LayerCount: 2
Layer: 0 0 "Back"  1
Layer: 1 0 "Fore"  0
XUID: [1021 73 598634083 4737580]
FSType: 0
OS2Version: 0
OS2_WeightWidthSlopeOnly: 0
OS2_UseTypoMetrics: 1
CreationTime: 1247431371
ModificationTime: 1312027363
PfmFamily: 17
TTFWeight: 500
TTFWidth: 5
LineGap: 90
VLineGap: 90
OS2TypoAscent: 0
OS2TypoAOffset: 1
OS2TypoDescent: 0
OS2TypoDOffset: 1
OS2TypoLinegap: 90
OS2WinAscent: 0
OS2WinAOffset: 1
OS2WinDescent: 0
OS2WinDOffset: 1
HheadAscent: 0
HheadAOffset: 1
HheadDescent: 0
HheadDOffset: 1
OS2Vendor: 'PfEd'
Lookup: 258 0 0 "'kern' Horizontal Kerning in Latin lookup 0"  {"'kern' Horizontal Kerning in Latin lookup 0-1"  } ['kern' ('DFLT' <'dflt' > 'latn' <'dflt' > ) ]
MarkAttachClasses: 1
DEI: 91125

StartChar: C
Encoding: 67 67 1
Width: 827
VWidth: -1282
Flags: W
HStem: 0.0732422 147.177<312.848 524.899> 401 21G<628.097 695.104> 556.104 146.899<355.919 540.209>
VStem: 63.4785 148.047<239.063 417.04>
LayerCount: 2
Fore
SplineSet
766.999 237.5 m 0
 767 180.225 659.859 0.0732422 420.898 0.0732422 c 0
 234.487 0.0732422 95.9326 107.068 68.4609 262.867 c 0
 65.1758 281.497 63.4785 300.826 63.4785 320.753 c 0
 63.4785 494.604 185.236 679.395 417.896 700.788 c 1
 428.113 702.08 437.071 702.916 444.103 703.003 c 1
 450.24 703.208 452.836 703.235 454.957 703.235 c 0
 457.116 703.231 l 0
 631.253 703.231 730.186 591.116 747.729 491.625 c 0
 748.096 489.54 748.428 487.461 748.724 485.389 c 0
 749 483.454 l 1
 749.001 480.507 750 475.895 750 474.5 c 0
 750 431.025 713.708 401 676.5 401 c 0
 579.693 401 598.806 508.955 533.908 539.235 c 0
 509.3 550.717 481.446 556.104 455.515 556.104 c 0
 322.658 556.104 211.525 444.518 211.525 322.256 c 0
 211.525 312.094 212.392 302.223 214.073 292.688 c 0
 229.313 206.255 311.535 147.25 423.035 147.25 c 0
 527.239 147.25 601.27 212.062 624.496 264.316 c 1
 637.152 294.558 667.03 311 693.5 311 c 0
 732.158 311 760.183 282.304 765.916 249.784 c 0
 766.631 245.733 767 241.622 766.999 237.5 c 0
EndSplineSet
EndChar

StartChar: D
Encoding: 68 68 2
Width: 868
VWidth: -1282
Flags: W
HStem: -0.103516 147.067<337.688 557.155> 83.2393 129.133<82.1494 154.629> 504.449 146.623<370.265 599.464> 703 20G<207.814 228.387>
VStem: 213.407 159.847<205.026 504.491> 662.111 147.358<241.616 435.587>
LayerCount: 2
Back
SplineSet
156 714 m 0xb0
 161 714 169 712 174 710 c 0
 214 693 248 663 270 625 c 0
 288 594 298 560 302 528 c 0
 304.354 509.433 305.271 491.208 305.271 473.379 c 0
 305.271 423.029 297.954 375.833 295 333 c 0
 292 292 293 246 285 197 c 0
 278.569 159.331 268.761 128.415 268.761 104.251 c 0
 268.761 102.115 268.838 100.031 269 98 c 0
 270 86 273 73 278 62 c 0
 281 57 284 47 284 41 c 0
 284 16 262 -5 237 -5 c 0
 221 -5 203 7 196 22 c 0
 186 44 179 68 177 92 c 0
 176.715 96.6477 176.584 101.205 176.584 105.676 c 0
 176.584 148.335 188.569 183.035 194 212 c 0
 201 250 200 293 203 339 c 0
 206.777 388.857 213.407 434.719 213.407 476.587 c 0
 213.407 490.144 212.712 503.281 211 516 c 0
 208 539 201 561 191 578 c 0
 179 599 160 616 138 626 c 0
 122 633 109 651 109 668 c 0
 109 693 130 714 155 714 c 0
 156 714 l 0xb0
186 723 m 0
 187 723 187 723 188 723 c 0
 201 723 217 715 225 704 c 0
 244 678 275 658 307 653 c 0
 314.943 651.619 323.482 651.072 332.577 651.072 c 0
 349.816 651.072 369.051 653.036 390 655 c 0
 407.274 656.619 425.714 658.53 445.319 658.53 c 0
 462.032 658.53 479.593 657.142 498 653 c 0
 564 639 616 594 648 540 c 0
 680 487 694 428 698 371 c 0
 698.971 359.111 699.47 347.162 699.47 335.169 c 0
 699.47 297.736 694.603 259.868 684 222 c 0
 670 172 646 125 607 87 c 0
 546.165 27.1304 461.085 -0.103204 380.576 -0.103204 c 0
 377.711 -0.103204 374.852 -0.0687212 372 0 c 0
 290 2 213 28 143 60 c 0
 125 68 107 77 89 87 c 0
 75 94 64 112 64 128 c 0
 64 153 85 174 110 174 c 0
 117 174 127 171 133 168 c 0
 149 159 165 152 182 144 c 0
 245 115 310 93 374 92 c 0x70
 375.5 91.9762 377.001 91.9643 378.501 91.9643 c 0
 440.035 91.9643 501.976 111.976 542 152 c 0
 567 177 586 210 596 247 c 0
 603.55 274.935 607.11 304.58 607.11 335.075 c 0
 607.11 344.97 606.735 354.955 606 365 c 0
 603 412 592 457 570 493 c 0
 549 528 515 555 479 563 c 0
 468 565.5 455.75 566.5 442.375 566.5 c 0
 429 566.5 414.5 565.5 399 564 c 0
 379.553 562.118 357.746 559.449 334.564 559.449 c 0
 320.792 559.449 306.535 560.391 292 563 c 0
 236 572 185 604 151 650 c 0
 146 657 142 669 142 677 c 0
 142 701 162 722 186 723 c 0
EndSplineSet
Fore
SplineSet
64 144.095 m 0x7c
 64 184.479 100.292 212.372 137.5 212.372 c 0x7c
 155.514 212.372 167.147 206.285 187.317 197.126 c 1
 190.499 209.832 193.001 219.422 194.455 226.754 c 0
 200.954 259.526 200.078 299.312 203.067 341.898 c 1
 207.108 391.445 213.407 432.77 213.407 467.91 c 0
 213.407 482.39 212.353 495.284 210.33 506.756 c 0
 202.991 548.376 182.917 571.291 154.298 583.375 c 1
 130.073 593.22 113.734 613.932 109.877 635.808 c 0
 109.297 639.097 109 642.413 109 645.722 c 0
 109.001 686.128 144.869 712.624 180.533 713.979 c 1
 194.863 721.583 202.703 722.573 212.926 723 c 1
 215.5 723 l 0
 241.274 723 262.607 709.276 274.703 692.726 c 0
 284.17 679.805 313.632 651.072 373.027 651.072 c 0
 411.506 651.072 458.091 658.53 504.96 658.53 c 0
 674.906 658.53 777.926 550.89 803.298 406.997 c 0
 807.397 383.747 809.47 359.551 809.47 334.71 c 0
 809.469 124.214 653.261 -0.103516 430.722 -0.103516 c 0xbc
 394.235 -0.103516 356.159 3.42676 316.609 10.6621 c 1
 297.874 -1.42773 280.537 -5 264.5 -5 c 0
 220.542 -5 202.227 27.6631 194.723 43.3193 c 1
 170.88 52.3906 133.938 67.8594 103.995 83.2393 c 1
 80.3652 94.9551 68.3281 113.882 64.9854 132.839 c 0
 64.3213 136.609 64 140.379 64 144.095 c 0x7c
375.353 504.449 m 0
 370.591 504.449 370.236 504.479 369.123 504.491 c 1
 371.898 488.81 373.254 471.799 373.254 453.707 c 0
 373.254 405.988 364.376 364.942 363.126 330.343 c 1
 359.664 295.068 360.699 253.867 351.145 210.235 c 1
 345.772 186.789 339.765 169.407 336.347 156.167 c 1
 382.713 147.418 409.276 146.964 428.31 146.964 c 0xbc
 531.239 146.964 662.11 182.375 662.111 333.826 c 0
 662.11 349.283 660.87 364.255 658.355 378.516 c 0
 644.812 455.331 594.297 511.5 501.514 511.5 c 0
 462.325 511.5 422.028 504.449 375.353 504.449 c 0
EndSplineSet
EndChar

StartChar: E
Encoding: 69 69 3
Width: 735
VWidth: -1282
Flags: W
HStem: -0.662109 146.574<252.593 490.508> 312.923 144.852<309.305 479.673> 490 21G<546.271 579.104> 579.885 146.115<275.467 438.57>
VStem: 71.167 150.267<182.315 273.998> 110.366 156.901<494.078 567.585>
LayerCount: 2
Fore
SplineSet
167.07 402.216 m 1xf8
 138.528 433.324 119.975 468.186 113.223 506.479 c 0
 111.331 517.203 110.366 528.196 110.366 539.451 c 0
 110.366 653.51 210.91 726 340.015 726 c 0
 515.893 726 598.753 632.531 617.137 609.489 c 1
 626.273 598.148 631.008 586.845 632.934 575.923 c 0
 633.675 571.719 634 567.572 634 563.5 c 0
 634 520.025 597.708 490 560.5 490 c 0
 532.042 490 507.852 503.416 493.73 518.293 c 1
 445.51 568.744 374.855 579.885 344.253 579.885 c 0
 285.307 579.885 267.268 556.013 267.268 533.573 c 0xf4
 267.268 531.794 267.431 529.999 267.749 528.192 c 0
 273.638 494.795 332.894 457.774 405.355 457.774 c 0
 443.042 457.774 447.907 468.5 481.214 468.5 c 0
 527.66 468.5 559.204 439.077 565.027 406.055 c 0
 565.671 402.402 566.001 398.706 566 395 c 0
 565.999 359.519 538.595 333.041 505.509 324.518 c 1
 469.724 314.888 437.095 310.984 403.873 310.984 c 0
 390.405 310.984 378.284 311.786 370.235 312.5 c 1
 361.354 312.5 l 1
 360.148 312.575 l 0
 354.552 312.925 351.409 312.923 349.045 312.923 c 0
 272.756 312.923 221.434 269.035 221.434 221.756 c 0
 221.434 215.494 222.032 209.619 222.951 204.406 c 0
 225.067 192.405 228.886 183.905 231.034 182.231 c 0
 265.639 155.264 325.407 145.912 382.254 145.912 c 0
 463.729 145.912 523.533 182.296 557.073 213.913 c 1
 571.842 230.526 592.533 239 611.499 239 c 0
 650.158 239 678.184 210.303 683.917 177.784 c 0
 684.632 173.731 684.999 169.62 684.999 165.496 c 0
 684.999 144.645 676.757 127.712 665.024 115.09 c 1
 601.172 44.5479 499.322 -0.662109 378.531 -0.662109 c 0
 280.442 -0.662109 186.493 19.2012 121.219 78.8721 c 0
 96.3301 101.624 81.5361 133.852 75.0596 170.58 c 0
 72.4248 185.524 71.167 201.212 71.167 217.311 c 0
 71.167 290.2 107.287 358.176 167.07 402.216 c 1xf8
EndSplineSet
EndChar

StartChar: F
Encoding: 70 70 4
Width: 769
VWidth: -1282
Flags: W
HStem: -19 21G<179.689 218.461> 264.5 140.492<484.57 597.27> 284.594 146.99<326.394 555.019> 501 21G<578.632 629.405> 545.216 146.309<352.965 549.565> 680 20G<96.4199 130.028>
VStem: 94.1396 157.442<80.1937 249.674> 126.548 156.216<2.03182 89.4568> 151.682 167.695<415.953 511.417>
LayerCount: 2
Fore
SplineSet
126.548 23.9385 m 1xb1
 112.867 51.4424 103.737 79.7158 98.7471 108.019 c 0
 95.6426 125.626 94.1396 143.244 94.1396 160.696 c 0xb2
 94.1396 279.565 151.683 353.19 151.682 433.889 c 0
 151.683 445.885 150.661 457.467 148.715 468.509 c 0
 144.485 492.495 135.888 513.928 123.909 531.497 c 1
 118.897 537.676 l 1
 92.1982 552.608 50.7588 582.594 43.959 621.16 c 0
 43.332 624.712 43 628.337 43 632.029 c 0
 43 672.082 77.8896 698.629 114.95 700 c 1
 116.5 700 l 0xb480
 143.557 700 169.983 684.27 213.826 644.996 c 1
 220.551 643.44 227.367 643 233.458 643 c 0
 286.319 643 374.39 691.524 483.012 691.524 c 0
 554.707 691.524 612.087 668.799 655.964 631.746 c 1
 671.308 619.472 679.144 602.639 681.865 587.208 c 0
 682.64 582.812 683 578.531 683 574.5 c 0
 683 531.837 648.311 501 610.5 501 c 0
 546.765 501 548.916 545.216 479.435 545.216 c 0
 438.173 545.216 372.924 523.002 305.917 512.031 c 1
 310.763 498.908 314.079 486.432 316.208 474.36 c 0
 318.453 461.627 319.377 449.343 319.377 437.222 c 0
 319.377 428.242 318.964 420.971 318.598 415.705 c 1
 324.25 413.136 l 1
 366.24 425.862 403.89 431.584 443.373 431.584 c 0xb880
 486.944 431.584 532.115 423.102 574.976 404.992 c 1
 599.296 393.642 612.193 371.483 615.877 350.588 c 0
 616.633 346.304 617.001 342.073 617.001 338 c 0
 617 295.337 582.311 264.5 543.386 264.5 c 0xd080
 494.112 264.5 483.608 284.594 439.942 284.594 c 0
 383.057 284.594 372.426 262.501 324.347 262.501 c 0
 305.742 262.501 302.435 265.555 300.135 266.005 c 0
 296.876 266.643 l 1
 283.537 271.723 l 1
 261.857 214.76 251.583 193.601 251.582 157.281 c 0xb2
 251.583 148.128 252.318 140.169 253.564 133.106 c 0
 259.541 99.2109 277.254 85.9609 281.729 60.5859 c 0
 282.392 56.8252 282.764 52.7969 282.764 48.3955 c 0
 282.764 8.53223 240.253 -19 196.67 -19 c 0
 162.708 -19 137.342 0.808594 126.548 23.9385 c 1xb1
EndSplineSet
EndChar

StartChar: G
Encoding: 71 71 5
Width: 842
VWidth: -1282
Flags: W
HStem: -252 21G<440.664 496.295> -0.279297 146.491<352.371 545.397> 232.885 147.382<429.115 564.18> 447 21G<675.102 710.104> 587.128 146.872<346.404 548.027>
VStem: 63.9248 149.315<270.908 460.894> 398.49 334.158<125.76 300>
LayerCount: 2
Fore
SplineSet
456.823 -0.279297 m 0
 269.768 -0.279297 101.712 120.671 69.4795 303.468 c 0
 65.833 324.151 63.9248 345.626 63.9248 367.807 c 0
 63.9248 567.406 222.04 731.744 449.208 734 c 1
 660.642 734 754.159 586.053 764.104 529.646 c 0
 764.704 526.248 765 523.182 765 520.5 c 0
 764.999 477.025 728.708 447 691.5 447 c 0
 658.703 447 634.711 469.164 623.368 490.87 c 0
 598.192 538.027 534.594 587.128 453.299 587.128 c 0
 322.254 587.128 213.24 491.613 213.24 366.262 c 0
 213.24 353.459 214.334 341.215 216.395 329.532 c 0
 237.968 207.184 365.542 146.212 454.578 146.212 c 0
 543.053 146.212 566.754 181.962 568.322 199.951 c 1
 566.021 206.368 566.178 210.401 565.343 215.137 c 0
 562.92 228.875 534.397 232.885 523.527 232.885 c 0
 514.056 232.885 508.783 226.5 482.57 226.5 c 0
 437.651 226.5 405.283 256.107 399.438 289.254 c 0
 398.812 292.806 398.49 296.399 398.49 300 c 0
 398.49 366.537 480.062 380.267 526.97 380.267 c 0
 629.663 380.267 706.09 315.785 721.254 229.782 c 0
 722.262 224.065 722.999 218.252 723.456 212.356 c 1
 724.57 207.181 725.57 202.063 726.464 196.997 c 0
 730.853 172.109 732.648 148.502 732.648 125.76 c 0
 732.648 -112.262 529.468 -252 463.123 -252 c 0
 418.204 -252 385.836 -222.394 379.991 -189.247 c 0
 379.365 -185.695 379.043 -182.102 379.043 -178.5 c 0
 379.043 -150.218 397.183 -128.075 420.2 -115.507 c 1
 472.328 -86.3906 518.755 -40.8184 546.729 10.6602 c 1
 513.502 2.35645 486.374 -0.279297 456.823 -0.279297 c 0
EndSplineSet
EndChar

StartChar: L
Encoding: 76 76 6
Width: 761
VWidth: -1282
Flags: W
HStem: -3 147<324.369 582.213> 15.1387 144.823<267.343 504.409> 690 20G<134.895 182.489>
VStem: 134.555 160.773<174.3 584.776>
LayerCount: 2
Fore
SplineSet
142.5 3 m 0x70
 103.492 3 75.3115 30.1084 69.9326 60.6162 c 0
 69.3164 64.1104 69 67.6484 69 71.1953 c 0
 69 135.343 134.556 137.598 134.555 334.892 c 0
 134.556 381.147 131.91 428.222 131.007 475.214 c 1
 130.123 512.09 128.409 535.461 125.636 551.191 c 0
 121.119 576.808 113.791 582.16 102.664 592.577 c 1
 89.1094 604.391 83.1758 617.495 81.0283 629.674 c 0
 80.29 633.857 80 637.93 80 641.805 c 0
 80 682.142 116.291 710 153.499 710 c 0
 211.479 710 247.179 653.366 262.466 625.975 c 1
 275.53 602.966 282.438 580.56 286.133 559.608 c 0
 291.274 530.447 290.192 504.102 290.827 482.868 c 1
 291.905 437.905 295.329 392.044 295.328 345.67 c 0
 295.329 250.691 280.09 195.677 266.76 159.962 c 1x70
 287.504 161.196 306.519 161.885 324.178 161.885 c 0
 412.667 161.885 471.019 144 508.418 144 c 0
 582.74 144 583.591 190 644.5 190 c 0
 683.159 190 711.184 161.303 716.918 128.783 c 0
 717.631 124.738 718 120.632 718 116.516 c 0
 718 90.8934 704.486 72.2478 691.605 60.7998 c 0
 641.728 17.8818 579.222 -3 508.417 -3 c 0xb0
 421.922 -3 399.189 15.1387 316.607 15.1387 c 0
 298.08 15.1387 280.634 14.2832 265.153 13.1123 c 1
 147.782 3 l 1
 142.5 3 l 0x70
EndSplineSet
EndChar

StartChar: H
Encoding: 72 72 7
Width: 790
VWidth: -1282
Flags: W
HStem: -15 22G<190.196 230.769 587.353 626.844> 683 20G<142.741 198.353 536.171 575.352>
VStem: 114.984 158.197<58.7711 274.042> 153.572 165.283<424.642 556.11> 499.764 161.124<54.2201 265.899> 530.667 158.308<10.9458 120.998 417.753 559.139>
LayerCount: 2
Fore
SplineSet
521.87 361.318 m 1xd0
 527.34 399.228 530.666 430.329 530.667 459.617 c 0
 530.666 478.311 529.303 493.76 527.007 506.777 c 0
 516.159 568.296 484.512 575.468 477.743 613.857 c 0
 476.915 618.552 476.46 623.714 476.46 629.5 c 0
 476.46 672.01 514.386 701.482 557.957 703 c 1
 559.736 703 l 0
 590.968 703 615.311 688.765 628.071 671.221 c 1
 653.753 635.559 674.212 595.035 683.52 542.249 c 0
 687.049 522.234 688.975 500.457 688.975 476.514 c 0xd4
 688.973 454.676 687.277 432.966 685.623 417 c 1
 718.195 410.768 738.476 387.168 743.024 361.37 c 0
 743.672 357.697 744 353.98 744 350.262 c 0
 744 328.233 732.264 308.601 716.894 297.217 c 1
 700.137 284.291 681.787 274.273 665.684 267.229 c 1
 662.569 238.825 660.889 213.562 660.888 190.014 c 0
 660.889 161.422 663.033 140.211 665.956 123.634 c 0
 670.989 95.0898 678.329 80.2852 680.989 65.1963 c 0
 681.631 61.5596 682 57.9053 682 54.0391 c 0
 682 13.7949 645.708 -14 607.979 -14 c 0
 566.727 -14 535.87 12.7422 527.034 40.042 c 0
 517.68 68.9473 511.282 94.1523 507.048 118.163 c 0
 501.64 148.835 499.764 177.557 499.764 209.557 c 0
 499.764 232.066 500.969 252.756 502.424 270.448 c 1
 417.985 282.081 352.762 312.335 296.299 325.346 c 1
 283.92 265.885 273.183 214.652 273.182 168.797 c 0
 273.183 151.519 274.405 138.415 276.256 127.917 c 0
 280.872 101.739 289.391 91.7646 292.578 73.6904 c 0
 293.362 69.2393 293.824 64.2969 293.824 58.5 c 0
 293.824 15.0254 252.138 -15 209.399 -15 c 0
 170.992 -15 144.619 8.1123 135.921 34.5342 c 1
 128.189 57.2148 123.116 76.1943 119.902 94.417 c 0
 116.225 115.273 114.984 135.138 114.984 158.426 c 0xe8
 114.984 201.135 121.013 240.842 127.409 275.679 c 1
 88.5156 276.418 61.2471 303.142 55.9434 333.223 c 0
 55.3203 336.757 55 340.338 55 343.929 c 0
 55 402.898 130.53 425.132 153.572 432.621 c 1
 154.266 442.579 154.449 449.759 154.448 456.14 c 0
 154.448 472.76 153.09 487.404 150.814 500.311 c 0
 141.81 551.377 118.445 575.26 108.037 586.865 c 1
 96.873 598.021 91.9248 609.835 90.0234 620.621 c 0
 89.2773 624.854 88.999 628.929 89 632.743 c 0
 89 672.481 124.553 699.593 160.929 701 c 1
 162.5 701 l 0
 234.205 701 294.004 609.285 312.748 502.982 c 0
 316.727 480.417 318.855 457.194 318.855 434.051 c 0
 318.855 426.325 318.646 420.673 318.496 416.816 c 1
 404.535 399.869 468.32 369.825 521.87 361.318 c 1xd0
EndSplineSet
EndChar

StartChar: O
Encoding: 79 79 8
Width: 845
VWidth: -1282
Flags: W
HStem: -3.7041 146.749<324.869 525.692> 538.024 146.451<330.246 525.126>
VStem: 59.8926 149.101<250.731 428.973> 638.509 149.183<250.267 432.629>
LayerCount: 2
Fore
SplineSet
59.8926 342.992 m 0
 59.8926 537.062 218.235 681.521 422.005 684.476 c 1
 431.97 685 l 0
 445.79 685 440.487 684.24 441.852 684.004 c 1
 442.796 683.957 l 0
 627.739 675.477 755.388 555.992 782.368 402.978 c 0
 785.886 383.033 787.691 362.518 787.691 341.604 c 0
 787.691 135.878 623.243 -3.7041 425.775 -3.7041 c 0
 236.279 -3.7041 94.1191 117.285 65.2715 280.888 c 0
 61.7266 300.995 59.8926 321.744 59.8926 342.992 c 0
427.738 143.045 m 0
 532.288 143.045 638.509 220.308 638.509 341.041 c 0
 638.509 353.084 637.484 364.602 635.547 375.587 c 0
 616.851 481.62 513.193 538.024 426.394 538.024 c 0
 311.488 538.024 208.993 456.141 208.993 340.453 c 0
 208.993 329.634 209.938 319.055 211.75 308.773 c 0
 228.622 213.09 320.746 143.045 427.738 143.045 c 0
EndSplineSet
EndChar

StartChar: Q
Encoding: 81 81 9
Width: 862
VWidth: -1282
Flags: W
HStem: -162.543 147.091<681.535 810.775> -2.7041 265.204<283.362 461.107> 539.024 146.451<325.808 433.549 433.605 507.622>
VStem: 60.8926 148.469<260.425 430.5> 622.99 160.767<232.956 428.121>
LayerCount: 2
Fore
SplineSet
209.361 334.302 m 0
 209.361 322.32 210.505 310.156 212.619 298.168 c 0
 216.971 273.485 225.438 249.545 236.512 229.459 c 1
 275.369 253.182 311.196 261.195 352.554 262.5 c 1
 450.27 262.5 514.296 211.811 551.446 170.107 c 1
 596.016 209.438 622.989 268.562 622.99 334.91 c 0
 622.989 348.299 621.853 361.062 619.715 373.189 c 0
 600.624 481.458 501.678 539.024 418.72 539.024 c 0
 308.064 539.024 209.361 454.177 209.361 334.302 c 0
60.8926 343.992 m 0
 60.8926 538.062 218.261 682.521 414.494 685.476 c 1
 424.09 686 l 0
 437.399 686 432.293 685.24 433.605 685.004 c 1
 434.517 684.957 l 0
 614.23 676.388 751.396 554.644 778.764 399.43 c 0
 782.054 380.771 783.757 361.63 783.757 342.143 c 0
 783.757 187.919 688.816 99.7852 635.813 62.873 c 1
 669.402 13.2197 697.851 -15.4521 742.297 -15.4521 c 0
 785.321 -15.4521 819.26 10.2578 837.571 35.7285 c 1
 854.492 62.0898 879.876 70 900.5 70 c 0
 939.159 70 967.183 41.3027 972.917 8.78223 c 0
 973.632 4.73145 974 0.621094 974 -3.5 c 0
 974 -65.0898 870.248 -162.543 741.616 -162.543 c 0
 602.666 -162.543 530.285 -59.9746 491.713 4.44336 c 1
 457.166 -2.20117 433.397 -2.7041 418.125 -2.7041 c 0
 342.945 -2.7041 284.044 16.4277 232.845 44.1113 c 1
 222.473 42.9053 223.852 43.3213 220.87 43.3213 c 0
 179.707 43.3213 151.298 70.4141 145.925 100.888 c 0
 145.313 104.354 145.001 107.863 145 111.382 c 0
 145.001 117.521 144.399 123.713 143.3 129.953 c 0
 132.584 190.722 74.5117 256.051 62.9102 321.847 c 0
 61.6084 329.225 60.8926 336.609 60.8926 343.992 c 0
EndSplineSet
EndChar

StartChar: U
Encoding: 85 85 10
Width: 868
VWidth: -1282
Flags: W
HStem: -2.82812 146.301<342.164 536.723>
VStem: 60.1562 148.881<281.209 483.689> 662.331 148.233<271.351 468.681>
LayerCount: 2
Fore
SplineSet
209.037 379.062 m 0
 209.036 364.713 210.283 350.77 212.657 337.309 c 0
 232.803 223.057 334.081 143.473 442.471 143.473 c 0
 559.057 143.473 662.331 244.041 662.331 369.286 c 0
 662.331 382.506 661.163 395.215 659.014 407.401 c 0
 646.498 478.384 600.703 531.641 558.599 564.76 c 1
 544.12 576.407 535.721 590.634 533.254 604.629 c 0
 532.738 607.549 532.482 610.461 532.482 613.335 c 0
 532.482 652.031 571.594 680 614.226 680 c 0
 615.353 680 l 0
 641.477 680 661.272 668.663 673.164 658.116 c 1
 731.28 606.766 787.062 528.438 804.773 427.985 c 0
 808.522 406.726 810.565 384.477 810.564 361.283 c 0
 810.565 163.38 657.676 -2.82812 441.351 -2.82812 c 0
 241.966 -2.82812 96.6299 132.186 66.1064 305.291 c 0
 62.1826 327.544 60.1562 350.426 60.1562 373.732 c 0
 60.1562 473.285 96.7021 570.244 163.027 646.679 c 0
 163.473 647.236 l 1
 163.946 647.77 l 0
 178.555 664.205 200.403 675 224.114 675 c 0
 268.771 675 300.842 647.702 306.193 617.348 c 0
 306.717 614.384 306.984 611.392 306.984 608.393 c 0
 306.983 591.664 299.489 576.438 288.531 566.162 c 1
 236.542 514.509 209.036 445.125 209.037 379.062 c 0
EndSplineSet
EndChar

StartChar: X
Encoding: 88 88 11
Width: 886
VWidth: -1282
Flags: W
HStem: -9 129.763<79.2979 142.519> -3 134.254<669.059 764.123> 548.333 133.667<107.324 199.14 670.261 782.034>
LayerCount: 2
Fore
SplineSet
716.22 683 m 1xa0
 719.368 683.503 723.11 684 725.501 684 c 2
 726.501 684 l 0
 765.517 684 793.701 656.936 799.07 626.484 c 0
 799.684 623.005 800 619.481 800 615.948 c 0
 800 580.604 770.798 554.767 739.679 549.277 c 1
 644.233 532.773 569.494 460.02 508.185 367.924 c 1
 560.809 256.188 613.418 160.179 726.851 131.254 c 1
 756.49 124.032 776.688 100.247 781.094 75.2588 c 0
 781.692 71.8652 782 68.4502 782 65.0518 c 0
 782 24.7998 745.708 -3 708.5 -3 c 0x60
 674.646 -3 616.724 22.1211 572.845 48.8779 c 1
 488.982 100.214 439.091 170.675 406.945 239.169 c 1
 374.358 178.705 328.408 111.992 278.104 70.3818 c 1
 242.655 41.2764 175.738 -9 134.5 -9 c 0
 95.4844 -9 67.3018 18.0732 61.9297 48.5371 c 0
 61.3154 52.0195 61 55.5459 61 59.0811 c 0
 61 86.9531 79.7695 110.384 102.163 120.763 c 1
 206.892 172.486 249.833 246.306 326.783 373.963 c 1
 278.076 467.523 222.074 527.986 145.165 548.333 c 1
 112.416 557.104 95.0723 579.627 90.9648 602.924 c 0
 90.3193 606.586 90 610.268 90 613.919 c 0
 90 653.438 124.69 682 162.5 682 c 0
 163.5 682 l 0
 182.123 682 315.214 659.908 422.732 506.573 c 1
 425.405 502.438 425.745 501.642 426.031 501.146 c 1
 430.907 509.812 433.52 513.301 436.874 517.18 c 1
 510.978 603.296 596.962 661.083 712.107 682.466 c 0
 714.777 683 l 1
 716.22 683 l 1xa0
EndSplineSet
EndChar

StartChar: P
Encoding: 80 80 12
Width: 778
VWidth: -1282
Flags: W
HStem: -19 21G<220.864 262.472> 119.741 102.762<336.98 512.548> 475.099 129.071<29.9796 108.853> 513.044 147.087<328.849 467.396> 678 20G<170.804 215.732>
VStem: 134.556 190.39<39.8025 138.224 269.065 321.973> 161.104 163.841<2.21832 132.615 472.907 501.196> 164.702 167.555<317.794 500.612> 579.87 149.635<285.87 429.464>
LayerCount: 2
Fore
SplineSet
269.272 657.439 m 1xe980
 293.459 659.529 311.755 660.131 330.616 660.131 c 0
 557.85 660.131 701.766 559.352 725.896 422.5 c 0
 728.289 408.926 729.505 394.998 729.505 380.777 c 0
 729.505 237.665 604.728 119.741 424.011 119.741 c 0
 385.235 119.741 342.056 125.972 303.684 138.459 c 1
 304.317 133.443 305.027 128.782 305.795 124.431 c 0
 311.756 90.624 321.134 75.5908 324.05 59.0527 c 0
 324.621 55.8086 324.944 52.5068 324.945 48.9932 c 0xdc80
 324.944 8.77637 283.645 -19 241.3 -19 c 0
 200.428 -19 169.857 5.83789 161.104 31.1914 c 0xda80
 151.235 60.3535 144.645 83.9492 140.498 107.464 c 0
 136.234 131.647 134.556 155.744 134.556 185.722 c 0xdc80
 134.556 214.121 136.5 240.462 138.922 264.375 c 1
 135.531 274.669 135 280.381 135 286.101 c 0
 135 302.076 141.037 314.497 146.417 322.344 c 1
 152.24 358.2 l 1
 159.19 400.484 164.702 438.751 164.702 472.373 c 0
 164.702 483.774 163.989 494.123 163.233 501.196 c 1
 122.971 488.061 115.815 475.099 85.5 475.099 c 0
 46.4971 475.099 18.3184 502.227 12.9346 532.761 c 0
 12.3174 536.262 12 539.808 12 543.362 c 0
 12 570.33 29.9551 593.955 51.9531 604.17 c 1
 73.1572 614.521 95.0234 623.33 113.989 629.962 c 1
 114.876 671.631 149.867 696.633 191.74 698 c 1
 193.504 698 l 0
 237.961 698 259.766 669.936 269.272 657.439 c 1xe980
328.055 513.012 m 1
 331.47 489.63 332.257 471.316 332.257 453.079 c 0xd980
 332.257 392.85 320.609 334.766 311.019 265.842 c 1
 343.354 236.125 385.684 222.503 426.556 222.503 c 0
 506.411 222.503 579.869 279.67 579.87 358.204 c 0
 579.87 365.294 579.263 372.232 578.069 378.998 c 0
 564.207 457.614 471.313 513.044 334.123 513.044 c 0
 329.771 513.044 328.426 513.016 328.055 513.012 c 1
EndSplineSet
EndChar

StartChar: S
Encoding: 83 83 13
Width: 790
VWidth: -1282
Flags: W
HStem: 0.918945 147.081<263.509 536.353> 441 21G<563.307 593.104> 526.286 146.819<263.266 453.423>
VStem: 96.6641 154.97<445.468 504.942> 560.81 154.259<170.372 229.774>
LayerCount: 2
Fore
SplineSet
97 504.116 m 1
 97.0605 504.942 l 2
 103.011 585.729 181.701 673.105 347.38 673.105 c 0
 354.695 673.105 354.895 673 356.89 673 c 0
 422.479 673 542.905 651.667 627.039 565.852 c 1
 638.612 554.278 644.571 540.398 646.861 527.414 c 0
 647.646 522.961 648 518.613 648 514.5 c 0
 648 471.025 611.708 441 574.5 441 c 0
 552.113 441 533.37 450.967 519.718 464.015 c 1
 479.103 498.527 413.197 526.286 347.884 526.286 c 0
 270.835 526.286 251.634 497.486 251.634 479.559 c 0
 251.634 436.462 360.049 408.548 401.065 397.988 c 0
 495.926 374.148 582.027 348.024 686.002 275.984 c 1
 699.357 255.834 708.864 234.058 712.905 211.142 c 0
 714.324 203.092 715.069 194.901 715.069 186.59 c 0
 715.069 69.8262 594.396 0.918945 412.12 0.918945 c 0
 406.449 0.918945 406.315 1 404.34 1 c 0
 275.77 2.09473 166.066 34.0625 95.3799 89.9795 c 1
 79.4609 102.714 70.959 119.878 68.1084 136.046 c 0
 67.3594 140.293 67 144.473 67 148.484 c 0
 67 159.249 69.127 164.871 70.1025 168.269 c 2
 79.8828 206.414 l 1
 88.9541 240.884 120.758 262 151.5 262 c 0
 191.266 262 227.736 231.637 233.671 197.982 c 0
 234.225 194.843 234.512 191.675 234.512 188.5 c 0
 234.512 180.884 234.009 181.632 233.937 181.089 c 1
 290.469 158.817 349.02 148.762 405.75 148 c 0
 536.168 148 560.81 182.021 560.81 199.514 c 0
 560.81 242.407 421.761 273.42 365.492 285.933 c 0
 252.201 310.96 162.883 339.445 119.202 412.876 c 1
 108.982 430.607 102.236 448.331 98.9678 466.868 c 0
 97.4326 475.575 96.665 484.462 96.6641 493.612 c 0
 96.6641 501.094 97 501.469 96.999 503.287 c 0
 97 504.116 l 1
EndSplineSet
EndChar

StartChar: I
Encoding: 73 73 14
Width: 620
VWidth: -1282
Flags: W
HStem: -4.21387 159.856<79.3352 169.679 429.498 534.181> 25.4316 133.587<113.627 201.826> 492.18 161.82<466.015 532.433>
VStem: 200.504 211.447<159.033 279.822> 258.526 209.884<329.323 494.666>
LayerCount: 2
Back
SplineSet
185.361 670.481 m 0x18
 191.879 670.607 198.481 670.289 205.021 669.469 c 0
 235.997 665.585 259.717 652.696 278.596 642.722 c 0
 297.29 632.845 311.961 625.594 322.977 623.484 c 0
 331.609 621.831 341.107 622.467 349.471 625.172 c 0
 357.834 627.877 365.887 632.95 371.914 639.347 c 0
 379.445 647.555 394.596 654.215 405.738 654.215 c 0
 431.077 654.215 451.639 633.648 451.639 608.311 c 0
 451.639 598.062 445.858 583.771 438.738 576.403 c 0
 421.954 558.595 401.019 545.293 377.736 537.76 c 0
 354.454 530.227 329.796 528.769 305.765 533.372 c 0
 276.06 539.062 253.694 552.062 235.733 561.553 c 0
 217.956 570.945 203.702 577.07 193.546 578.344 c 0x18
 185.361 579.369 176.243 577.893 168.824 574.294 c 0
 161.398 570.694 154.522 564.396 150.262 557.334 c 0
 142.862 545.084 125.249 535.144 110.938 535.144 c 0x28
 85.583 535.144 65 555.724 65 581.081 c 0
 65 588.146 67.9697 598.789 71.624 604.838 c 0
 85.2451 627.396 105.031 645.4 128.746 656.896 c 0
 146.527 665.519 165.797 670.102 185.361 670.481 c 0x18
178.273 116.56 m 0x48
 188.314 117.385 198.508 117.361 208.648 116.475 c 0
 236.925 114.007 260.424 105.646 280.283 99.1777 c 0
 300.059 92.7393 316.67 88.0986 329.98 87.4502 c 0
 348.174 86.5645 367.863 92.9004 382.124 104.24 c 0
 389.048 109.741 401.841 114.207 410.685 114.207 c 0
 436.023 114.207 456.596 93.6387 456.596 68.2969 c 0
 456.596 56.0654 448.822 39.9629 439.246 32.3535 c 0
 407.025 6.72461 366.631 -6.2666 325.508 -4.26562 c 0x88
 296.572 -2.85742 272.283 5.2793 251.849 11.9346 c 0
 231.493 18.5635 214.486 23.8027 200.633 25.0127 c 0
 181.364 26.6943 160.545 21.3848 144.439 10.6689 c 0
 138.059 6.42383 126.663 2.97754 119 2.97754 c 0
 93.6562 2.97754 73.085 23.5469 73.085 48.8906 c 0
 73.085 62.4668 82.2607 79.5898 93.5615 87.1123 c 0
 118.984 104.029 148.152 114.081 178.273 116.56 c 0x48
234.89 651.497 m 0
 235.274 651.508 235.896 651.518 236.281 651.518 c 0x28
 246.538 651.518 260.846 645.725 268.218 638.588 c 2
 313.695 595.81 l 2
 319.812 590.059 325.978 578.682 327.449 570.412 c 0
 337.605 513.662 340.501 455.684 336.055 398.203 c 0
 330.322 324.116 313.722 256.374 309.309 192.497 c 0
 307.848 171.382 307.905 151.29 310.488 132.675 c 0
 313.016 114.469 318.711 94.8516 325.762 73.6973 c 2
 328.461 65.6816 l 2
 329.947 61.5312 331.161 54.5811 331.161 50.1719 c 0
 331.161 24.833 310.595 4.2666 285.256 4.2666 c 0
 266.546 4.2666 246.892 18.7764 241.387 36.6562 c 2
 238.687 44.6719 l 2
 231.093 67.4531 223.372 92.3516 219.533 120.019 c 0
 215.747 147.274 215.942 173.739 217.677 198.825 c 0
 222.813 273.207 239.546 341.202 244.508 405.291 c 0
 247.973 450.104 246.006 495.348 239.192 539.784 c 1
 205.273 571.763 l 2
 197.047 579.296 190.376 594.459 190.376 605.612 c 0
 190.376 630.197 210.315 650.753 234.89 651.497 c 0
EndSplineSet
Fore
SplineSet
111.5 3 m 0x70
 72.4727 3 44.2842 30.0186 38.9248 60.4131 c 0
 38.3145 63.877 38 67.3848 38 70.9014 c 0
 38 132.998 123.5 158.686 201.826 159.019 c 1
 200.665 168.104 200.505 174.525 200.504 179.955 c 0x70
 200.504 273.958 258.526 354.002 258.526 437.386 c 0
 258.526 452.721 257.001 468.095 254.455 482.534 c 0
 252.614 492.976 250.239 502.929 247.519 512.023 c 1
 196.915 534.519 l 1
 181.571 533.88 172.424 528.797 170.369 527.441 c 1
 151.922 504.705 125.505 494.474 103.5 494.474 c 0
 64.4736 494.474 36.2842 521.491 30.9248 551.886 c 0
 30.3145 555.35 30 558.858 30 562.375 c 0
 30 611.91 96.5996 670 192.318 670 c 0
 321.221 670 365.81 622.17 405.83 622.17 c 0
 412.553 622.17 416.812 622.661 420.877 623.249 c 0
 443.862 626.572 470.785 654 508.5 654 c 0
 547.531 654 575.723 627.003 581.077 596.635 c 0
 581.687 593.178 582 589.677 582 586.168 c 0
 582 534.179 518.244 500.904 465.581 492.18 c 1
 467.663 468.793 468.41 450.621 468.41 431.636 c 0x68
 468.41 330.943 411.951 249.348 411.951 181.618 c 0
 411.951 177.431 412.359 173.278 413.075 169.219 c 0
 415.628 154.74 422.096 141.451 427.929 132.013 c 1
 461.803 134.28 469.903 155.643 513.5 155.643 c 0
 552.531 155.643 580.723 128.646 586.077 98.2773 c 0
 586.687 94.8203 587 91.3203 587 87.8105 c 0
 587 24.1064 497.197 -4.21387 409.008 -4.21387 c 0xb0
 306.536 -4.21387 262.414 25.4316 207.207 25.4316 c 0
 154.566 25.4316 157.646 3 111.5 3 c 0x70
EndSplineSet
EndChar

StartChar: J
Encoding: 74 74 15
Width: 496
VWidth: -1282
Flags: W
HStem: -227.481 146.181<-22.446 148.867> 664 20G<297.389 337.494>
VStem: 249.833 156.167<13.7861 414.894> 261.021 152.979<229.356 589.857>
LayerCount: 2
Fore
SplineSet
34.5371 -80.6064 m 0xe0
 44.04 -80.8838 42.2256 -81.3008 43.8037 -81.3008 c 0
 102.196 -81.3008 240.844 -56.0967 251.271 96.9395 c 0
 252.038 108.201 252.194 118.358 252.195 127.232 c 0
 252.195 160.052 249.834 194.018 249.833 228.253 c 0xe0
 249.833 299.053 261.021 362.331 261.021 420.441 c 0
 261.021 462.677 257.221 496.97 252.354 524.573 c 0
 244.957 566.523 235.097 593.019 232.375 608.456 c 0
 231.909 611.096 231.652 613.413 231.652 615.428 c 0
 231.652 655.088 277.828 682.584 316.95 684 c 1
 318.5 684 l 0
 356.488 684 384.403 656.915 390.444 628.497 c 1
 393.679 613.891 396.582 599.293 399.152 584.714 c 0
 409.032 528.682 413.999 472.95 414 418.235 c 0xd0
 414 346.843 406 282.098 406 224.438 c 0
 406 191.27 407.688 157.152 407.688 122.321 c 0
 407.691 116.942 l 0
 407.691 61.9951 404.784 -105.557 233.094 -189.44 c 0
 167.266 -216.046 96.1611 -227.481 45.1436 -227.481 c 0
 37.1348 -227.481 31.0674 -227.193 27.1367 -226.967 c 1
 -9.88281 -225.425 -36.3682 -197.23 -41.9189 -165.748 c 0
 -42.6309 -161.708 -42.999 -157.614 -42.999 -153.516 c 0
 -42.9888 -110.03 -3.57592 -80.6064 34.5371 -80.6064 c 0xe0
EndSplineSet
EndChar

StartChar: M
Encoding: 77 77 16
Width: 849
VWidth: -1282
Flags: W
HStem: -23 29G<150.26 180.104 671.754 705.525> 296.921 146.392<368.487 467.772>
LayerCount: 2
Fore
SplineSet
91.3174 16.792 m 1
 79.0156 28.1543 73.123 41.082 70.9854 53.2051 c 0
 70.2988 57.0957 70 60.9043 70 64.5508 c 0
 70 95.5674 126.141 218.544 126.141 423.73 c 0
 126.141 469.762 123.026 514.693 117.886 557.455 c 1
 104.42 577.208 l 1
 98.0439 586.041 94.4365 595.198 92.8975 603.925 c 0
 92.2842 607.405 91.999 610.817 92 614.113 c 0
 92.001 654.268 128.292 682 165.5 682 c 0
 167.5 682 l 0
 195.624 682 220.699 665.019 232.964 646.615 c 1
 252.286 622.311 l 1
 286.036 595.062 280.385 556.979 351.167 483.041 c 1
 365.979 467.814 396.116 443.312 415.32 443.312 c 0
 450.28 443.312 531.797 509.584 568.434 577.895 c 1
 575.349 591.944 583.276 597.186 587.878 600.926 c 1
 613.715 644.278 642.953 678 688.5 678 c 0
 726.516 678 756.581 652.43 762.094 621.165 c 0
 762.69 617.779 763 614.326 763 610.831 c 0
 763 548.482 711.369 557.058 711.369 463.667 c 0
 711.369 445.111 713.578 426.278 717.256 405.422 c 0
 725.058 361.175 739.469 307.823 753.42 228.703 c 0
 760.606 187.948 767.67 140.355 773.646 83.6484 c 1
 773.91 82.7549 775 76.2578 775.001 75.3311 c 0
 775 61.6104 771.113 54.9375 769.073 50.2119 c 1
 760.18 29.1543 l 1
 749.069 1.70508 719.55 -15 691.501 -15 c 0
 652.008 -15 620.674 12.5215 615.266 43.1953 c 0
 614.72 46.2881 614.438 49.4131 614.438 52.5449 c 0
 614.438 65.792 618.346 72.6221 621.339 78.6436 c 1
 624.046 83.8672 l 1
 619.842 115.672 615.465 143.745 611.035 168.866 c 0
 596.269 252.61 580.909 303.557 569.33 350.647 c 1
 530.441 322.624 477.777 296.921 416.717 296.921 c 0
 383.214 296.921 331.882 305.447 280.23 341.483 c 1
 273.233 249.548 254.226 162.608 227.559 79.0859 c 1
 234.044 69.6631 237.545 61.2695 238.953 53.2852 c 0
 239.467 50.3725 239.701 47.5149 239.701 44.6802 c 0
 239.701 4.64876 198.708 -23 161.5 -23 c 0
 139.021 -23 120.038 -11.6738 109.812 -0.728516 c 1
 91.3174 16.792 l 1
EndSplineSet
EndChar

StartChar: N
Encoding: 78 78 17
Width: 725
VWidth: -1282
Flags: W
HStem: -24 21G<126.108 164.001 552.79 590.104> 667 20G<593.655 623.007>
VStem: 72.5635 153.214<-1.3067 308.005> 483.744 156.534<258.622 556.686> 491.828 153.172<12.2571 97.5824>
LayerCount: 2
Fore
SplineSet
145.5 -24 m 0xe8
 106.716 -24 79.084 4.875 73.5723 36.1309 c 0
 72.9062 39.9102 72.5635 43.7256 72.5635 47.5283 c 1
 81.5645 285.244 115.127 419.057 115.128 471.27 c 0
 115.128 475.683 115.067 476.811 115 478.907 c 1
 115 492.738 112.944 503.729 110.108 512.941 c 1
 104.439 530.471 l 1
 97.4043 546.323 57.1484 561.167 50.0645 601.341 c 0
 49.375 605.251 49 609.4 49 613.812 c 0
 49 652.011 81.0859 680.537 118.928 682 c 1
 122.5 682 l 0
 183.023 682 224.682 614.22 229.701 607.474 c 1
 241.515 596.46 246.418 586.791 248.909 580.062 c 1
 253.014 570.48 l 1
 260.703 554.346 301.013 421.504 445.424 288.411 c 1
 480.928 257.456 l 1
 483.564 306.155 485.511 369.179 485.511 450.939 c 0
 485.511 494.136 484.89 534.749 483.744 575.169 c 1
 483.744 576.5 l 0
 483.744 599.685 497.057 617.191 509.568 627.812 c 1
 550.921 664.812 l 1
 565.947 679.838 584.81 687 602.501 687 c 0
 603.501 687 l 0
 642.513 687 670.695 659.916 676.069 629.438 c 0
 676.685 625.952 677.001 622.422 677.001 618.883 c 0
 677 598.24 666.729 580.5 654.309 569.688 c 1
 640.278 556.686 l 1xf0
 641.144 521.875 641.5 489.891 641.499 458.553 c 0
 641.5 324.087 635.163 223.986 625.998 126.562 c 1
 625.992 125.614 625.995 125.93 625.932 123.406 c 1
 635.615 100.896 641.548 84.0234 643.872 70.8418 c 0
 644.626 66.5674 645 62.6816 645 59.1172 c 0
 645 18.8271 608.708 -9 571.5 -9 c 0
 534.08 -9 500.664 16.6602 491.828 46.666 c 1
 460.11 148.987 369.856 177.017 249.873 312.218 c 1
 237.164 222.304 229.355 134.392 225.777 49.3516 c 1
 224.688 4.16309 182.503 -24 145.5 -24 c 0xe8
EndSplineSet
EndChar

StartChar: R
Encoding: 82 82 18
Width: 753
VWidth: -1282
Flags: W
HStem: -19 28G<173.53 211.5 575.062 633.104> 192.474 146.537<316.278 458.027> 479.792 149.337<48.8204 108.026> 514.123 146.997<321.345 485.336> 679 20G<162.93 210.359>
VStem: 145.75 170.459<78.2355 201.989 348.918 480.083> 154.502 169.747<360.348 498.785> 538.852 148.57<380.323 469.983>
LayerCount: 2
Fore
SplineSet
187.001 699 m 0xeb
 233.718 699 257.116 667.931 266.074 656.312 c 1
 306.13 660.534 332.282 661.12 350.582 661.12 c 0
 570.126 661.12 667.347 563.143 684.581 465.401 c 0
 686.494 454.552 687.423 443.706 687.422 432.997 c 0
 687.423 364.387 653.654 304.422 600.639 262.176 c 1
 614.057 242.103 622.453 220.799 626.481 197.956 c 0
 628.406 187.037 629.333 175.767 629.333 164.11 c 0
 629.332 145.677 628 134.165 628 127.132 c 0
 627.999 126.077 628.305 122.799 628.322 122.661 c 1
 661.224 116.431 682.407 93.1719 687.04 66.8975 c 0
 687.676 63.293 688 59.6309 688 55.9482 c 0
 688 15.7578 651.708 -12 614.5 -12 c 0
 535.625 -12 481.613 39.0449 471.211 98.043 c 0
 469.999 104.915 469.381 111.89 469.381 118.912 c 0
 469.381 139.039 471.329 151.877 471.33 159.553 c 0
 471.329 161.468 471.174 163.56 470.784 165.771 c 0
 469.16 174.983 463.47 186.245 448.037 195.237 c 1
 429.855 193.087 415.079 192.474 401.478 192.474 c 0
 367.387 192.474 338.164 196.866 316.209 201.989 c 1
 315.593 112.442 295.052 56.5391 276.64 22.998 c 1
 262.197 -5.91895 226.761 -19 196.239 -19 c 0
 150.82 -19 123.23 8.60547 117.936 38.6367 c 0
 117.314 42.1611 117 45.7197 117 49.2705 c 0
 117 91.0664 145.75 96.332 145.75 210.31 c 0xdd
 145.75 243.348 144.172 277.354 144.01 311.706 c 1
 140.19 320.811 138 328.277 138 336.284 c 0
 138.001 350.499 142.429 359.497 145.349 365.455 c 1
 148.482 411.79 154.502 444.984 154.502 481.806 c 0
 154.502 489.137 154.177 495.617 153.956 499.106 c 1
 122.823 488.707 112.285 479.792 87.5 479.792 c 0
 48.498 479.792 20.3203 506.922 14.9355 537.459 c 0
 14.3184 540.961 14 544.507 14.001 548.062 c 0
 14 577.65 34.751 600.834 58.501 610.485 c 1
 75.833 617.484 93.3438 624.191 108.026 629.129 c 1
 107.996 630.058 108 629.801 108.001 630.729 c 0
 108 669.754 141.831 697.564 184.029 699 c 1
 187.001 699 l 0xeb
314.15 358.957 m 1
 338.837 346.742 371.247 339.011 402.701 339.011 c 0
 428.94 339.011 430.539 342.251 447.282 343.57 c 1
 508.76 357.747 538.853 396.948 538.852 425.869 c 0
 538.853 428.634 538.61 431.596 538.062 434.699 c 0
 532.395 466.849 493.914 514.123 351.286 514.123 c 0
 345.348 514.123 342.87 514.062 339.829 514 c 1
 331.232 514 325.777 513.679 321.345 513.426 c 1
 323.702 497.039 324.25 483.248 324.249 470.801 c 0xdb
 324.25 423.3 316.548 388.558 314.15 358.957 c 1
EndSplineSet
EndChar

StartChar: K
Encoding: 75 75 19
Width: 807
VWidth: -1282
Flags: W
HStem: -10 135.696<607.626 724.851> 591.06 133.94<600.591 672.427>
VStem: 89 160.194<7.48462 95.2125 640.682 691.892> 102.499 146.694<476.323 691.892>
LayerCount: 2
Fore
SplineSet
89.2588 78.7549 m 0xd0
 84.3428 112.662 82.8496 143.623 82.8496 173.055 c 0
 82.8496 283.144 102.5 373.353 102.499 474.22 c 0xd0
 102.5 531.519 97.8633 587.306 89.2979 640.682 c 2
 89 642.531 l 1
 89 643.22 l 2
 88.4971 646.368 88 650.11 88.001 652.5 c 0
 88 695.975 124.293 726 161.501 726 c 2
 164.154 726 l 1
 164.808 725.969 l 2
 202.376 724.18 232.265 694.519 237.844 662.88 c 0
 246.785 611.192 249.194 543.277 249.194 479.434 c 2xe0
 249.193 476.323 l 1
 254.605 484.34 258.636 489.222 262.459 493.456 c 0
 348.876 587.789 460.443 664.506 578.305 716.404 c 0
 595.831 724.475 605.346 725.013 613.705 725.013 c 0
 614.989 725.013 616.246 725 617.5 725 c 2
 618.5 725 l 2
 656.523 725 685.153 697.445 690.93 664.684 c 0
 691.635 660.688 692 656.612 692 652.5 c 0
 692 624.17 672.356 601.192 650.91 591.06 c 0
 567.309 554.429 488.062 504.565 423.541 447.082 c 1
 441.237 418.696 448.165 379.972 512.99 264.918 c 0
 545.748 206.778 594.338 130.396 672.987 125.696 c 1
 710.182 124.265 736.892 97.707 742.08 68.2803 c 0
 742.688 64.8369 743 61.3535 743 57.8662 c 0
 743 17.7236 706.708 -10 669.5 -10 c 2
 666.95 -10 l 1
 468.782 -2.86328 382.26 179.234 357.185 227.211 c 0
 337.836 264.233 321.09 299.438 305.81 334.248 c 1
 249.792 237.31 250.521 186.584 232.876 153.804 c 1
 234.005 135.075 235.454 118.897 237.825 105.968 c 2
 244.46 72.6416 l 1
 248.271 59.7568 246.377 58.707 246.377 56.5 c 0
 246.377 13.0254 205.707 -17 168.499 -17 c 0
 112.771 -17 97.6338 24.6338 92.46 53.9756 c 0
 90.5469 64.8242 89.9961 73.9912 89.2588 78.7549 c 0xd0
EndSplineSet
EndChar

StartChar: Y
Encoding: 89 89 20
Width: 750
VWidth: -1282
Flags: W
HStem: -23.0029 21G<177.929 184.503> 583.123 128.877<661.103 725.028> 671 20G<70.7314 115.154>
LayerCount: 2
Fore
SplineSet
18 622.757 m 0xc0
 18 661.764 52.5352 689.592 88.9277 691 c 1
 91.5 691 l 0xa0
 138.809 691 261.158 618.857 347.161 527.089 c 1
 366.513 506.771 378.073 481.899 387.61 459.41 c 1
 390.534 465.862 392.112 469.096 393.395 471.639 c 1
 471.817 628.297 620.486 712 668.501 712 c 0
 669.501 712 l 0
 708.511 712 736.692 684.906 742.068 654.416 c 0
 742.684 650.927 743 647.393 742.999 643.85 c 0
 743 616.921 725.082 593.357 703.004 583.123 c 1
 636.716 551.091 578.652 496.067 545.959 434.33 c 1
 493.723 336.831 494.628 151.214 262.198 11.3613 c 1
 261.525 12.166 260.483 10.4121 259.682 9.7041 c 1
 222.015 -10.4004 l 1
 199.48 -22.5742 190.614 -23.0029 178.392 -23.0029 c 0
 177.466 -23.0029 176.52 -23 175.548 -23 c 0
 133.784 -23 105.314 4.15625 99.9277 34.7051 c 0
 99.3145 38.1855 99 41.71 99 45.2432 c 0
 99 71.917 115.646 93.7461 136.177 104.736 c 1
 166.164 120.368 l 1
 209.09 146.477 286.255 210.137 296.903 266.732 c 1
 299.241 277.247 299.881 286.476 299.881 295.004 c 0
 299.882 303.718 299.093 312.259 297.618 320.622 c 0
 288.709 371.148 254.767 415.16 218.536 451.369 c 1
 170.521 497.771 114.882 536.425 59.6162 561.662 c 1
 35.9199 571.93 22.417 592.631 18.9189 612.473 c 0
 18.3057 615.947 18 619.396 18 622.757 c 0xc0
EndSplineSet
EndChar

StartChar: W
Encoding: 87 87 21
Width: 827
VWidth: -1282
Flags: W
HStem: -31 21G<191.768 230.538 488.799 527.951> 571.515 136.485<819.975 879.421> 578 20G<394.276 425.529>
VStem: 133 166.463<-3.31963 157.81> 143.851 160.894<64.7271 193.749>
LayerCount: 2
Fore
SplineSet
443.927 198 m 0xc8
 443.928 230.914 440.867 262.085 435.757 291.064 c 0
 431.284 316.434 425.239 340.124 418.304 361.83 c 1
 372.284 256.543 322.709 183.789 304.744 160.129 c 1xc8
 304.359 127.666 302.241 99.1201 300.363 70.8359 c 1
 299.999 70.8564 299.463 64.7236 299.463 64.7227 c 1
 292.242 28.4678 l 1
 284.347 -9.35938 247.747 -31 213.328 -31 c 0
 170.208 -31 139.322 -3.29688 133.863 27.6611 c 0
 133.293 30.8975 133 34.168 133 37.4473 c 0xd0
 133 41.8428 134.586 51.3389 134.845 52.2529 c 1
 140.682 76.2969 l 1
 142.953 105.607 143.85 132.895 143.851 159.036 c 0
 143.851 236.755 136.658 309.471 124.708 377.244 c 0
 112.345 447.362 94.8877 512.189 75.0322 571.793 c 1
 47.1895 583.095 l 1
 22.9258 593.641 7.7207 614.475 3.93262 635.958 c 0
 3.31445 639.464 3 642.986 3 646.484 c 0
 3 687.47 40.1064 714 76.5 714 c 0
 77.5 714 l 0
 92.0713 714 98.9902 710.723 106.236 707.824 c 1
 168.171 681.356 l 1
 189.766 671.5 203.942 656.527 211.075 638.622 c 1
 250.365 533.016 271.952 434.441 283.166 371.694 c 1
 298.808 415.242 308.245 462.564 318.305 506.2 c 1
 316.409 515.428 316.851 515.587 316.852 518.5 c 0
 316.851 545.748 332.611 565.941 348.959 577.322 c 1
 367.375 593.816 385.706 598 402.846 598 c 0
 403.942 598 l 0xa8
 447.115 598 477.748 569.009 483.502 536.376 c 0
 483.903 534.101 484.184 531.808 484.339 529.506 c 1
 514.926 482.875 535.03 427.704 551.224 374.377 c 1
 569.285 481.856 589.633 599.834 698.93 669.061 c 1
 738.552 694.381 781.154 705.801 819.975 707.958 c 0
 820.737 708 l 1
 824.5 708 l 0
 863.504 708 891.684 680.877 897.066 650.351 c 0
 897.684 646.853 898 643.308 898 639.755 c 0
 898 599.628 862.653 572.207 826.283 571.515 c 1
 743.71 566.969 728.605 459.14 709.492 374.538 c 1
 684.885 283.169 638.408 196.086 605.597 113.562 c 1
 600.356 100.239 599.444 103.817 599.444 103.817 c 1
 596.393 82.0342 592.686 66.0186 589.095 50.0381 c 0
 581.385 15.7373 545.696 -6 510.205 -6 c 0
 467.393 -6 436.485 23.3262 430.675 56.2812 c 0
 430.021 59.9873 429.686 63.7393 429.686 67.5 c 0
 429.687 91.7217 443.928 123.816 443.927 198 c 0xc8
EndSplineSet
EndChar

StartChar: V
Encoding: 86 86 22
Width: 793
VWidth: -1282
Flags: W
HStem: -34 21G<258.004 302.741> 692 20G<35.896 78.2051 593.851 629.187>
VStem: 199.312 165.76<-12.7339 83.6982 83.804 197.392> 535.391 170.609<605.667 666.039>
LayerCount: 2
Fore
SplineSet
535.391 638.5 m 0
 535.393 681.805 575.751 710.552 611.95 712 c 1
 613.5 712 l 0
 644.873 712 671.386 692.815 682.321 666.043 c 1
 700.936 625.168 l 1
 703.338 619.598 704.614 615.074 705.287 611.26 c 0
 706.203 606.068 705.999 602.192 706 598.784 c 0
 706 579.838 698.267 564.143 688.502 553.582 c 1
 522.715 375.938 l 1
 443.662 294.562 370.758 209.145 363.964 104.367 c 1
 363.41 91.1299 360.093 85.9072 359.063 83.6982 c 1
 365.072 41.1748 l 1
 365.072 34.1465 l 0
 365.072 -6.16113 323.865 -34 281.616 -34 c 0
 234.392 -34 203.616 -3.62598 199.312 29.0186 c 1
 179.149 172.852 180.451 272.822 166.47 352.114 c 0
 158.572 396.901 145.8 435.091 121.527 470.862 c 1
 96.5713 510.237 59.0488 543.235 19.2129 564.168 c 1
 -2.36328 574.969 -14.7051 595.157 -18.0596 614.182 c 0
 -18.6875 617.742 -19 621.261 -19 624.67 c 0
 -19 665.086 17.292 693 54.5 693 c 0
 55.5 693 l 0
 100.91 693 206.173 621.809 266.864 525.91 c 1
 299.532 474.476 318.194 420.26 328.929 370.795 c 1
 352.279 399.814 371.76 421.599 392.461 444.802 c 1
 544.617 605.606 l 1
 542.526 609.497 l 1
 542.167 610.287 l 0
 537.345 620.903 535.391 629.926 535.391 638.5 c 0
EndSplineSet
EndChar

StartChar: Z
Encoding: 90 90 23
Width: 938
VWidth: -1282
Flags: W
HStem: -7.84473 146.823<538.731 741.001> 14 129.022<94.9753 160.281> 473.168 248.073<128.671 273.764> 673 20G<772.923 798.047>
LayerCount: 2
Fore
SplineSet
190.057 473.168 m 0x60
 123.018 473.168 69.6982 515.992 59.9551 571.244 c 0
 58.9053 577.2 58.3613 583.301 58.3613 589.508 c 0
 58.3613 667.924 135.104 721.241 221.492 721.241 c 0x60
 227.693 721.241 231.611 721.032 232.393 720.999 c 1
 366.627 720.29 420.654 630.169 550.707 630.169 c 0
 632.72 630.169 704.03 661.612 734.871 680.135 c 1
 751.399 691.223 767.347 693 778.5 693 c 0
 817.595 693 845.814 666.301 851.104 636.308 c 0
 851.695 632.948 852 629.547 852 626.138 c 0
 852 559.25 740.583 533.983 727.488 526.471 c 1
 629.059 470.254 613.267 333.635 426.951 178.953 c 1
 555.728 167.505 613.483 138.979 674.955 138.979 c 0
 742.828 138.979 739.254 185 803.5 185 c 0
 842.158 185 870.184 156.303 875.917 123.784 c 0
 876.632 119.732 877 115.622 877 111.5 c 0
 877 39.3477 766.095 -7.84473 673.48 -7.84473 c 0x90
 548.024 -7.84473 491.801 40.5361 347.441 40.5361 c 0
 225.048 40.5361 184.424 14 150.5 14 c 0
 111.492 14 83.3125 41.1084 77.9326 71.6172 c 0
 77.3164 75.1104 77 78.6494 77 82.1963 c 0
 77 110.082 95.3623 132.929 117.121 143.022 c 1
 357.15 248.403 436.693 409.373 497.837 502.571 c 1
 407.649 511.086 351.135 539.548 308.1 559.203 c 1
 309.004 553.035 308.739 552.454 308.739 550.758 c 0
 308.739 491.073 233.163 473.168 190.057 473.168 c 0x60
EndSplineSet
EndChar

StartChar: T
Encoding: 84 84 24
Width: 737
VWidth: -1282
Flags: W
HStem: -14 21G<373.598 411.992> 449.08 248.439<28.0193 177.309> 475.305 276.217<475.775 567.387>
VStem: 291.69 166.156<25.9154 222.637> 315.36 158.613<7.39909 112.514> 322.671 166.412<173.351 426.135>
LayerCount: 2
Fore
SplineSet
426.552 658.5 m 0xc4
 426.552 721.769 509.857 751.521 570.417 751.521 c 0
 634.396 751.521 690.865 714.499 700.848 657.885 c 0
 701.875 652.058 702.41 646.024 702.41 639.801 c 0
 702.41 535.698 554.855 480.113 456.531 475.305 c 1
 464.558 446.514 475.097 405.886 481.977 366.869 c 0
 486.229 342.756 489.083 319.258 489.083 299.55 c 0xa4
 489.083 208.787 457.847 145.559 457.847 113.956 c 0xb0
 457.847 111.258 458.064 108.863 458.449 106.681 c 0
 460.824 93.2148 469.562 87.8926 472.777 69.6621 c 0
 473.525 65.4199 473.975 60.4785 473.974 54.5732 c 0
 473.975 14.0127 432.997 -14 390.986 -14 c 0
 356.21 -14 327.604 4.34277 315.36 25.9102 c 1xa8
 305.748 43.2949 297.994 62.8799 294.207 84.3564 c 0
 292.585 93.5576 291.69 103.105 291.69 112.977 c 0xb0
 291.69 187.879 322.671 220.253 322.671 298.955 c 0
 322.671 312.304 320.691 328.983 317.519 346.978 c 0
 306.461 409.691 280.898 488.384 274.032 497.79 c 0
 262.504 513.587 260.933 505.607 240.107 522.37 c 1
 208.868 536.63 l 1
 210.057 529.794 209.766 528.768 209.767 526.704 c 0
 209.766 466.993 132.896 449.08 89.0566 449.08 c 0
 22.0195 449.08 -31.2969 491.918 -41.043 547.191 c 0
 -42.0938 553.152 -42.6387 559.258 -42.6387 565.471 c 0
 -42.6387 649.684 40.6494 697.52 123.961 697.52 c 0
 275.255 697.52 350.406 602.396 442.565 601.896 c 1
 444.47 601.976 450.96 602.527 455.486 602.992 c 1
 438.701 616.315 430.287 631.232 427.566 646.661 c 0
 426.876 650.58 426.552 654.533 426.552 658.5 c 0xc4
EndSplineSet
EndChar

StartChar: A
Encoding: 65 65 25
Width: 942
VWidth: -1282
Flags: W
HStem: -12 187.439<801.924 880.424> 168.5 147<504.496 572.484> 375.5 20G<211.125 273.352> 428.527 272.473<135.011 269.534> 486.324 21G<375.593 395.841>
LayerCount: 2
Fore
SplineSet
299.691 241.145 m 1x20
 285.3 185.369 233.948 162.559 193.021 160.593 c 1
 219.098 154.732 239.316 139.434 249.287 121.299 c 0
 253.608 113.439 261.004 110.281 268.812 110.281 c 0
 278.874 110.281 293.742 115.902 307.183 136.856 c 0
 323.337 162.039 330.083 206.478 332.317 229.094 c 1
 311.821 237.37 307.035 238.774 299.691 241.145 c 1x20
105 108.511 m 0
 105 146.13 135.825 173.68 170.797 177.041 c 1
 134.728 183.488 95.7568 210.444 87.5645 256.905 c 0
 86.543 262.695 86 268.787 86 275.18 c 0
 86 354.404 169.22 395.5 253.029 395.5 c 0
 293.674 395.5 328.19 386.802 353.857 379.154 c 1
 369.306 431.082 392.769 464.062 414.156 488.011 c 1
 412.9 487.839 411.646 487.664 409.966 487.473 c 0
 407.932 487.242 l 1
 405.896 487.242 l 1
 403.953 487.12 397.898 486.324 393.783 486.324 c 0x68
 357.402 486.324 331.582 497.947 313.31 509.137 c 1
 305.023 479.288 267.868 428.527 188.5 428.527 c 0
 180.584 428.527 l 1
 179.671 428.583 l 0
 114.347 432.579 71.1523 481.792 61.874 534.409 c 0
 60.6338 541.442 60 548.535 60 555.59 c 0
 60 632.146 130.443 701 226.639 701 c 0
 308 701 362.264 655.21 387.587 631.225 c 1
 408.978 659.564 446.488 696 507.046 696 c 0
 582.486 696 619.8 652.005 630.48 633.074 c 1
 657.689 607.02 708.155 516.499 726.988 409.688 c 0
 728.388 401.753 729.611 393.729 730.64 385.636 c 1
 738.229 329.58 739.035 270.182 747.657 221.286 c 0
 754.34 183.385 765.719 151.794 788.597 132.963 c 1
 801.821 160.165 829.461 175.439 857.5 175.439 c 0
 895.46 175.439 924.558 150.135 930.106 118.669 c 0
 930.576 116.003 930.877 113.294 931 110.552 c 1
 931 105.382 l 0
 931 51.7969 887.856 -12 801.501 -12 c 0xb0
 706.667 -12 617.855 57.4697 589.415 172.262 c 1
 588.704 176.599 l 1
 569.224 171.376 552.454 169.13 535.142 168.5 c 1
 527.939 168.5 l 0x60
 510.826 168.5 495.955 170.675 486.665 172.279 c 1
 473.813 113.737 446.287 60.3193 383.159 25.374 c 1
 352.626 4.51758 318.61 -6.66699 283.774 -8.92969 c 0
 282.698 -9 l 1
 270.625 -9 l 0
 180.337 -9 115.031 45.8105 106.057 96.7061 c 0
 105.357 100.674 105 104.618 105 108.511 c 0
504.496 318.736 m 1
 514.221 316.375 523.246 315.5 531.238 315.5 c 0
 539.558 315.5 561.287 320.604 573.042 336.449 c 1
 571.238 361.453 569.599 381.292 565.881 402.376 c 0
 564.537 409.999 562.921 417.785 560.928 426.037 c 1
 534.927 400.834 516.617 380.628 504.496 318.736 c 1
EndSplineSet
EndChar

StartChar: B
Encoding: 66 66 26
Width: 724
VWidth: -1282
Flags: W
HStem: -1.44336 141.17<302.224 487.132> 613.5 107.5<311.345 385.146> 728 20G<102.303 136.96>
VStem: 168.279 172.216<461.299 562.055> 424.948 158.26<482.345 579.086> 520.723 143.016<172.239 279.708>
LayerCount: 2
Fore
SplineSet
47.001 675.5 m 0xf4
 46.999 719.511 84.1055 748 120.5 748 c 0
 153.42 748 177.772 726.965 194.065 716.311 c 1
 205.799 718.337 208.5 718 212.765 718 c 0
 229.247 718 241.754 713.957 250.428 710.787 c 1
 281.008 719.021 305.005 721 330.053 721 c 0
 466.425 721 563.617 643.771 580.568 547.636 c 0
 582.312 537.742 583.208 527.646 583.208 517.416 c 0xf8
 583.207 486.467 575.202 458.283 562.177 433.268 c 1
 556.367 422.467 549.155 417.054 545.999 414.34 c 1
 559.68 409.388 569.601 405.057 578.64 397.776 c 1
 614.94 367.792 649.698 320.153 660.39 259.515 c 0
 662.559 247.213 663.738 234.375 663.738 221.041 c 0
 663.738 91.4307 554.754 -1.44336 397.936 -1.44336 c 0
 372.406 -1.44336 332.84 1.49414 283.738 13.0811 c 1
 265.945 0.165039 245.475 -5 226.982 -5 c 0
 167.585 -5 148.875 38.2051 140.998 61.8789 c 1
 113.041 76.8682 83.3389 93.8926 77.8857 124.817 c 0
 77.3057 128.106 77 131.553 77 135.171 c 0
 77 173.456 109.592 197.09 142.618 200.192 c 1
 160.729 280.239 148.102 199.125 158.055 340.319 c 1
 161.338 390.44 168.278 432.735 168.279 467.992 c 0
 168.278 482.183 167.127 495.071 165.062 506.783 c 0
 153.551 572.068 113.661 600.832 86.666 615.049 c 1
 63.0752 626.756 51.2305 646.085 47.959 664.636 c 0
 47.3115 668.31 47 671.953 47.001 675.5 c 0xf4
395.924 139.727 m 0
 478.236 139.727 520.723 178.065 520.723 221.542 c 0xf4
 520.723 226.905 520.268 232.086 519.388 237.077 c 0
 510.443 287.801 457.606 319.031 392.342 324.137 c 1
 392.039 324.167 391.166 324.481 390.863 324.533 c 1
 372.6 321.35 358.37 319.5 343.085 319.5 c 0
 335.486 319.5 330.415 319.712 327.311 319.842 c 1
 324.487 285.527 323.573 248.686 314.784 209.259 c 1
 309.129 185.797 303.524 167.383 300.532 154.6 c 1
 348.172 141.431 377.937 139.727 395.924 139.727 c 0
330.053 613.5 m 0
 320.683 613.5 313.908 614.178 310.763 614.41 c 1
 322.028 589.021 330.388 562.532 335.327 534.521 c 0
 338.717 515.294 340.495 495.349 340.495 474.551 c 0
 340.495 467.834 340.36 463.614 340.268 460.52 c 1
 340.756 460.509 341.247 460.5 341.899 460.5 c 0
 391.437 460.5 424.948 495.299 424.948 530.129 c 0xf8
 424.948 533.677 424.636 537.121 424.047 540.46 c 0
 415.771 587.394 352.802 613.5 330.053 613.5 c 0
EndSplineSet
EndChar

StartChar: p
Encoding: 112 112 27
Width: 493
VWidth: -1282
Flags: W
HStem: -255 21G<79.7827 109.892> 361 20G<71.3701 115.92>
VStem: 58.1982 162.717<-148.319 -2.82617> 316.788 144.869<128.35 208.207>
LayerCount: 2
Fore
SplineSet
54.1553 100.106 m 1
 57.3408 140.712 60.5654 165.09 60.5654 190.204 c 0
 60.5654 202.364 59.6953 212.407 58.2061 220.853 c 0
 50.4033 265.102 25.6191 265.493 20.0967 296.808 c 0
 19.3906 300.812 19 305.325 19 310.5 c 0
 19 352.733 53.2402 381 89.5 381 c 0
 90.5 381 l 0
 141.341 381 174.296 328.043 192.704 296.283 c 1
 228.955 314.085 272.9 325.255 323.438 325.255 c 0
 376.899 325.255 443.345 297.951 458.487 212.072 c 0
 460.547 200.393 461.657 187.631 461.657 173.707 c 0
 461.657 134.984 454.505 34.3623 291.852 3.65723 c 1
 264.403 -0.300781 241.031 -2.03613 219.812 -2.82617 c 1
 220.702 -17.8486 220.914 -28.0596 220.915 -38.835 c 0
 220.915 -91.6436 210.199 -152.736 169.221 -213.718 c 1
 151.44 -242.433 121.284 -255 98.5 -255 c 0
 61.0654 -255 34.6045 -228.101 29.0742 -196.737 c 0
 28.3652 -192.715 28 -188.621 28 -184.5 c 0
 28 -140.774 58.1982 -120.921 58.1982 -47.0283 c 0
 58.1982 -25.8906 56.0059 -2.03711 54.4277 21.5342 c 1
 47.7305 32.7041 44.3145 41.7939 42.8711 49.9785 c 0
 42.2568 53.4629 42 56.7832 42 60.0303 c 0
 42 88.0029 52.1084 91.1406 54.1553 100.106 c 1
315.868 154.489 m 0
 316.648 160.432 316.788 165.789 316.788 169.875 c 0
 316.788 179.435 315.822 189.05 314.455 196.802 c 0
 313.633 201.465 312.666 205.454 311.677 208.351 c 1
 300.023 202.456 287.263 188.226 277.635 178.149 c 1
 256.342 154.168 242.624 134.247 230.582 112.039 c 1
 297.572 117.749 313.846 139.088 315.868 154.489 c 0
EndSplineSet
EndChar

StartChar: n
Encoding: 110 110 28
Width: 410
VWidth: -1282
Flags: W
HStem: -5 21G<93.7275 130.63 286.566 319.083> 312 20G<70.2944 104.633 201.021 260.044>
VStem: 42 141<10.5904 223.907> 213.991 142.008<56.5321 236.467>
LayerCount: 2
Fore
SplineSet
42 52.3438 m 1
 40.8799 78.042 40.9551 98.0967 40 119.455 c 0
 40 146.095 38.0947 134.015 37.998 159.123 c 1
 37.0068 184.012 35.9814 211.308 33.9385 230.518 c 1
 27.0605 239.188 22.3574 250.616 20.3369 261.628 c 0
 20 263.462 l 1
 20 266.406 19 269.967 19 271.342 c 0
 19 307.109 52.6865 330.683 87.9023 332 c 1
 90.501 332 l 0
 118.765 332 135.693 315.014 142.008 308.314 c 1
 164.579 320.988 187.543 329 214.5 329 c 0
 305.588 329 346.956 259.978 353.925 220.456 c 0
 354.647 216.358 355 212.577 354.999 209.224 c 0
 355 200.66 l 1
 355.892 189.209 356.019 176.183 356.019 165.205 c 0
 356.019 160.883 356 156.88 355.999 153.414 c 0
 356 129.05 356.872 105.167 358.099 91.3672 c 1
 365.338 82.0283 368.819 73.5723 370.217 65.6475 c 0
 370.774 62.4854 371 59.4072 371 56.3906 c 0
 371 20.6494 337.666 -5 300.5 -5 c 0
 272.633 -5 227.113 19.959 218.286 79.542 c 1
 214.287 107.541 213.991 137.577 213.991 164.608 c 0
 213.991 169.34 214 173.98 214 178.5 c 0
 214.001 195.634 213 218.768 212.999 229.5 c 0
 213 231.684 212.231 235.442 212.168 235.766 c 1
 210.955 238.352 l 1
 201.91 232.194 195.078 226.69 192.393 224.443 c 1
 186.601 213.234 180.606 187.191 180 180.454 c 1
 180.094 163.006 180.962 150.162 181 137.075 c 1
 182.118 110.215 183 88.1543 183 67.5 c 0
 183 63.5 l 0
 183 21.2666 148.761 -7 112.5 -7 c 0
 74.9551 -7 47.5078 17.708 42.71 44.918 c 0
 42.3623 46.8896 42.1338 48.874 42.0283 50.8633 c 0
 42 51.4004 l 1
 42 52.3438 l 1
EndSplineSet
EndChar

StartChar: m
Encoding: 109 109 29
Width: 603
VWidth: -1282
Flags: W
HStem: -5 329.904<52.0249 142.895 236.135 311.501 313.932 368.075 438.001 503.003>
VStem: 40.0029 148.234<18.1059 194.862> 214.303 179.479<21.6767 218.921> 415.381 144.619<54.626 237.833>
LayerCount: 2
Fore
SplineSet
211.82 204.5 m 0
 211.82 213.965 213.524 218.128 213.724 218.963 c 0
 212.082 226.639 211.359 229.399 211.096 230.454 c 1
 200.769 222.752 192.221 212.003 187.065 203.676 c 1
 187.409 189.709 188.237 178.859 188.237 167.5 c 0
 188.237 139.251 188.104 109.638 187.001 84.1133 c 1
 186.774 70.1045 185.755 68.3525 185.755 62.9023 c 1
 183.483 20.8174 143.214 -5 108.5 -5 c 0
 70.3936 -5 43.6572 18.9541 38.7959 46.5244 c 0
 38.2695 49.5098 38 52.5381 38 55.583 c 0
 38 59.0205 l 0
 38 70.2158 39 71.6885 39 75.8018 c 1
 39.9271 96.5134 40.0029 113.703 40.0029 131.695 c 0
 40.0029 135.214 40 138.763 40 142.376 c 0
 40 151.601 39.1709 163.072 39.0283 170.844 c 1
 37.1211 177.56 37 180.479 37 183.624 c 0
 36.999 192.63 38.6582 194.459 38.7764 194.883 c 1
 37.9482 207.558 37.1807 221.222 36.5967 230.542 c 1
 28.2744 239.067 21.835 250.255 19.7334 262.178 c 0
 19.2539 264.894 19 267.648 19 270.417 c 0
 19 306.141 52.6865 329.685 87.9014 331 c 1
 89.5 331 l 0
 110.12 331 127.725 322.167 138.632 311.259 c 1
 142.963 307.198 l 1
 165.146 317.908 192.996 324.904 223.878 324.904 c 0
 259.531 324.904 289.766 315.26 312.576 301.873 c 1
 341.405 318.362 376 330 413.521 330 c 0
 472.336 330 542.197 296.47 557.111 211.889 c 0
 558.993 201.218 560 189.735 560 177.404 c 0
 560 153.537 557.999 136.902 558 124.104 c 0
 558 123.482 l 1
 557.962 122.861 l 0
 557.726 118.988 557.741 117.016 557.74 115.495 c 0
 557.739 106.169 559.032 96.6787 560.594 87.8193 c 0
 561.945 80.1553 563.5 72.9639 564.594 66.7598 c 0
 565.432 62.0049 566 57.8301 566 54.4678 c 0
 565.999 17.9824 530.957 -7 494.5 -7 c 0
 443.362 -7 423.92 31.2939 416.655 72.4941 c 0
 413.069 92.8329 412.451 113.873 412.451 131.376 c 0
 412.451 158.222 415.381 179.524 415.381 207.486 c 0
 415.381 226.655 412.165 235.011 410.366 239.12 c 1
 400.27 230.202 394.339 219.582 391.083 211.866 c 1
 393.449 191.834 393.781 178.379 393.781 164.354 c 0
 393.781 152.562 393.401 143.227 393.011 135.371 c 0
 389.286 62.3438 l 1
 387.071 21.2842 344.885 -5 301.809 -5 c 0
 254.191 -5 220.878 23.252 215.173 55.6084 c 0
 214.598 58.8721 214.303 62.1777 214.303 65.5 c 0
 214.302 67.0732 l 1
 215.668 93.4883 215.628 116.085 216.785 139.071 c 1
 216.785 177.933 l 1
 212.916 188.256 211.82 194.865 211.82 201.5 c 0
 211.82 204.5 l 0
EndSplineSet
EndChar

StartChar: f
Encoding: 102 102 30
Width: 424
VWidth: -1282
Flags: W
HStem: 234.217 162.301<57.3291 131.465> 389 20G<392.156 424.529> 591 161.107<337.648 419.268>
VStem: 121.339 187.366<398.105 607.947> 146.535 190.148<59.5348 236.296>
LayerCount: 2
Fore
SplineSet
388.499 591 m 0xb0
 353.267 591 337.637 610.991 337.637 610.991 c 2
 334.783 610.812 308.705 606.178 308.705 560.294 c 0xb0
 308.705 523.104 313.42 535.104 326.1 366.456 c 1
 328.2 366.764 336.457 369.989 340.286 372.345 c 1
 355.258 396.66 380.812 409 403.501 409 c 0
 405.501 409 l 0
 443.558 409 469.433 380.901 474.914 349.811 c 0
 475.632 345.74 476 341.617 476 337.5 c 0
 476 289.788 410.139 241.891 334.545 236.337 c 1
 334.593 235.438 334.54 236.583 334.578 235.684 c 0
 335.545 213.046 336.684 191.878 336.684 170.414 c 0
 336.684 108.178 328.992 -60.7081 104.117 -153.805 c 1
 102.66 -154.666 l 1
 101.799 -155.097 l 0
 90.6943 -160.649 78.8545 -164 67.5 -164 c 0
 30.0654 -164 3.60449 -137.1 -1.92578 -105.736 c 0
 -2.63477 -101.715 -3 -97.6201 -3 -93.5 c 0
 -3 6.78207 146.535 -49.4437 146.535 186.076 c 0x68
 146.535 201.362 144.72 245.617 143.631 268.734 c 1
 137.564 265.418 114.811 234.217 75.5 234.217 c 0
 37.584 234.217 10.9248 259.029 5.87109 287.692 c 0
 5.2959 290.956 5 294.27 5 297.603 c 0
 5 340.603 57.6445 391.049 135.015 396.518 c 1
 128.675 475.468 121.34 520.176 121.339 557.012 c 0
 121.339 699.265 245.695 752.107 333.716 752.107 c 0
 392.149 752.107 450.412 722.133 458.935 673.799 c 0
 459.636 669.822 460 665.72 460 661.5 c 0
 460 618.459 424.06 591 388.499 591 c 0xb0
EndSplineSet
EndChar

StartChar: k
Encoding: 107 107 31
Width: 500
VWidth: -1282
Flags: W
HStem: -9 21G<77.5679 111.411> 306.127 20G<252.099 306.116> 618.333 137.667<181.284 272.931>
VStem: 19.1592 146.045<443.734 599.074> 26.8916 147.168<12.0264 54.9855 413.036 541.57>
LayerCount: 2
Fore
SplineSet
249.629 182.27 m 0xe0
 237.612 182.27 230.026 177.985 224.235 173.644 c 1
 236.912 172.49 236.696 172.078 236.907 172.045 c 1
 259.096 172.614 268.229 175.54 272.302 177.083 c 1
 264.848 180.807 258.044 181.912 257.236 182 c 1
 255.534 182 l 1
 253.494 182.137 l 0
 250.392 182.346 250.359 182.27 249.629 182.27 c 0xe0
213.454 323.06 m 1
 233.813 325.702 245.665 326.127 258.533 326.127 c 0
 353.698 326.127 419.691 277.981 429.632 221.606 c 0
 430.496 216.708 430.936 211.749 430.936 206.754 c 0
 430.936 157.917 392.707 130.39 371.867 118.428 c 1
 378.63 119.355 377.732 119 379.5 119 c 0
 416.935 119 443.396 92.0996 448.926 60.7354 c 0
 449.635 56.7148 450 52.6201 449.999 48.5 c 0
 450 3.02344 407.235 -39.2373 353.389 -39.2373 c 0
 261.006 -39.2373 224.445 22.8779 204.286 58.7852 c 1
 198.891 67.7686 191.125 74.8379 183.796 80.6709 c 1
 180.359 67.7705 176.671 55.665 174.06 48.2246 c 1
 161.12 9.55176 126.322 -9 96.5 -9 c 0
 58.6357 -9 31.9971 16.041 26.8916 44.998 c 0xe8
 26.3027 48.3398 26 51.7324 26 55.1455 c 0
 26 79.4561 54.5371 160.634 54.5371 277.017 c 0
 54.5371 323.436 50.7744 357.93 45.7021 386.694 c 0
 39.0703 424.307 30.2002 452.119 24.582 483.98 c 0
 21.3242 502.458 19.1592 522.298 19.1592 546.201 c 0
 19.1592 712.765 147.606 756 193.438 756 c 0
 197.312 756 l 1
 253.973 754.348 292.231 726.8 297.882 694.76 c 0
 298.362 692.035 298.607 689.277 298.606 686.5 c 0
 298.607 653.225 265.112 626.934 225.508 618.333 c 1
 187.252 609.038 165.204 589.221 165.204 541.938 c 0xf0
 165.204 534.083 165.975 526.462 167.331 518.768 c 0
 173.845 481.828 193.866 443.229 206.924 369.174 c 0
 209.396 355.15 211.62 339.855 213.454 323.06 c 1
EndSplineSet
EndChar

StartChar: c
Encoding: 99 99 32
Width: 358
VWidth: -1282
Flags: W
HStem: -1.87695 21G<141.223 222.323> 191.875 135.125<190.319 281.706>
VStem: 14.9375 141.062<140.487 210.518>
LayerCount: 2
Fore
SplineSet
178.342 -1.87695 m 0
 104.104 -1.87695 31.9248 43.3623 17.5283 125.006 c 0
 15.832 134.629 14.9375 144.758 14.9375 155.378 c 0
 14.9375 273.229 111.359 327 189.5 327 c 0
 260.759 327 318.829 290.418 325.384 253.244 c 0
 325.792 250.932 326 248.618 326.001 246.311 c 0
 326 213.077 290.061 191.875 254.5 191.875 c 0
 196.701 191.875 193.593 217.075 187.918 217.381 c 1
 179.928 215.24 168.682 208.568 167.621 207.442 c 1
 154.239 193.664 155.826 199.118 155.826 178.231 c 0
 155.825 174.094 155.915 171.342 156 168.576 c 1
 156 163.707 156.331 159.675 156.92 156.336 c 0
 159.433 142.085 166.648 140.485 172.935 140.485 c 0
 174.754 140.485 176.495 140.619 178.021 140.619 c 0
 186.458 140.619 189.111 143.854 189.952 144.707 c 1
 202.311 175.31 229.881 191 256.501 191 c 0
 293.935 191 320.396 164.101 325.926 132.737 c 0
 326.635 128.715 327 124.621 327 120.5 c 0
 327 67.1689 266.304 -1.87695 178.342 -1.87695 c 0
EndSplineSet
EndChar

StartChar: h
Encoding: 104 104 33
Width: 389
VWidth: -1282
Flags: W
HStem: -171 135.65<99.2964 155.755> -8 21G<74.7651 109.636> 607.278 138.722<172.15 234.975>
VStem: 22.875 139.872<9.28099 179.768 321.778 598.998> 40.4316 139.45<317.135 537.089> 216.999 141.001<46.1136 230.548>
LayerCount: 2
Fore
SplineSet
40.4316 279.611 m 0xec
 40.4316 420.407 19.1494 486.617 19.1494 539.582 c 0
 19.1494 694.662 145.826 746 179.5 746 c 0
 182.5 746 l 0
 219.934 746 246.396 719.1 251.926 687.735 c 0
 252.635 683.714 253.001 679.62 253 675.5 c 0
 253 641.191 228.847 615.689 202.828 607.278 c 1
 182.603 600.13 160.879 584.513 160.88 539.217 c 0
 160.878 511.02 175.634 416.274 179.882 317.135 c 1xec
 191.856 319.55 198.38 319.792 205.437 319.792 c 0
 282.311 319.792 341.855 262.718 355.193 187.074 c 0
 357.039 176.608 358 165.787 358 154.712 c 0
 358 132.375 351.809 29.3477 309.826 -40.3271 c 1
 269.622 -115.911 196.002 -171 151.5 -171 c 0
 113.443 -171 87.5684 -142.901 82.0859 -111.812 c 0
 81.3682 -107.74 81 -103.618 81 -99.5 c 0
 81 -69.6582 99.8281 -45.8164 122.334 -35.3496 c 1
 193.521 -0.28418 204.462 76.9609 211.352 122.896 c 1
 215.578 147.197 217 165.344 216.999 182.5 c 0
 217 185.705 216.337 191.508 215.176 198.096 c 0
 212.992 210.478 209.048 225.633 204.437 231.528 c 1
 195.917 218.584 176.38 144.773 171.767 121.641 c 1
 169.244 94.1953 165.501 73.8877 162.747 52.7764 c 1
 157.374 15.1641 125.771 -8 93.5 -8 c 0
 56.0303 -8 28.083 16.5439 22.875 46.0791 c 0xf4
 22.2979 49.3555 22 52.6934 22 56.0654 c 0
 22 59.3115 l 1
 24.166 106.544 40.4316 148.129 40.4316 279.611 c 0xec
EndSplineSet
EndChar

StartChar: b
Encoding: 98 98 34
Width: 495
VWidth: -1282
Flags: W
HStem: 1.63184 141.747<240.872 310.465> 306.255 20G<312.069 353.174> 723 20G<120.82 161.547>
VStem: 46.6611 157.866<363.804 679.025> 318.721 145.111<151.993 235.834>
LayerCount: 2
Fore
SplineSet
82.0205 215.547 m 1
 82.3867 224.231 82.3926 227.444 82.3926 231.837 c 0
 82.3926 257.148 78.8555 283.212 74.0068 310.708 c 0
 69.6289 335.54 64.1807 361.539 59.3027 389.205 c 0
 52.4141 428.272 46.6611 470.663 46.6611 517.784 c 0
 46.6611 576.57 53.8779 634.356 66.6699 687.55 c 1
 73.9932 722.333 106.141 743 135.5 743 c 0
 136.5 743 l 0
 186.594 743 223.689 712.644 229.302 680.814 c 0
 229.79 678.047 230.04 675.27 230.04 672.5 c 0
 230.039 639.044 204.527 603.658 204.527 515.872 c 0
 204.528 489.108 207.315 464.164 211.578 439.988 c 0
 219.051 397.611 231.055 357.595 240.521 314.277 c 1
 270.378 322.958 297.308 326.255 326.831 326.255 c 0
 379.517 326.255 444.956 299.854 460.438 212.047 c 0
 462.641 199.556 463.832 185.822 463.832 170.744 c 0
 463.831 35.3359 335.549 1.63184 249.957 1.63184 c 0
 217.339 1.63184 188.039 5.90723 163.99 11.0586 c 1
 145.288 0.845703 131.69 -3 118.5 -3 c 0
 79.9658 -3 53.9209 23.0566 48.8896 51.5938 c 0
 48.3008 54.9307 48 58.3027 48 61.6699 c 0
 48 67.7412 l 1
 48.2119 69.2773 l 0
 49.1523 76.083 50.2617 80.623 50.5029 81.7852 c 1
 34.0635 103.974 23.1436 123.424 19.9629 141.463 c 0
 19.3271 145.067 19 148.616 19 152.118 c 0
 19 188.335 49.2168 211.858 82.0205 215.547 c 1
250.711 143.392 m 0
 277.19 143.392 318.721 146.181 318.721 200.851 c 0
 318.721 213.305 317.771 222.075 316.714 228.066 c 0
 316.012 232.05 315.263 234.805 314.716 236.6 c 1
 301.712 229.641 273.596 204.854 244.641 157.93 c 1
 242.411 148.814 241.67 147.131 240.58 143.766 c 1
 245.597 143.433 247.339 143.379 248.702 143.379 c 0
 249.354 143.379 249.918 143.392 250.711 143.392 c 0
EndSplineSet
EndChar

StartChar: s
Encoding: 115 115 35
Width: 357
VWidth: -1282
Flags: W
HStem: -2.65137 21G<134.603 210.876> 311.126 20G<132.165 216.02>
VStem: 15 308.41<53.0459 146.301>
LayerCount: 2
Fore
SplineSet
326.999 230.997 m 0
 326.999 204.925 307.494 186.144 289.868 177.932 c 1
 307.091 163.101 318.359 144.401 322.068 123.368 c 0
 322.956 118.336 323.409 113.17 323.41 107.893 c 0
 323.41 36.5723 245.718 -2.65137 176.035 -2.65137 c 0
 93.1709 -2.65137 23.7617 47.458 15.7676 92.7939 c 0
 15.2598 95.6738 15 98.5332 15 101.36 c 0
 15 130.561 37.8945 150.939 61.7822 158.428 c 1
 47.6006 174.035 39.3789 190.388 36.2344 208.224 c 0
 35.2314 213.908 34.7451 219.742 34.7451 225.751 c 0
 34.7451 278.201 90.0625 331.126 174.268 331.126 c 0
 257.771 331.126 319.391 277.64 326.345 238.204 c 0
 326.779 235.741 326.999 233.334 326.999 230.997 c 0
EndSplineSet
EndChar

StartChar: e
Encoding: 101 101 36
Width: 461
VWidth: -1282
Flags: W
HStem: -2 21G<136.815 235.439> 309 20G<145.912 240.922>
LayerCount: 2
Fore
SplineSet
175 75 m 17
 212 70 230.753 68.0934 263 80 c 24
 284.991 88.1201 310 114 305 123 c 9
 175 75 l 17
236 200 m 17
 225 214 200.895 230.05 179 221 c 24
 159.167 212.802 153 183 161 169 c 9
 236 200 l 17
189.799 -2 m 0
 83.832 -2 28.6982 61.3877 17.2617 126.248 c 0
 15.748 134.828 15 143.435 15 151.924 c 0
 15 245.846 88.9688 329 202.856 329 c 0
 278.988 329 332.293 303.712 351.004 279.967 c 1
 365.62 286.605 375.194 288.697 385.499 288.697 c 0
 423.614 288.697 450.355 264.783 455.208 237.263 c 0
 455.731 234.29 456.001 231.274 456 228.242 c 0
 456.001 208.475 444.783 190.744 429.558 180.589 c 1
 405.827 164.229 383.174 152.14 361.12 142.283 c 1
 376.264 131.459 383.818 118.24 386.172 104.896 c 0
 386.734 101.704 387 98.5039 387 95.3281 c 0
 387 37.209 281.078 -2 189.799 -2 c 0
EndSplineSet
EndChar

StartChar: r
Encoding: 114 114 37
Width: 399
VWidth: -1282
Flags: W
HStem: -4 21G<93.7241 130.63> 117.819 210.181<226.452 296.241>
VStem: 42 141<11.7343 190.446>
LayerCount: 2
Fore
SplineSet
42 55.2451 m 1
 39 122.244 l 2
 39.001 134.443 38.9287 133.582 38.8662 135.077 c 1
 38.7041 135.925 38.8496 135.096 38.709 135.946 c 0
 37.9404 140.588 38 148.321 38 161.805 c 1
 37.0596 185.229 36.0381 210.443 33.9902 229.312 c 1
 26.4463 238.189 21.3926 249.562 19.3369 260.745 c 0
 19 262.576 l 1
 19 270.442 l 0
 19 305.261 51.4785 331 89.5 331 c 0
 118.162 331 135.274 314.647 141.824 307.207 c 1
 162.985 319.22 187.399 328 214.5 328 c 0
 320.803 328 350.465 241.852 355.964 210.661 c 0
 356.696 206.512 357 203.335 357 201.463 c 0
 357 181.041 350.182 117.819 283.5 117.819 c 0
 245.799 117.819 217.738 141.277 212.781 169.389 c 0
 212.266 172.316 212 175.293 211.999 178.3 c 0
 212 188.725 212.688 184.743 212.955 185.915 c 1
 213.54 188.68 213.443 188.525 213.443 188.525 c 0
 214.84 195.111 214.23 197.117 214.165 198.105 c 1
 212.308 201.936 211.273 203.543 211.088 203.869 c 1
 202.656 199.978 194.885 193.959 191.071 190.851 c 1
 185.726 182.396 180.632 162.971 180 156.832 c 1
 180.094 141.818 180.962 130.84 181 119.6 c 1
 182.119 96.5566 183 77.6309 182.999 59.9121 c 0
 183 56.4805 l 0
 183 20.25 148.761 -4 112.5 -4 c 0
 74.9482 -4 47.498 20.6758 42.707 47.8467 c 0
 42.3613 49.8105 42.1338 51.7861 42.0283 53.7676 c 0
 42 54.3027 l 1
 42 55.2451 l 1
EndSplineSet
EndChar

StartChar: o
Encoding: 111 111 38
Width: 370
VWidth: -1282
Flags: W
HStem: -3.15137 21G<136.72 230.151> 308 20G<137.073 190.839>
VStem: 15.9375 140.969<112.759 208.058> 197 141.094<112.107 211.152>
LayerCount: 2
Fore
SplineSet
338.094 169.606 m 0
 338.094 97.2969 286.803 -3.15137 173.499 -3.15137 c 0
 99.9404 -3.15137 32.3633 46.7412 18.5186 125.259 c 0
 16.8271 134.853 15.9375 144.875 15.9375 155.285 c 0
 15.9375 240.932 84.6465 328 189.5 328 c 0
 190.171 328 l 1
 190.839 327.968 l 0
 263.498 324.927 323.244 271.693 335.642 201.38 c 0
 337.137 192.903 337.943 184.178 338.001 175.263 c 1
 338.157 169.96 338.094 171.105 338.094 169.606 c 0
197 176 m 0
 197 181.867 196.565 186.746 195.848 190.819 c 0
 193.278 205.39 187.077 209.636 184.153 211.812 c 1
 172.394 203.607 156.906 184.007 156.906 155.523 c 0
 156.907 147.992 157.466 141.743 158.381 136.555 c 0
 162.007 115.989 171.226 112.083 173.408 111.06 c 1
 179.631 114.475 196.999 129.058 197 176 c 0
EndSplineSet
EndChar

StartChar: j
Encoding: 106 106 39
Width: 264
VWidth: -1282
Flags: W
HStem: 310 20G<68.9497 116.771> 401 148<29.5108 135.544>
VStem: 10 146<421.044 529.179> 36.6465 142.223<-17.6775 188.592> 45.0127 141.769<-27.54 94.1257 100.7 245.845>
LayerCount: 2
Fore
SplineSet
82.5 549 m 0xe0
 121.267 549 149.085 520.081 154.881 487.213 c 0
 155.619 483.022 156 478.767 156 474.5 c 0
 156 429.95 119.203 401 82.5 401 c 0
 44.0098 401 16.8525 429.222 11.125 461.703 c 0
 10.3828 465.914 10 470.197 10 474.5 c 0
 10 517.713 44.3916 549 82.5 549 c 0xe0
9.89258 -105.706 m 1
 24.668 -98.998 36.7324 -82.0205 42.6904 -53.501 c 1
 33.0918 -81.5498 9.22754 -98.1025 -14.2686 -102.304 c 1
 -12.6152 -104.456 -7.72266 -107.381 -0.52832 -107.381 c 0
 3.26465 -107.381 7.4248 -106.444 9.89258 -105.706 c 1
-24.5 38 m 0
 13.0273 38 39.4814 10.2295 45.0029 -21.084 c 0
 45.3799 -23.2217 45.6592 -25.377 45.8379 -27.54 c 1
 46.0996 -22.0859 46.0957 -19.0537 46.0957 -16.8848 c 0
 46.0957 14.0391 36.6465 49.9746 36.6465 96.2891 c 0xd0
 36.6465 135.779 45.0127 171.885 45.0127 191.612 c 0
 45.0127 195.657 44.6973 199.219 44.1348 202.409 c 0
 40.1289 225.128 23.5879 229.023 19.1182 254.374 c 0
 18.4053 258.413 18 262.995 18 268.285 c 0
 18 303.055 50.4004 330 87.499 330 c 0
 88.499 330 l 0
 145.044 330 174.439 275.88 183.592 223.972 c 0
 185.748 211.745 186.781 199.641 186.781 188.396 c 0xc8
 186.781 147.896 178.87 122.591 178.869 99.6221 c 0xd0
 178.87 66.3701 187.44 20.3125 187.441 -21.9053 c 0
 187.441 -188.552 74.4639 -248.996 -2.32324 -248.996 c 0
 -82.8125 -248.996 -141.796 -191.864 -153.765 -123.985 c 0
 -155.239 -115.624 -156 -107.1 -155.999 -98.5 c 0
 -156.001 -31.0615 -101.523 33.752 -30.1152 37.9521 c 0
 -29.3086 38 l 1
 -24.5 38 l 0
EndSplineSet
EndChar

StartChar: i
Encoding: 105 105 40
Width: 269
VWidth: -1282
Flags: W
HStem: -4.49512 21G<96.7007 146.322> 394 148<38.5105 144.544>
VStem: 19 146<414.044 522.179> 28.5 181.501<24.1022 114.793> 52.501 142.512<120.032 261.425>
LayerCount: 2
Fore
SplineSet
91.5 542 m 0xe0
 130.268 542 158.084 513.08 163.88 480.212 c 0
 164.619 476.021 165 471.767 165 467.5 c 0
 165 422.95 128.203 394 91.5 394 c 0
 53.0098 394 25.8525 422.221 20.125 454.702 c 0
 19.3828 458.914 19 463.197 19 467.5 c 0
 19 510.713 53.3906 542 91.5 542 c 0xe0
28.5 79.7998 m 0xd0
 28.5 124.642 52.5 174.717 52.501 194.901 c 0
 52.5 199.601 52.125 203.66 51.4873 207.276 c 0
 48.5605 223.874 40.1104 231.153 37.0898 248.286 c 0
 36.4053 252.165 36 256.551 36 261.664 c 0
 36 297.809 70.2393 322 106.5 322 c 0
 109.416 322 l 1
 110.329 321.939 l 0
 166.552 318.731 185.575 271.427 191.938 235.345 c 0
 195.756 213.692 195.014 196.081 195.013 194.469 c 0xc8
 195.014 161.821 186.77 138.975 180.1 119.098 c 1
 196.932 108.027 206.598 93.5645 209.248 78.5322 c 0
 209.75 75.6875 210.001 72.8223 210 69.9561 c 0
 210.001 65.8408 l 1
 209.952 65.1504 l 0
 207.271 26.1426 168.922 -4.49512 123.723 -4.49512 c 0
 69.6787 -4.49512 36.0742 30.459 29.6348 66.9834 c 0
 28.8818 71.252 28.5 75.542 28.5 79.7998 c 0xd0
EndSplineSet
EndChar

StartChar: d
Encoding: 100 100 41
Width: 380
VWidth: -1282
Flags: W
HStem: -4 21G<139.213 226.91> 598 160<200.319 280.803>
VStem: 16 142<138.017 229.926> 38 141<453.422 616.615> 200 141<139.681 234.186>
LayerCount: 2
Fore
SplineSet
114.781 305.905 m 1xe8
 94.4688 342.909 59.417 415.443 44.7549 498.595 c 0
 40.5312 522.548 38 547.381 38 572.5 c 0
 38 682.08 115.72 758 198.5 758 c 0
 203.991 758 l 1
 261.812 755.934 312.335 723.429 319.997 679.979 c 0
 320.658 676.23 321 672.399 321 668.5 c 0
 321 625.459 285.059 598 249.501 598 c 0
 214.13 598 200.309 617 200.309 617 c 1
 191.155 616.766 179 589.668 179 570.5 c 0xd8
 179 566.045 179.702 550.215 183.866 526.602 c 0
 190.807 487.242 207.361 426.257 246.302 360.276 c 1
 273.016 319.384 325.115 260.296 338.043 186.976 c 0
 339.946 176.185 341 165.086 341 153.691 c 0
 341 65.0068 271.319 -4 182.5 -4 c 0
 95.9258 -4 30.5215 56.5439 18.125 126.844 c 0
 16.7236 134.794 16 142.868 16 150.993 c 0
 16 180.607 28.4062 251.638 114.781 305.905 c 1xe8
158 178.5 m 0xe8
 158 174.113 158.353 170.177 158.975 166.648 c 0
 163.025 143.677 178.5 138 182.499 138 c 0
 183.964 138 199.999 148.15 200 178.5 c 0
 200 185.232 199.373 191.673 198.281 197.863 c 0
 195.853 211.64 191.12 224.175 185.863 235.915 c 1
 169.302 219.373 158 198.752 158 178.5 c 0xe8
EndSplineSet
EndChar

StartChar: a
Encoding: 97 97 42
Width: 489
VWidth: -1282
Flags: W
HStem: -1.32422 21G<124.552 188.882 343.391 355.013> 309.444 20G<243.538 249.162>
VStem: 14.9043 144.802<89.0058 161.137>
LayerCount: 2
Fore
SplineSet
166.305 -1.32422 m 0
 82.7988 -1.32422 28.2422 49.7598 17.0439 113.272 c 0
 15.627 121.305 14.9043 129.538 14.9043 137.891 c 0
 14.9043 197.064 60.1582 329 231.263 329 c 0
 233.335 329 241.418 329.444 245.658 329.444 c 0
 247.415 329.444 l 1
 249.162 329.336 l 0
 255.424 328.95 290.997 325.525 321.178 316.885 c 1
 336.446 323.493 346.129 325 355.5 325 c 0
 393.262 325 421.351 301.831 426.241 274.094 c 0
 426.741 271.255 427 268.368 427 265.453 c 0
 427 235.418 404 215.115 404 158.185 c 0
 404.002 154.651 l 1
 435.297 148.552 454.237 128.039 458.214 105.489 c 0
 458.736 102.527 458.999 99.5303 459 96.5264 c 0
 459 82.6475 453.985 74.126 450.097 67.5576 c 0
 449.784 67.0293 l 1
 436.266 46.8271 l 1
 429.366 37.1162 421.837 30.5879 412.782 25.999 c 1
 386.992 10.1182 l 1
 371.617 0.599609 360.525 -1 349.5 -1 c 0
 337.281 -1 304.615 5.52441 281.475 25.6074 c 1
 249.929 9.88672 211.459 -1.32422 166.305 -1.32422 c 0
224.552 188 m 1
 195.915 185.295 159.706 142.425 159.706 106.994 c 0
 159.706 104.198 159.932 101.448 160.404 98.7686 c 0
 161.356 93.3701 163.77 89.7344 165.324 87.8066 c 1
 179.41 96.9482 204.471 129.667 233.078 188 c 1
 224.552 188 l 1
EndSplineSet
EndChar

StartChar: g
Encoding: 103 103 43
Width: 469
VWidth: -1282
Flags: W
HStem: -249.593 141.554<162.86 228.077> 310.444 20G<257.167 263.303 353.955 377.364>
VStem: 17.9043 149.606<89.5509 159.675>
LayerCount: 2
Fore
SplineSet
430.001 265.924 m 0
 430 257.336 426.578 248.386 425.43 244.373 c 0
 409.562 198.54 406.247 163.478 406.247 129.557 c 0
 406.247 91.8995 410.099 51.2187 410.099 9.01797 c 0
 410.099 -69.729 398.958 -141.931 342.945 -197.945 c 0
 317.227 -223.665 263.852 -249.593 180.446 -249.593 c 0
 91.2656 -249.593 29.0977 -193.881 17.0195 -125.384 c 0
 15.6016 -117.343 14.874 -109.126 14.874 -100.803 c 0
 14.874 -51.8447 41.7783 -3.14062 86.25 23.1963 c 1
 48.7393 45.0713 26.5342 80.1445 19.9688 117.381 c 0
 18.5938 125.179 17.9043 133.072 17.9043 140.959 c 0
 17.9043 199.493 63.1582 330 243.76 330 c 0
 246.023 330 254.851 330.444 259.482 330.444 c 0
 261.396 330.444 l 1
 263.303 330.336 l 0
 269.269 330 305.725 326.596 326.771 317.951 c 1
 339.739 324.478 349.41 326 358.5 326 c 0
 396.228 326 424.301 302.667 429.229 274.717 c 0
 429.738 271.828 430.001 268.89 430.001 265.924 c 0
252.395 9.43262 m 1
 244.688 7.33789 244.206 7.33496 241.791 6.77051 c 1
 248.077 -0.266602 250.521 -4.9834 252.06 -8.13672 c 1
 252.337 -3.83008 252.385 -2.48438 252.407 -2.0752 c 1
 252.406 4.4668 252.399 7.77148 252.395 9.43262 c 1
233.85 -77.7285 m 1
 237.144 -72.9092 238.889 -69.2734 240.357 -65.9668 c 1
 221.646 -84.6719 191.278 -95.6436 165.293 -98.5381 c 1
 163.698 -99.2637 161.947 -100.759 161.597 -101.11 c 1
 163.182 -104.544 168.188 -108.039 179.669 -108.039 c 0
 195.071 -108.039 221.4 -96.7344 233.85 -77.7285 c 1
236.418 189 m 1
 199.539 185.768 167.511 135.268 167.511 104.503 c 0
 167.511 102.252 167.691 100.299 167.992 98.5977 c 0
 168.858 93.6826 170.715 90.8604 172.045 88.9814 c 1
 187.695 98.4707 214.808 131.233 245.742 189 c 1
 236.418 189 l 1
EndSplineSet
EndChar

StartChar: l
Encoding: 108 108 44
Width: 247
VWidth: -1282
Flags: W
HStem: -6.49512 21G<95.4395 146.712>
VStem: 19.3066 141.385<320.307 677.233> 28.2441 180.756<23.3309 117.765> 47.791 142.473<108.381 428.793>
LayerCount: 2
Fore
SplineSet
28.2441 87.0244 m 0xa0
 28.2441 130.168 47.791 192.815 47.791 239.41 c 0x90
 47.791 314.723 19.3076 396.795 19.3066 505.438 c 0
 19.3076 565.327 26.208 623.84 38.6367 678.388 c 1
 46.0234 713.47 78.1299 734 107.499 734 c 0
 144.935 734 171.396 707.1 176.926 675.735 c 0
 177.635 671.714 178 667.62 178 663.5 c 0
 178 635.021 160.691 597.113 160.691 506.433 c 0xc0
 160.691 464.893 165.641 430.492 171.49 397.317 c 0
 174.055 382.777 176.791 368.473 179.359 353.907 c 0
 185.254 320.474 190.264 285.66 190.264 243.447 c 0x90
 190.264 194.563 181.982 157.958 176.049 126.21 c 1
 194.897 114.763 205.203 98.6445 208.125 82.0801 c 0
 208.711 78.751 209 75.4053 209 72.0752 c 0
 209 68.6357 l 1
 208.952 67.9072 l 0
 206.482 29.9824 171.63 -6.49512 121.795 -6.49512 c 0
 69.084 -6.49512 36.9014 29.2041 29.7588 69.7109 c 0
 28.7529 75.416 28.2441 81.2158 28.2441 87.0244 c 0xa0
EndSplineSet
EndChar

StartChar: t
Encoding: 116 116 45
Width: 381
VWidth: -1282
Flags: W
HStem: -4.06836 163.013<214.478 279.942> 250.768 130.232<19.4566 81.2831 242.09 325.71> 488 20G<126.941 162.991>
VStem: 1 344<271.161 362.328> 77 135.718<394.651 490.44>
LayerCount: 2
Fore
SplineSet
84.2793 379.582 m 0xf0
 89.4111 378.676 92.6016 378.196 94.4121 377.919 c 1
 88.2354 396.222 80.8828 408.941 78.1221 424.602 c 0
 77.4072 428.655 77.001 432.905 77 437.5 c 0
 77 478.24 108.98 506.438 144.902 508 c 1
 147.5 508 l 0
 178.482 508 203.126 487.852 212.718 465.467 c 1xe8
 225.499 436.5 234.369 407.478 240.006 380.623 c 1
 261.52 384.322 259.493 386 273.5 386 c 0
 310.557 386 338.298 359.584 343.943 327.565 c 0
 344.64 323.622 345 319.592 345 315.517 c 0
 345 284.599 317.299 262.041 289.667 256.802 c 0
 274.066 253.633 257.857 250.947 245.817 249.354 c 1
 238.099 197.406 221.618 167.45 213.796 145.789 c 1
 228.342 155.416 243.534 158.944 257.5 158.944 c 0
 295.635 158.944 322.384 135.126 327.215 107.727 c 0
 327.734 104.783 328 101.797 328 98.7959 c 0
 327.999 93.1279 l 1
 327.804 91.7354 l 0
 318.472 25.3916 251.126 -4.06836 202.938 -4.06836 c 0
 141.717 -4.06836 80.1426 35.2959 68.8262 99.4756 c 0
 67.6172 106.333 66.9814 113.473 66.9814 120.879 c 0
 66.9814 177.283 92.4424 205.307 102.06 245.564 c 1
 84.7559 247.167 72.6768 248.81 59.4463 250.768 c 1
 27.5605 256.193 5.92969 277.308 1.74219 301.059 c 0
 1.25098 303.844 1 306.664 1 309.5 c 0
 1 351.94 36.043 381 72.5 381 c 0
 84.6514 381 80.0186 380.305 81.3408 380.045 c 1
 86.4131 379.149 80.3408 380.276 84.2793 379.582 c 0xf0
EndSplineSet
EndChar

StartChar: u
Encoding: 117 117 46
Width: 375
VWidth: -1282
Flags: W
HStem: -2.75586 21G<133.84 201.261> 315 20G<92.395 124.727 221.229 251.363>
VStem: 15 140.384<127.026 252.127> 202.657 141.343<114.388 244.595>
LayerCount: 2
Fore
SplineSet
110.499 335 m 0
 138.954 335 160.814 318.976 172.168 300.199 c 1
 186.102 322.739 209.957 334 232.501 334 c 0
 270.226 334 324.659 300.613 339.899 214.183 c 0
 342.536 199.23 344 182.69 344 164.461 c 0
 344 38.5531 229.999 -2.75586 172.523 -2.75586 c 0
 95.1572 -2.75586 29.4189 46.7236 17.7822 112.72 c 0
 16.5791 119.541 15.9541 126.538 15.9541 133.676 c 2
 15.9795 136.197 l 2
 15.1084 147.504 15 153.981 15 161.08 c 0
 15 216.403 27.6211 260.011 45.0273 296.186 c 0
 52.5547 312.369 74.291 335 110.499 335 c 0
202.657 169.738 m 0
 202.657 190.15 201.786 203.589 200.146 212.894 c 0
 195.714 238.031 185.658 232.993 171.921 253.739 c 1
 164.176 231.318 155.384 199.627 155.384 156.678 c 0
 155.385 145.567 156 139.229 156 132 c 0
 156 130.175 156.147 128.496 156.419 126.954 c 0
 158.408 115.674 167.042 111.73 173.077 111.382 c 0
 176.657 111.862 202.657 112.998 202.657 169.738 c 0
EndSplineSet
EndChar

StartChar: y
Encoding: 121 121 47
Width: 511
VWidth: -1282
Flags: W
HStem: -251.962 141.552<215.615 274.885> 315 21G<94.8513 128.595 388.637 421.355>
VStem: 67.834 164.995<88.2062 94.2346 94.9204 252.519> 67.834 157.285<88.0666 176.624> 297.135 155.865<-79.8577 7.59863>
LayerCount: 2
Fore
SplineSet
225.565 87.8779 m 1xd8
 253.581 105.735 284.422 180.195 328.923 279.39 c 1
 346.614 312.762 374.774 335 402.5 335 c 0
 440.21 335 468.274 311.582 473.223 283.523 c 0
 473.736 280.608 474 277.644 474.001 274.65 c 0
 474.001 265.198 467.893 250.01 464.698 241.806 c 0
 456.017 217.877 450.152 173.35 450.151 123.551 c 0
 450.152 86.8789 453.113 47.6689 453.114 7.97949 c 0
 453.113 0.90918 453.051 -4.36523 453 -7.70703 c 1
 453 -193.935 343.998 -251.962 230.964 -251.962 c 0
 129.948 -251.962 73.1377 -188.553 62.1426 -126.196 c 0
 60.8262 -118.729 60.166 -111.277 60.166 -103.95 c 0
 60.166 -48.876 88.4297 2.3457 128.287 20.6514 c 1
 97.6973 38.7754 76.373 68.1426 69.8975 104.867 c 0
 68.5391 112.571 67.834 120.598 67.834 128.914 c 0
 67.834 156.824 73 180.494 73 190.82 c 0
 73 194.088 72.7061 197.204 72.1768 200.202 c 0
 68.0107 223.83 49.2588 240.062 44.9053 264.754 c 0
 44.3241 268.046 44 271.489 44 275.12 c 0
 44 310.012 76.8003 334.664 112.902 336 c 1
 114.5 336 l 0
 142.69 336 165.184 319.334 176.473 300.249 c 1
 204.614 267.318 223.867 228.365 230.387 191.392 c 0
 231.995 182.267 232.829 173.263 232.829 164.5 c 0xe8
 232.829 130.712 225.119 103.052 225.119 94.5059 c 0
 225.119 88.6221 225.433 88.9453 225.565 87.8779 c 1xd8
297.118 7.59863 m 1
 266.453 -1.14551 247.528 -2.24316 233.254 -2.87891 c 1
 244.24 -13.7559 249.75 -25.3389 251.569 -35.6553 c 0
 252.048 -38.3701 252.271 -40.9971 252.271 -43.5 c 0
 252.27 -97.832 213.958 -100.224 213.959 -101.429 c 0
 213.958 -102.366 214.083 -102.83 214.1 -102.949 c 1
 215.73 -105.699 223.969 -110.41 235.076 -110.41 c 0
 250.728 -110.41 271.1 -96.583 280.979 -80.7285 c 1
 292.98 -62.2705 297.135 -36.1436 297.135 -6.5 c 0
 297.135 -0.107422 297.127 5.41113 297.118 7.59863 c 1
EndSplineSet
EndChar

StartChar: q
Encoding: 113 113 48
Width: 491
VWidth: -1282
Flags: W
HStem: -2.32422 21G<123.517 173.729> 308.444 20G<234.182 239.261>
VStem: 14.9043 143.826<87.986 162.9> 202.105 314.974<-182.725 -69.0386>
LayerCount: 2
Fore
SplineSet
164.426 -2.32422 m 0
 82.6074 -2.32422 28.2441 48.7363 17.0488 112.228 c 0
 15.6299 120.275 14.9043 128.522 14.9043 136.891 c 0
 14.9043 196.064 60.1592 328 223.094 328 c 0
 224.966 328 232.267 328.444 236.097 328.444 c 0
 237.683 328.444 l 1
 239.261 328.336 l 0
 244.916 327.95 277.045 324.525 304.303 315.885 c 1
 321.844 322.493 334.433 324 346.618 324 c 0
 392.328 324 421.138 300.06 426.198 271.356 c 0
 426.73 268.342 427 265.276 427 262.18 c 0
 427 233.386 403.769 204.824 403.769 137.741 c 0
 403.769 109.646 407.14 78.458 407.141 46.0205 c 0
 407.14 -6.24805 396.181 -42.1855 389.451 -67.7305 c 1
 404.78 -48.9062 425.703 -41 445.499 -41 c 0
 467.641 -41 507.104 -57.3906 515.486 -104.935 c 0
 516.519 -110.787 517.079 -117.11 517.079 -123.933 c 0
 517.079 -192.36 462.649 -256.249 381.359 -256.249 c 0
 298.966 -256.249 216.686 -210.455 202.105 -127.764 c 0
 200.611 -119.293 199.827 -110.434 199.828 -101.197 c 0
 199.827 -51.3672 216.232 -25.5918 223.425 5.86621 c 1
 200.256 -0.582031 183.031 -2.32422 164.426 -2.32422 c 0
217.034 187 m 1
 187.549 183.917 158.73 136.322 158.73 102.5 c 0
 158.731 100.612 158.897 98.8818 159.175 97.3066 c 0
 160.082 92.1621 162.177 88.6787 163.541 86.8066 c 1
 176.263 95.9482 198.897 128.667 224.732 187 c 1
 217.034 187 l 1
EndSplineSet
EndChar

StartChar: x
Encoding: 120 120 49
Width: 514
VWidth: -1282
Flags: W
HStem: -2.15137 145.917<53.6362 139.167> -2.15137 137.325<375.451 461.091> 170.35 158.65<67.9982 138.897> 191.767 136.962<386.336 468.4>
VStem: 169.676 185.703<122.431 200.978>
LayerCount: 2
Fore
SplineSet
80.5 170.35 m 0xa8
 42.3848 170.35 15.6465 194.264 10.793 221.786 c 0
 10.2686 224.76 10 227.776 10 230.809 c 0
 10 272.43 71.7656 329 160.297 329 c 1xa8
 210.054 327.951 246.021 312.073 272.59 294.956 c 1
 327.405 328.124 371.774 328.729 385.82 328.729 c 0
 427.838 328.729 493.077 307.742 501.167 261.861 c 0
 501.714 258.759 501.999 255.546 501.999 252.216 c 0
 501.999 216.004 467.76 191.767 431.499 191.767 c 0
 404.756 191.767 390.524 202.882 386.122 205.613 c 1
 373.873 198.227 355.379 181.732 355.379 157.487 c 0
 355.379 153.699 355.695 150.246 356.249 147.106 c 0
 359.712 127.468 372.453 120.075 375.07 119.222 c 1
 383.042 123.607 401.205 135.174 423.5 135.174 c 0
 461.203 135.174 489.264 111.725 494.219 83.624 c 0
 494.734 80.7002 495 77.7256 495 74.7217 c 0
 495 23.7949 427.342 -2.15137 375.499 -2.15137 c 0
 325.008 -2.15137 285.988 13.4258 258.752 30.1006 c 1
 230.321 12.9131 190.05 -2.15137 139.499 -2.15137 c 0x58
 84.2891 -2.15137 19.8672 28.1865 11.8359 73.7383 c 0
 11.2852 76.8584 11 80.0488 11 83.3066 c 0
 11.001 119.524 45.2393 143.766 81.499 143.766 c 0
 127.117 143.766 139.402 119.157 139.402 119.157 c 1
 146.973 122.277 169.677 135.36 169.676 175.066 c 0
 169.677 178.527 169.405 181.583 168.929 184.286 c 0
 166.324 199.058 157.582 203.297 153.407 205.456 c 1
 139.746 196.602 117.974 170.35 80.5 170.35 c 0xa8
EndSplineSet
EndChar

StartChar: v
Encoding: 118 118 50
Width: 466
VWidth: -1282
Flags: W
HStem: -8 21G<231.583 268.816> 320 20G<58.2715 89.4712 360.271 397.525>
VStem: 303.617 145.127<176.882 318.443>
LayerCount: 2
Fore
SplineSet
304.766 252.515 m 0
 304.767 256.84 303.761 261.979 303.617 264.226 c 0
 303.617 307.771 342.043 340 378.5 340 c 0
 416.55 340 442.708 314.802 447.301 288.759 c 0
 447.636 286.857 447.855 284.952 447.958 283.051 c 1
 448.576 275.482 448.745 268.535 448.744 263.588 c 0
 448.745 177.796 412.581 135.564 332.793 25.8799 c 1
 318.595 3.57031 284.639 -8 252.993 -8 c 0
 210.172 -8 113.636 17.877 76.3193 118.048 c 0
 58.9238 164.744 61.4648 193.027 20.4238 238.854 c 1
 12.4404 248.497 7.47949 258.076 5.7207 268.051 c 0
 5.24121 270.77 5 273.519 5 276.307 c 0
 5 312.926 40.043 338 76.5 338 c 0
 102.442 338 121.378 323.936 133.141 308.164 c 1
 215.902 231.143 225.144 171.531 242.682 130.662 c 1
 278.245 168.88 304.767 204.239 304.766 252.515 c 0
EndSplineSet
EndChar

StartChar: w
Encoding: 119 119 51
Width: 640
VWidth: -1282
Flags: W
HStem: -8 21G<193.996 234.308 417.648 445.33> 320 20G<44.3726 74.2876 289.791 324.774 527.92 566.527>
VStem: 474.765 142.983<170.582 321.033>
LayerCount: 2
Fore
SplineSet
381.959 296.426 m 1
 418.002 226.567 427.333 185.778 439.611 151.178 c 1
 458.937 180.104 474.765 214.74 474.765 252.515 c 0
 474.765 257.964 474.521 261.22 474.327 263.669 c 0
 474.256 264.583 l 1
 474.256 268.5 l 0
 474.256 310.127 509.337 340 546.503 340 c 0
 547.503 340 l 0
 585.552 340 611.71 314.802 616.302 288.76 c 0
 616.638 286.858 616.857 284.952 616.96 283.051 c 1
 617.579 275.477 617.747 268.534 617.748 263.585 c 0
 617.748 182.923 581.575 135.917 539.823 78.6699 c 1
 500.742 25.7988 l 1
 486.646 3.64453 458.27 -8 432.391 -8 c 0
 402.905 -8 380.46 5.89355 368.012 19.4668 c 1
 344.416 44.4766 327.574 68.1621 315.1 88.9287 c 1
 309.314 72.7939 304.103 59.1865 296.686 40.3203 c 1
 283.452 10.3955 250.857 -8 217.758 -8 c 0
 170.233 -8 102.174 28.1025 65.457 116.774 c 1
 44.3877 173.309 42.6807 195.884 6.34082 238.554 c 1
 -2.73242 248.893 -6.07227 256.962 -7.29688 263.907 c 0
 -8.08301 268.365 -7.99707 272.359 -7.99707 276.193 c 0
 -7.99707 312.62 26.2422 337 62.5029 337 c 0
 86.0723 337 107.983 325.481 119.857 308.519 c 1
 159.771 261.507 179.229 218.652 191.814 186.021 c 1
 192.333 187.637 l 1
 203.421 223.151 214.3 256.747 225.599 288.367 c 1
 236.876 320.878 273.377 339 306.205 339 c 0
 343.343 339 371.053 318.005 381.959 296.426 c 1
EndSplineSet
EndChar

StartChar: z
Encoding: 122 122 52
Width: 515
VWidth: -1282
Flags: W
HStem: -252.461 142.104<179.663 288.985> 32 270.691<174.606 306.477> 188.43 146.57<97.7521 172.922>
VStem: 332.162 144.838<-70.1943 5.75671>
LayerCount: 2
Fore
SplineSet
227.851 32 m 0xd0
 188.304 32 181.438 26.3203 162.954 19.5947 c 1
 198.28 9.06738 220.741 -13.291 224.968 -37.2578 c 0
 225.449 -39.9893 225.694 -42.7422 225.694 -45.5 c 0
 225.694 -73.3662 200.915 -93.7422 179.534 -104.035 c 1
 182.016 -106.385 189.311 -110.356 205.849 -110.356 c 0
 252.623 -110.356 332.162 -75.9487 332.162 -32.7797 c 0
 332.162 -30.7451 331.985 -28.691 331.62 -26.6201 c 0
 327.282 -2.01855 291.233 32 227.851 32 c 0xd0
32.2617 -103.291 m 0
 32.2617 -46.0068 66.6309 -3.10449 99.918 15.1123 c 1
 75.1855 23.8115 60.2432 42.418 56.7783 62.0674 c 0
 56.2607 65 56 67.957 56 70.9072 c 0
 56 115.361 119.652 160.83 174.037 188.43 c 1
 113.727 194.305 59.8232 226.03 52.7783 265.983 c 0
 52.2646 268.895 52 271.85 52 274.843 c 0
 52 310.88 86.2393 335 122.5 335 c 0xb0
 189.763 335 190.919 302.691 201.751 302.691 c 0
 207.719 302.691 272.268 327.637 341.477 327.637 c 0
 414.628 327.637 456.464 286.789 464.551 240.926 c 0
 465.516 235.455 466 229.913 466 224.36 c 0
 466 165.318 416.424 132.199 382.928 115.052 c 1
 442.744 81.7559 467.742 34.2705 474.781 -5.65332 c 0
 476.319 -14.3721 477 -22.7295 477 -30.5 c 0
 477 -178.593 330.152 -252.461 206.151 -252.461 c 0
 108.674 -252.461 46.2461 -194.569 34.3408 -127.052 c 0
 32.9629 -119.236 32.2617 -111.29 32.2617 -103.291 c 0
EndSplineSet
EndChar

StartChar: bracketleft
Encoding: 91 91 53
Width: 443
VWidth: -1282
Flags: W
HStem: -193.609 147.1<328.051 423.219> 584.373 147.179<328.748 420.163>
VStem: 163.5 146.999<-39.3985 517.094>
LayerCount: 2
Fore
SplineSet
365.911 584.373 m 0
 358.879 584.373 359.854 584.722 355.789 584.722 c 0
 346.188 584.722 333.782 583.105 328.495 581.717 c 1
 313.543 530.116 310.5 355.996 310.499 189 c 0
 310.499 152.419 318.208 114.893 318.498 77.3633 c 1
 322.966 29.2197 321.793 -9.19922 325.923 -32.623 c 0
 326.356 -35.082 326.85 -37.376 327.412 -39.498 c 1
 340.874 -43.8467 365.774 -45.9678 373.131 -46.5098 c 1
 406.242 -47.2754 435.932 -72.166 441.975 -106.439 c 0
 442.709 -110.602 443.095 -114.903 443.095 -119.316 c 0
 443.094 -167.859 401.211 -193.609 368.495 -193.609 c 0
 366.354 -193.609 364.742 -193.499 363.144 -193.354 c 1
 294.092 -185.23 222.467 -172.367 197.938 -98.7744 c 1
 189.475 -73.8828 183.228 -49.3184 178.938 -24.9893 c 0
 173.833 3.95605 171.5 32.5684 171.5 61 c 0
 171.5 75 l 0
 171.5 108.529 163.5 145.824 163.5 186 c 0
 163.501 324.275 l 1
 168.047 551.518 172.352 535.316 194.121 639.812 c 1
 213.403 725.84 340.55 731.552 365.129 731.552 c 0
 366.246 731.552 366.472 731.547 367.366 731.53 c 1
 397.6 730.807 432.113 710.139 438.901 671.643 c 0
 439.681 667.224 440.094 662.57 440.095 657.684 c 0
 440.095 612.612 402.842 584.373 365.911 584.373 c 0
EndSplineSet
EndChar

StartChar: backslash
Encoding: 92 92 54
Width: 492
VWidth: 0
Flags: W
HStem: 700.349 20G<53.542 89.7065>
LayerCount: 2
Fore
SplineSet
492.349 -146.156 m 0
 492.349 -187.261 459.071 -220.349 417.844 -220.349 c 0
 386.743 -220.349 360.514 -201.733 349.694 -175.768 c 1
 5.69434 616.233 l 1
 3.09961 622.461 1.59668 627.944 0.738281 632.812 c 0
 -0.155273 637.88 -0.349609 642.28 -0.348633 646.156 c 0
 -0.349609 687.261 32.9277 720.349 74.1562 720.349 c 0
 105.257 720.349 131.487 701.734 142.306 675.766 c 1
 486.306 -116.232 l 1
 488.899 -122.459 490.402 -127.942 491.261 -132.808 c 0
 492.154 -137.879 492.349 -142.28 492.349 -146.156 c 0
EndSplineSet
EndChar

StartChar: bracketright
Encoding: 93 93 55
Width: 443
VWidth: -1282
Flags: W
HStem: -193.5 146.997<19.3966 114.181> 584.5 147<21.9245 113.213>
VStem: 123.503 146.997<-38.3277 187.408 243.602 581.216> 131.5 147<-38.3277 516.791>
LayerCount: 2
Fore
SplineSet
-0.5 -120 m 0xe0
 -0.5 -59.4473 53.4053 -47.1182 68.9648 -46.5029 c 1
 80.7627 -45.6338 106.151 -42.2236 114.589 -39.498 c 1
 121.123 -14.8682 119.239 31.416 123.503 77.3633 c 1xe0
 123.835 120.407 131.5 155.042 131.5 189 c 0
 131.499 433.699 124.366 525.672 117.577 564.174 c 0
 116.245 571.729 114.927 577.226 113.677 581.413 c 1
 103.825 583.936 91.6562 584.5 85 584.5 c 0
 76 584.5 l 0
 38.3975 584.5 9.625 610.93 3.64648 644.838 c 0
 2.8916 649.119 2.5 653.519 2.5 658 c 0
 2.5 720.54 61.8691 731.5 74 731.5 c 0
 78 731.5 l 0
 109.689 731.5 230.17 720.975 247.896 639.736 c 1
 255.574 602.88 261.088 580.361 265.202 557.025 c 0
 272.795 513.963 275.624 468.122 278.5 324.275 c 1
 278.5 186 l 0xd0
 278.499 141.997 270.5 105.854 270.5 75 c 0
 270.5 61 l 0
 270.499 5.24316 261.459 -47.6094 244.062 -98.7744 c 1
 218.533 -175.364 142.8 -185.831 79.2139 -193.312 c 0
 77.6113 -193.5 l 1
 73 -193.5 l 0
 35.6992 -193.5 6.56445 -166.498 0.615234 -132.758 c 0
 -0.119141 -128.595 -0.5 -124.33 -0.5 -120 c 0xe0
EndSplineSet
EndChar

StartChar: asciicircum
Encoding: 94 94 56
Width: 498
VWidth: 0
Flags: W
HStem: 386.122 250.433
VStem: 91.1221 313.757<438.015 516.329>
LayerCount: 2
Fore
SplineSet
165.106 386.122 m 0
 127.403 386.122 98.1602 414.688 92.2256 448.339 c 0
 91.499 452.462 91.1221 456.66 91.1221 460.893 c 0
 91.1221 482.227 101.757 501.333 111.788 511.69 c 1
 121.401 525.833 187.449 636.555 251.532 636.555 c 0
 318.959 636.555 381.226 516.361 386.067 508.604 c 1
 396.388 496.779 401.644 483.989 403.744 472.073 c 0
 404.534 467.595 404.879 463.241 404.879 459.107 c 0
 404.878 415.987 367.846 384.622 329.145 384.622 c 0
 307.599 384.622 289.17 394.278 277.098 407.022 c 1
 248.215 437.109 l 1
 216.984 407.104 l 1
 200.396 391.391 181.235 386.122 165.106 386.122 c 0
EndSplineSet
EndChar

StartChar: underscore
Encoding: 95 95 57
Width: 625
VWidth: 0
Flags: W
HStem: -192.5 149<-54.0616 679.061>
LayerCount: 2
Fore
SplineSet
625.001 -43.5 m 2
 664.302 -43.5 692.553 -72.2461 698.386 -105.329 c 0
 699.121 -109.5 699.5 -113.74 699.5 -118 c 0
 699.5 -162.257 663.047 -192.5 624.999 -192.5 c 0
 -0 -192.5 l 0
 -39.3008 -192.5 -67.5518 -163.753 -73.3857 -130.671 c 0
 -74.1211 -126.5 -74.5 -122.26 -74.5 -118 c 0
 -74.5 -73.7432 -38.0479 -43.5 0 -43.5 c 0
 625.001 -43.5 l 2
EndSplineSet
EndChar

StartChar: grave
Encoding: 96 96 58
Width: 379
VWidth: -1282
Flags: W
HStem: 399.778 215.178<144.046 260.492>
VStem: 69.0439 266.178<472.362 529.038>
LayerCount: 2
Fore
SplineSet
69.0439 541.046 m 0
 69.0439 582.395 103.707 614.956 144.046 614.956 c 0
 175.095 614.956 199.835 595.816 210.928 571.615 c 1
 214.415 564.252 l 1
 280.28 546.52 l 1
 311.171 537.871 329.525 513.2 334.093 487.3 c 0
 334.843 483.042 335.222 478.75 335.222 474.491 c 0
 335.222 428.802 296.396 399.778 260.492 399.778 c 0
 250.905 399.778 244.751 401.352 240.673 402.494 c 1
 141.605 429.512 l 1
 117.025 436.535 101.886 453.457 94.0312 470.476 c 0
 76.0156 509.509 l 1
 72.8857 516.339 71.1133 522.534 70.1387 528.057 c 0
 69.2822 532.917 69.0439 537.255 69.0439 541.046 c 0
EndSplineSet
EndChar

StartChar: dollar
Encoding: 36 36 60
Width: 735
VWidth: -1282
Flags: W
HStem: 468.5 21G<549.32 593.105>
VStem: 278.249 178.908<-70.4651 7.71195 150.03 231.262> 292.135 178.741<455.763 525.532 671.211 737.888> 510.002 149.998<144.124 215.237>
LayerCount: 2
Fore
SplineSet
468.38 525.532 m 1xb0
 465.925 397.282 l 1
 582.432 358.588 644.916 294.022 657.578 222.213 c 0
 659.195 213.039 660 203.747 660 194.376 c 0
 660 95.3545 574.118 21.085 457.792 3.81348 c 1
 457.157 -21.7695 l 1
 457.156 -66.8271 410.521 -95 366.502 -95 c 0
 317.226 -95 285.108 -63.6533 279.226 -30.2891 c 0
 278.578 -26.6172 278.249 -22.9219 278.249 -19.2412 c 1xd0
 278.924 8.6709 l 1
 202.089 21.3877 144.692 47.1484 95.4961 82.7002 c 1
 79.1494 94.917 70.6689 111.213 67.9717 126.511 c 0
 67.3135 130.243 67 133.915 67 137.454 c 0
 67 147.511 69.127 152.747 70.1025 155.921 c 1
 79.8828 191.555 l 1
 88.9541 223.755 120.758 243.48 151.5 243.48 c 0
 191.107 243.48 223.885 215.34 229.402 184.05 c 0
 229.94 180.996 230.22 177.911 230.22 174.82 c 0
 230.219 167.691 229.783 168.462 229.697 167.767 c 1
 248.526 159.704 266.869 153.84 281.454 150.03 c 1
 285.02 295.574 l 1
 168.171 335.284 111.53 396.274 99.4824 464.602 c 0
 97.8145 474.062 97 483.662 97 493.366 c 0
 96.999 504.497 l 1
 97.0596 505.351 l 0
 102.267 578.296 163.448 657.975 292.135 675.146 c 1
 292.657 692.639 l 1
 292.657 734.644 339.292 761 383.312 761 c 0
 433.053 761 465.31 731.816 470.748 700.974 c 0
 471.29 697.901 471.566 694.811 471.565 691.732 c 1
 470.876 666.011 l 1
 538.318 648.981 588.271 619.75 627.172 582.501 c 1
 638.905 571.776 644.9 558.569 647.051 546.372 c 0
 647.701 542.685 648 539.09 647.999 535.684 c 0
 647.999 495.945 611.709 468.5 574.501 468.5 c 0
 524.14 468.5 502.606 508.623 468.38 525.532 c 1xb0
462.275 231.262 m 1
 460.273 130.684 l 1
 497.213 143.424 510.002 161.837 510.002 176.648 c 0
 510.002 195.602 491.101 214.901 462.275 231.262 c 1
287.648 455.763 m 1
 289.503 544.283 l 1
 257.416 531.666 251.75 514.155 251.75 502.993 c 0
 251.75 500.752 251.978 498.768 252.267 497.13 c 0
 254.568 484.075 266.067 469.785 287.648 455.763 c 1
EndSplineSet
EndChar

StartChar: zero
Encoding: 48 48 61
Width: 370
VWidth: -1282
Flags: W
HStem: -30.5 21G<133.074 234.162> 308 20G<135.898 190.839>
VStem: 16 141<110.974 208.226> 197 141<114.592 210.882>
LayerCount: 2
Fore
SplineSet
180.009 -30.5 m 1
 173.501 -30.5 l 2
 92.6465 -30.5 32.7432 28.6426 18.9355 106.95 c 0
 17.2803 116.336 16.2871 125.999 16 135.867 c 1
 16.001 140.855 l 0
 16 231.236 82.2979 328 189.499 328 c 0
 190.17 328 l 1
 190.839 327.968 l 0
 262.208 324.733 322.03 268.738 335.271 193.648 c 0
 337.062 183.492 337.999 172.987 338 162.216 c 0
 338 156.644 l 0
 338 78.4785 288.314 -26.7744 180.009 -30.5 c 1
157 156 m 0
 157 148.389 157.571 142.054 158.502 136.78 c 0
 162.147 116.102 171.308 111.757 173.172 110.933 c 1
 179.319 114.209 197 128.524 197 176 c 0
 197 182.031 196.558 187.022 195.827 191.165 c 0
 193.117 206.531 186.443 210.225 183.669 212.042 c 1
 172.171 203.598 157 183.359 157 156 c 0
EndSplineSet
EndChar

StartChar: four
Encoding: 52 52 62
Width: 515
VWidth: -1282
Flags: W
HStem: 314.352 20G<313.107 339.877>
LayerCount: 2
Fore
SplineSet
291.556 -10.3604 m 1
 301.118 6.90234 307.222 19.1191 312.477 29.4326 c 1
 293.952 15.335 275.242 3.72266 257.019 -6.91504 c 0
 254.751 -8.23926 l 1
 252.223 -9.32031 l 0
 239.51 -14.8008 l 1
 259.012 -13.0361 277.164 -11.4727 291.556 -10.3604 c 1
386.906 129.796 m 0
 382.556 120.221 379.203 113.397 376.577 108.185 c 1
 388.39 113.111 399.691 114.196 408.723 114.196 c 0
 443.105 114.196 468.735 92.8047 473.766 64.2773 c 0
 474.359 60.9092 474.667 57.4414 474.667 53.8975 c 0
 474.667 31.291 465.338 15.4932 450.249 -19.582 c 1
 468.605 -31.7236 475.485 -47.0615 477.709 -59.6729 c 0
 478.396 -63.5644 478.638 -67.1951 478.638 -70.3935 c 0
 478.638 -92.1772 462.087 -132.784 410.276 -134.89 c 1
 406.194 -148.553 402.073 -163.361 397.21 -181.1 c 1
 388.336 -214.81 355.208 -233.262 313.792 -233.262 c 0
 245.255 -233.262 209.246 -205.543 205.299 -183.158 c 0
 203.479 -172.837 208.092 -166.989 211.139 -160.178 c 1
 194.817 -161.953 187.949 -162.032 179.835 -162.032 c 0
 113.397 -162.032 97.1719 -150.573 86.7842 -141.317 c 1
 61.751 -119.595 46.6426 -97.877 42.126 -72.2568 c 0
 41.168 -66.8291 40.6865 -61.2256 40.6865 -55.4102 c 0
 40.6865 33.1338 129.627 77.2627 146.498 98.7871 c 1
 246.446 194.537 208.633 207.153 234.496 270.771 c 1
 235.821 273.86 234.156 308.239 273.872 325.58 c 0
 291.106 333.529 307.686 334.352 318.528 334.352 c 0
 361.226 334.352 393.4 311.774 401.224 282.058 c 1
 402.879 275.917 404.175 270.006 405.179 264.316 c 0
 407.441 251.48 408.21 239.774 408.21 229.124 c 0
 408.21 189.955 397.707 157.274 387.396 130.959 c 0
 387.167 130.372 l 1
 386.906 129.796 l 0
EndSplineSet
EndChar

StartChar: one
Encoding: 49 49 63
Width: 415
VWidth: 0
Flags: W
HStem: -17 21G<239.147 265.609> 315 20G<224.514 258.537>
VStem: 93.082 240.819
LayerCount: 2
Fore
SplineSet
175.431 105.491 m 1
 165.537 104.544 169.489 105 166.501 105 c 0
 127.508 105 98.8867 134.315 93.082 167.233 c 0
 92.3682 171.283 92 175.388 92 179.5 c 0
 92 203.769 104.04 223.155 118.003 235.849 c 0
 118.475 236.278 l 1
 144.801 258.065 l 1
 170.648 297.282 l 1
 187.236 327.061 213.529 335 235.499 335 c 0
 281.575 335 306.957 304.054 309.885 276.208 c 1
 333.901 52.915 l 1
 334.346 47.9365 334.144 47.6562 334.144 47.6562 c 0
 334.144 11.9668 302.619 -14.457 265.609 -16.9189 c 0
 264.557 -17 l 1
 259.501 -17 l 0
 218.793 -17 188.068 4.40723 185.097 30.002 c 1
 175.431 105.491 l 1
EndSplineSet
EndChar

StartChar: two
Encoding: 50 50 64
Width: 362
VWidth: 0
Flags: W
HStem: -31.5 21G<100.186 116.18 188.128 242.329> 37.3838 51.0918<18 47.8818> 310 20G<162.069 250.427>
VStem: 18 346<37.928 88.422>
LayerCount: 2
Fore
SplineSet
290.9 121.77 m 1
 330.073 119.716 357.614 93.4717 363.026 62.7793 c 0
 363.669 59.1343 364 55.4269 364 51.6894 c 0
 364 -26.1893 251.573 -30.8702 242.329 -31.4434 c 2
 241.416 -31.5 l 1
 199.5 -31.5 l 2
 176.756 -31.5 150.656 -27.5 141.5 -27.5 c 0
 130.146 -27.5 121.859 -29.5 110.5 -29.5 c 0
 89.8721 -29.5 71.9053 -18.04 59.9512 -4.0332 c 0
 53.1777 3.90332 50.1094 11.9502 48.7705 19.5459 c 0
 47.6465 25.9209 47.7393 31.9775 47.8818 37.3838 c 1
 18 37.3838 l 1
 18 88.4756 l 1
 50.9678 88.4756 l 1
 56.0742 122.921 67.7197 146.532 85.5342 164.658 c 1
 64.8643 175.568 53.1729 192.693 49.9346 211.058 c 0
 49.3105 214.597 49 218.183 49 221.778 c 0
 49 272.968 122.638 330 201.5 330 c 2
 208.073 330 l 1
 292.781 326.721 332.98 271.711 339.985 231.989 c 0
 340.445 229.375 340.763 226.827 340.94 224.364 c 2
 341 223.516 l 1
 341 216.16 l 2
 341 170.551 314.673 139.831 290.9 121.77 c 1
EndSplineSet
EndChar

StartChar: three
Encoding: 51 51 65
Width: 460
VWidth: -1282
Flags: W
HStem: -183.316 126.842<167.865 228.925> 52.5 252.5<161.468 239.7> 188.785 142.215<86.9236 144.489>
VStem: 33.4443 158.556<-54.7786 6.39287> 250.075 129.925<-35.0184 41.1573>
LayerCount: 2
Fore
SplineSet
33.4443 -59.6494 m 0xd8
 33.4443 -14.9482 61.1455 16.2539 86.041 31.584 c 1
 68.4102 41.3838 57.6689 57.5566 54.7871 73.9014 c 0
 54.2646 76.8657 54.001 79.8346 54.001 82.7737 c 0
 54.001 128.558 107.973 166.127 144.771 188.785 c 1
 96.7578 198.074 56.9404 226.699 50.8174 261.427 c 0
 50.2783 264.481 50 267.583 50 270.723 c 0
 50 308.5 84.002 331 115.5 331 c 0xb8
 172.619 331 164.383 305 175.501 305 c 0
 176.61 305 l 1
 186.724 307.045 223.448 325 263.5 325 c 0
 270.309 325 l 1
 271.115 324.952 l 0
 317.149 322.384 360.373 291.571 368.599 244.924 c 0
 369.518 239.709 370 234.298 370 228.705 c 0
 370 174.282 331.08 143.614 302.79 127.425 c 1
 347.428 98.6113 370.898 59.6055 377.801 20.4619 c 0
 379.281 12.0653 380 3.6618 380 -4.64909 c 0
 380 -116.01 263.319 -183.316 177.935 -183.316 c 0
 109.125 -183.316 46.2988 -142.824 35.1836 -79.7852 c 0
 34.041 -73.3057 33.4443 -66.5869 33.4443 -59.6494 c 0xd8
190.5 52.5 m 0xd8
 173.006 52.5 166.919 49.6318 160.898 47.0869 c 1
 177.938 36.6279 188.131 20.0459 191.093 3.24707 c 0
 191.696 -0.177579 192 -3.60947 192 -7.00219 c 0
 192 -36.9333 171.94 -51.295 167.252 -55.4277 c 1
 171.04 -56.4287 173.383 -56.4746 175.597 -56.4746 c 0
 205.874 -56.4746 250.075 -25.7655 250.075 3.8104 c 0
 250.075 24.3038 227.394 52.5 190.5 52.5 c 0xd8
EndSplineSet
EndChar

StartChar: five
Encoding: 53 53 66
Width: 515
VWidth: -1282
Flags: W
HStem: -239.719 132.255<170.939 272.659> 13.5 129.85<212.95 291.946> 183.305 143.695<273.875 388.521> 207.775 119.225<218.08 270.604>
VStem: 32.6758 180.196<-92.9616 -30.3618> 58.0586 160.188<141.995 207.775> 311.409 133.591<-73.1525 -7.85419>
LayerCount: 2
Fore
SplineSet
212.076 13.5 m 0xca
 175.216 13.5 167.003 9.5918 159.265 5.96973 c 1
 189.085 -5.18066 208.71 -25.0986 212.283 -45.3643 c 0
 212.673 -47.5762 212.871 -49.791 212.872 -52 c 0
 212.871 -76.5938 189.596 -95.7012 169.756 -105.431 c 1
 174.144 -106.736 180.294 -107.464 187.518 -107.464 c 0
 239.628 -107.464 311.409 -73.1569 311.409 -40.0461 c 0
 311.409 -9.05223 252.221 13.5 212.076 13.5 c 0xca
32.6758 -104.204 m 0
 32.6758 -51.0029 63.333 -15.4746 89.9746 1.13477 c 1
 70.4268 11.6504 58.3379 29.9102 54.9678 49.0225 c 0
 54.3262 52.667 54 56.3418 54 60 c 0
 54 77.6445 58.0596 179.732 58.0586 206.183 c 0
 58.0596 226.532 53.3262 248.663 53.3262 267.63 c 0
 53.3271 315.018 98.3066 325.311 114.771 325.311 c 0
 130.411 325.311 137.112 323 145.5 323 c 0
 156.956 323 197.458 327 226.381 327 c 0xd6
 293 327 l 1
 294.451 326.939 l 0
 316.057 326.062 411.238 319.167 421.673 259.989 c 0
 422.282 256.534 422.603 252.901 422.603 249.079 c 0
 422.603 209.29 384.061 183.305 346.105 183.305 c 0xe6
 328.378 183.305 313.101 189.313 296.777 196.933 c 1
 270.604 208.868 l 1
 252.289 208.698 230.048 207.978 218.08 207.775 c 1
 218.312 201.492 218.246 201.313 218.247 199.255 c 0xd6
 218.246 177.652 215.382 156.586 212.95 141.995 c 1
 231.634 143.251 243.119 143.35 253.951 143.35 c 0
 292.695 143.35 326.053 138.968 348.798 127.597 c 0
 350.61 126.69 l 1
 352.271 125.528 l 0
 366.966 115.241 429.513 62.4209 442.595 -11.7725 c 0
 444.145 -20.5596 445 -29.6475 445 -39 c 0
 445 -159.284 329.355 -239.719 191.17 -239.719 c 0
 107.174 -239.719 46.0088 -191.071 34.5986 -126.363 c 0
 33.3291 -119.16 32.6758 -111.759 32.6758 -104.204 c 0
EndSplineSet
EndChar

StartChar: six
Encoding: 54 54 67
Width: 381
VWidth: -1282
Flags: W
HStem: -31.7617 21G<139.012 227.024>
VStem: 24.7422 141.492<111.725 206.387> 207.936 141.672<114.257 203.266>
LayerCount: 2
Fore
SplineSet
349.607 151.294 m 0
 349.607 49.6904 273.31 -31.7617 180.739 -31.7617 c 0
 97.2842 -31.7617 41.6006 35.7041 27.9873 112.908 c 0
 25.8428 125.073 24.7422 137.48 24.7422 149.902 c 0
 24.7422 255.471 86.3408 329.004 119.698 387.776 c 1
 155.314 448.125 177.758 509.772 184.168 572.047 c 1
 188.554 608.592 215.601 639.786 253.76 639.786 c 0
 296.967 639.786 318.988 604.436 324.031 575.836 c 0
 324.795 571.507 325.168 567.333 325.168 563.46 c 0
 325.167 539.494 311.947 444.864 251.349 333.306 c 1
 302.175 295.762 336.337 244.741 346.469 187.28 c 0
 348.54 175.534 349.607 163.518 349.607 151.294 c 0
166.234 151.042 m 0
 166.234 145.62 166.666 140.896 167.391 136.787 c 0
 171.206 115.145 183.162 110.534 183.162 110.534 c 1
 191.195 110.534 207.935 121.841 207.936 150.98 c 0
 207.936 154.377 207.62 157.745 207.035 161.063 c 0
 203.796 179.434 192.31 196.291 180.552 208.242 c 1
 166.799 176.226 166.234 162.496 166.234 151.042 c 0
EndSplineSet
EndChar

StartChar: seven
Encoding: 55 55 68
Width: 515
VWidth: -1282
Flags: W
HStem: 188.383 138.405<85.408 177.524> 315.637 20G<315.987 386.605>
VStem: 64.0732 159.266<-94.8459 48.618>
LayerCount: 2
Fore
SplineSet
206.426 310.739 m 0xa0
 212.835 310.739 281.426 335.637 350.549 335.637 c 0x60
 422.661 335.637 464.382 294.542 472.525 248.36 c 0
 473.506 242.797 474 237.162 474 231.515 c 0
 474 181.098 430.781 165.937 412.32 152 c 0
 357.957 112.186 265.988 99.332 227.246 18.8838 c 1
 223.778 11.5566 223.339 6.42676 223.339 1.88477 c 0
 223.339 -1.1875 223.73 -4.41309 224.329 -7.80371 c 0
 225.458 -14.209 227.324 -21.2061 228.678 -28.8828 c 0
 229.638 -34.3302 230.339 -40.1179 230.339 -46.282 c 0
 230.339 -76.1932 227.491 -112.756 180.984 -129.892 c 0
 170.598 -135.595 161.317 -136.352 154.82 -136.352 c 0
 120.247 -136.352 91.9316 -110.442 81.5645 -81.6475 c 1
 74.7637 -64.2959 70.1309 -47.7568 67.3516 -31.9912 c 0
 65.1104 -19.2852 64.0732 -7.08105 64.0732 4.6416 c 0
 64.0732 77.7803 112.1 147.943 178.059 188.383 c 1
 140.511 190.775 81.459 200.355 59.1807 236.625 c 1
 53.3721 246.104 51.3613 257.875 51.3613 264.938 c 0
 51.3613 297.712 79.832 326.788 120.635 326.788 c 0
 152.82 326.788 177.274 310.739 206.426 310.739 c 0xa0
EndSplineSet
EndChar

StartChar: eight
Encoding: 56 56 69
Width: 405
VWidth: -1282
Flags: W
HStem: 314.026 20G<152.95 236.124>
VStem: 36.4277 141.817<-107.325 -22.6255 115.726 194.524> 220.966 141.479<-105.112 -24.3818 111.415 197.168>
LayerCount: 2
Fore
SplineSet
220.966 -83.6953 m 0
 220.966 -79.6201 220.818 -75.2637 219.937 -70.2617 c 0
 217.917 -58.8076 212.047 -43.9688 195.292 -21.3721 c 1
 183.808 -36.9229 178.245 -51.4248 178.245 -65.6504 c 0
 178.245 -69.0166 178.531 -72.1738 179.052 -75.125 c 0
 183.188 -98.583 202.065 -109.088 208.7 -109.088 c 0
 211.229 -109.088 216.166 -109.492 220.415 -92.583 c 1
 221.025 -87.5186 220.966 -85.8164 220.966 -83.6953 c 0
180.034 172.933 m 0
 180.034 169.185 180.393 165.433 181.051 161.703 c 0
 184.318 143.173 194.978 125.17 205.813 110.767 c 1
 216.422 124.582 222.755 139.282 222.755 154.726 c 0
 222.755 158.174 222.463 161.398 221.933 164.404 c 0
 217.787 187.915 199.126 198.086 192.494 198.086 c 0
 189.78 198.086 184.8 198.339 180.583 181.578 c 1
 179.968 176.492 180.033 174.986 180.034 172.933 c 0
364.572 170.653 m 0
 364.572 106.558 326.221 60.5996 304.629 38.5254 c 1
 328.224 12.8965 352.321 -25.4844 359.963 -68.8252 c 0
 361.564 -77.9092 362.444 -87.2109 362.444 -96.6592 c 0
 362.444 -187.916 288.841 -244.405 210.539 -244.405 c 0
 121.256 -244.405 51.9805 -182.911 38.7246 -107.732 c 0
 37.2109 -99.1514 36.4277 -90.3926 36.4277 -81.5264 c 0
 36.4277 -28.0068 63.4951 17.8779 97.2314 50.7188 c 1
 69.9043 78.084 48.1484 118.207 41.0332 158.565 c 0
 39.417 167.73 38.5557 176.907 38.5557 185.95 c 0
 38.5557 278.575 113.308 334.026 192.593 334.026 c 0
 279.655 334.026 348.867 273.176 362.233 197.369 c 0
 363.773 188.639 364.572 179.71 364.572 170.653 c 0
EndSplineSet
EndChar

StartChar: nine
Encoding: 57 57 70
Width: 381
VWidth: -1282
Flags: W
HStem: 312.262 20G<141.634 224.84>
VStem: 16.3926 141.672<126.227 214.732> 199.767 141.491<120.279 218.12>
LayerCount: 2
Fore
SplineSet
16.3926 166.162 m 0
 16.3926 266.658 100.064 332.262 183.203 332.262 c 0
 266.478 332.262 325.574 271.141 338.569 197.443 c 0
 340.342 187.388 341.258 177.1 341.258 166.7 c 0
 341.258 72.7745 278.534 1.30795 246.302 -50.5068 c 1
 209.39 -107.567 199.053 -127.816 180.866 -182.838 c 1
 172.76 -208.188 152.504 -240.275 112.018 -240.275 c 0
 66.8242 -240.275 45.7422 -204.747 41.4814 -180.587 c 0
 40.9268 -177.438 40.6572 -174.483 40.6572 -171.824 c 0
 40.6572 -112.021 91.9541 -34.3848 114.224 -0.0195312 c 1
 82.7266 21.2451 31.207 66.7266 19.0312 135.782 c 0
 17.3262 145.447 16.3926 155.575 16.3926 166.162 c 0
199.767 177.124 m 0
 199.766 182.837 199.316 187.786 198.562 192.067 c 0
 194.831 213.222 183.648 218.09 182.451 218.461 c 0
 174.021 218.13 158.064 204.307 158.064 177.02 c 0
 158.064 173.655 158.379 170.314 158.96 167.019 c 0
 162.249 148.364 174.088 131.16 185.856 119.35 c 1
 195.238 139.962 199.766 156.561 199.767 177.124 c 0
EndSplineSet
EndChar

StartChar: bar
Encoding: 124 124 71
Width: 285
VWidth: 0
Flags: W
HStem: 736.5 20G<122.976 161.651>
VStem: 67.5 149<-235.846 735.846>
LayerCount: 2
Fore
SplineSet
216.5 -182 m 2
 216.5 -226.257 180.048 -256.5 142 -256.5 c 0
 102.698 -256.5 74.4482 -227.754 68.6152 -194.671 c 0
 67.8799 -190.5 67.5 -186.26 67.5 -182 c 0
 67.5 682 l 0
 67.5 726.257 103.952 756.5 142 756.5 c 0
 181.302 756.5 209.552 727.754 215.386 694.671 c 0
 216.121 690.5 216.5 686.26 216.5 682 c 0
 216.5 -182 l 2
EndSplineSet
EndChar

StartChar: numbersign
Encoding: 35 35 72
Width: 657
VWidth: 0
Flags: W
HStem: 167.5 149<35.9383 137.499 286.5 357.499 506.5 607.061> 417.5 149<35.9386 137.5 286.501 357.5 506.501 607.062> 736.5 20G<192.976 231.651 412.976 451.651>
VStem: 137.5 149<-25.8463 167.5 316.5 417.5 566.5 735.846> 357.5 149<-25.8463 167.5 316.5 417.5 566.5 735.846>
LayerCount: 2
Fore
SplineSet
286.5 28 m 2
 286.5 -16.2568 250.048 -46.5 212 -46.5 c 0
 172.698 -46.5 144.447 -17.7539 138.614 15.3291 c 0
 137.879 19.5 137.5 23.7402 137.5 28 c 0
 137.499 167.5 l 1
 90 167.5 l 0
 50.6982 167.5 22.4482 196.246 16.6143 229.329 c 0
 15.8789 233.5 15.5 237.74 15.5 242 c 0
 15.5 286.257 51.9521 316.5 89.999 316.5 c 0
 137.5 316.5 l 1
 137.501 417.5 l 1
 90.001 417.5 l 0
 50.6982 417.5 22.4482 446.246 16.6152 479.329 c 0
 15.8798 483.501 15.5 487.741 15.5 492.002 c 0
 15.5 536.258 51.9527 566.5 90 566.5 c 0
 137.5 566.5 l 1
 137.5 682 l 0
 137.5 726.257 173.952 756.5 212 756.5 c 0
 251.302 756.5 279.553 727.753 285.386 694.671 c 0
 286.121 690.5 286.5 686.26 286.5 682 c 0
 286.5 566.5 l 1
 357.5 566.5 l 1
 357.5 682 l 0
 357.5 726.257 393.952 756.5 432 756.5 c 0
 471.302 756.5 499.553 727.753 505.386 694.671 c 0
 506.121 690.5 506.5 686.26 506.5 682 c 0
 506.5 566.5 l 1
 553 566.5 l 0
 592.302 566.5 620.553 537.753 626.386 504.67 c 0
 627.121 500.498 627.5 496.259 627.5 491.998 c 0
 627.5 447.742 591.047 417.5 553.001 417.5 c 0
 506.501 417.5 l 1
 506.5 316.5 l 1
 553 316.5 l 0
 592.302 316.5 620.553 287.753 626.386 254.671 c 0
 627.121 250.5 627.5 246.26 627.5 242 c 0
 627.5 197.743 591.047 167.5 552.999 167.5 c 0
 506.499 167.5 l 1
 506.5 28 l 0
 506.5 -16.2568 470.048 -46.5 432 -46.5 c 0
 392.698 -46.5 364.447 -17.7539 358.614 15.3291 c 0
 357.879 19.5 357.5 23.7402 357.5 28 c 0
 357.499 167.5 l 1
 286.499 167.5 l 1
 286.5 28 l 2
286.501 417.5 m 1
 286.5 316.5 l 1
 357.5 316.5 l 1
 357.501 417.5 l 1
 286.501 417.5 l 1
EndSplineSet
EndChar

StartChar: period
Encoding: 46 46 73
Width: 340
VWidth: 0
Flags: W
HStem: -51.5 193<47.6941 174.306>
VStem: 14.5 193<-17.4768 107.476>
LayerCount: 2
Fore
SplineSet
14.5 45 m 0
 14.5 100.928 60.5156 141.5 111 141.5 c 0
 160.763 141.5 198.368 105.071 206.055 61.4775 c 0
 207.007 56.0755 207.5 50.5645 207.5 44.9982 c 0
 207.5 -10.9286 161.484 -51.5 111 -51.5 c 0
 61.2373 -51.5 23.6318 -15.0703 15.9453 28.5225 c 0
 14.9932 33.9238 14.5 39.4346 14.5 45 c 0
EndSplineSet
EndChar

StartChar: colon
Encoding: 58 58 74
Width: 340
VWidth: 0
Flags: W
HStem: -51.5 193<47.6948 174.306> 207.5 193<47.694 174.305>
VStem: 14.5 193<-17.4761 107.476 241.524 366.476>
LayerCount: 2
Fore
SplineSet
14.5 304 m 0
 14.5 359.928 60.5156 400.5 111 400.5 c 0
 160.762 400.5 198.367 364.071 206.054 320.478 c 0
 207.007 315.077 207.499 309.566 207.5 304 c 0
 207.5 248.072 161.484 207.5 110.999 207.5 c 0
 61.2373 207.5 23.6318 243.929 15.9453 287.523 c 0
 14.9932 292.924 14.5 298.435 14.5 304 c 0
14.5 45 m 0
 14.5 100.928 60.5156 141.5 111.001 141.5 c 0
 160.763 141.5 198.368 105.071 206.055 61.4775 c 0
 207.007 56.0762 207.5 50.5654 207.5 45 c 0
 207.5 -10.9277 161.484 -51.5 111 -51.5 c 0
 61.2383 -51.5 23.6328 -15.0713 15.9453 28.5215 c 0
 14.9932 33.9229 14.5 39.4346 14.5 45 c 0
EndSplineSet
EndChar

StartChar: parenright
Encoding: 41 41 75
Width: 397
VWidth: -1282
Flags: W
VStem: 26.5 173.629<609.717 688.689> 77.5068 146.993<-25.8335 187.417 239.946 606.408> 85.5 147<-25.8335 519.229>
LayerCount: 2
Fore
SplineSet
77.5068 77.8809 m 1x40
 77.8281 119.7 85.5 155.404 85.5 188.994 c 0x20
 85.5 416.28 80.2848 514.981 72.0742 561.546 c 0
 65.8447 596.872 57.8926 602.202 49.1836 610.925 c 1
 35.915 623.388 29.9492 637.146 27.6816 650.009 c 0
 26.8301 654.837 26.5 659.54 26.5 664 c 0
 26.5 707.475 62.792 737.5 100 737.5 c 0
 156.473 737.5 187.116 675.102 200.129 645.173 c 1x80
 207.769 628.365 213.496 606.738 217.815 582.244 c 0
 231.559 504.302 231.039 397.335 232.5 324.275 c 1
 232.5 186 l 0x20
 232.5 141.997 224.5 105.854 224.5 75 c 0
 224.5 61 l 0x40
 224.501 0.998047 219.973 -86.1758 153.117 -153.771 c 1
 135.893 -172.108 116.36 -176.5 100 -176.5 c 0
 61.3418 -176.5 33.3174 -147.803 27.583 -115.284 c 0
 26.8682 -111.232 26.5 -107.122 26.5 -103 c 0x80
 26.5 -55.0371 61.9082 -36.0312 65.458 -26.8047 c 1
 73.9062 -6.38672 71.7607 33.3438 77.5068 77.8809 c 1x40
EndSplineSet
EndChar

StartChar: parenleft
Encoding: 40 40 76
Width: 397
VWidth: -1282
Flags: W
VStem: 163.5 147<-34.2188 587.053> 195.792 173.708<-127.689 -48.7538>
LayerCount: 2
Fore
SplineSet
318.494 77.8916 m 1x80
 324.545 31.2393 323.064 6.14941 326.357 -12.5283 c 0
 328.818 -26.4844 333.945 -36.8594 346.871 -49.9756 c 1
 360.076 -62.3799 366.047 -76.1719 368.318 -89.0557 c 0
 369.168 -93.8711 369.5 -98.5586 369.5 -103 c 0
 369.5 -146.475 333.208 -176.5 296 -176.5 c 0
 239.516 -176.5 208.933 -114.216 195.792 -83.9922 c 1x40
 185.901 -61.3867 180.037 -40.8711 176.56 -21.1484 c 0
 171.667 6.59766 171.5 32.7764 171.5 61 c 0
 171.5 75 l 0
 171.5 108.529 163.5 145.824 163.5 186 c 0
 163.5 324.275 l 1x80
 168.237 561.172 172.476 643.979 242.882 714.771 c 1
 260.107 733.108 279.64 737.5 296 737.5 c 0
 334.658 737.5 362.683 708.803 368.417 676.284 c 0
 369.131 672.232 369.5 668.122 369.5 664 c 0x40
 369.5 576.386 320.88 649.014 315.49 479.266 c 1
 312.932 361.49 310.5 332.165 310.5 189 c 0
 310.5 152.668 318.212 114.331 318.494 77.8916 c 1x80
EndSplineSet
EndChar

StartChar: plus
Encoding: 43 43 77
Width: 498
VWidth: 0
Flags: W
HStem: -28.5 21G<227.201 265.33> 86.5 149<81.7615 173.499 324.499 419.43> 332.5 20G<232.376 270.799>
VStem: 173.5 149<-8.80001 87.0986 237.896 329.437>
LayerCount: 2
Fore
SplineSet
366.199 235.5 m 2
 406.077 235.5 432.657 205.252 438.354 172.947 c 0
 439.112 168.646 439.5 164.308 439.5 160 c 0
 439.5 114.446 400.826 86.5 363.801 86.5 c 1
 322.5 87.0986 l 1
 322.5 45 l 0
 322.501 -0.553711 283.66 -28.5 247 -28.5 c 0
 207.401 -28.5 180.364 0.625977 174.635 33.1201 c 0
 173.885 37.375 173.5 41.6875 173.5 46 c 0
 173.499 88.8955 l 1
 131.802 89.5 l 1
 91.9238 89.5 65.3428 119.747 59.6465 152.052 c 0
 58.8887 156.354 58.5 160.692 58.5 165 c 0
 58.5 210.554 97.1738 238.5 134.199 238.5 c 1
 175.901 237.896 l 1
 176.5 279.199 l 1
 176.5 323.616 213.752 352.5 251 352.5 c 0
 290.599 352.5 317.636 323.374 323.365 290.879 c 0
 324.115 286.625 324.5 282.312 324.5 278 c 0
 324.499 236.104 l 1
 366.199 235.5 l 2
EndSplineSet
EndChar

StartChar: hyphen
Encoding: 45 45 78
Width: 498
VWidth: 0
Flags: W
HStem: 86.5 149.997<81.761 418.154>
VStem: 58.5 381.001<109.883 215.118>
LayerCount: 2
Fore
SplineSet
297.37 236.497 m 1
 366.199 235.5 l 1
 406.076 235.5 432.657 205.252 438.354 172.947 c 0
 439.112 168.645 439.5 164.308 439.501 160 c 0
 439.5 114.446 400.8 86.5 363.832 86.5 c 1
 200.635 88.502 l 1
 131.801 89.5 l 1
 91.9229 89.5 65.3428 119.748 59.6465 152.053 c 0
 58.8876 156.354 58.5 160.693 58.5 165.002 c 0
 58.5 210.554 97.2016 238.5 134.168 238.5 c 1
 297.37 236.497 l 1
EndSplineSet
EndChar

StartChar: comma
Encoding: 44 44 79
Width: 340
VWidth: 0
Flags: W
HStem: -158.5 300<47.5894 97.8092>
VStem: 14.5 193.001<-25.6247 107.476>
LayerCount: 2
Fore
SplineSet
14.5 45 m 0
 14.5 100.928 60.5156 141.5 111 141.5 c 0
 160.763 141.5 198.368 105.071 206.055 61.4775 c 0
 207.008 56.0762 207.5 50.5654 207.501 45 c 0
 207.499 -7.86719 113.952 -158.5 49 -158.5 c 0
 18.5986 -158.5 7.99609 -136.42 4.34375 -115.703 c 0
 2.69764 -106.369 2.4622 -97.3115 2.4622 -90.6744 c 0
 2.4622 -88.0151 2.5 -85.7443 2.5 -84 c 0
 2.49902 -34.8154 14.5 27.9717 14.5 45 c 0
EndSplineSet
EndChar

StartChar: semicolon
Encoding: 59 59 80
Width: 340
VWidth: 0
Flags: W
HStem: 207.5 193<47.6941 174.306>
VStem: 14.5 193<-25.6248 107.476 241.524 366.476>
LayerCount: 2
Fore
SplineSet
14.5 45 m 0
 14.5 100.928 60.5166 141.5 110.999 141.5 c 0
 160.763 141.5 198.369 105.071 206.056 61.4775 c 0
 207.008 56.0762 207.501 50.5654 207.501 45 c 0
 207.5 -7.86719 113.952 -158.5 49 -158.5 c 0
 18.5742 -158.5 7.99219 -136.609 4.36816 -116.058 c 0
 2.78144 -107.061 2.52902 -98.3202 2.52902 -91.7861 c 0
 2.52902 -88.737 2.58398 -86.1684 2.58398 -84.2783 c 0
 2.58301 -34.4531 14.5 28.3936 14.5 45 c 0
14.5 304 m 0
 14.5 359.928 60.5156 400.5 111 400.5 c 0
 160.762 400.5 198.368 364.071 206.055 320.478 c 0
 207.007 315.077 207.5 309.566 207.5 304 c 0
 207.5 248.072 161.483 207.5 111 207.5 c 0
 61.2373 207.5 23.6318 243.929 15.9453 287.523 c 0
 14.9932 292.924 14.5 298.435 14.5 304 c 0
EndSplineSet
EndChar

StartChar: quotesingle
Encoding: 39 39 81
Width: 107
VWidth: 0
Flags: W
HStem: 453.5 298<11.5378 95.3233>
VStem: -24.1065 163.044<511.113 724.631>
LayerCount: 2
Fore
SplineSet
-24.0625 655 m 0
 -24.0625 703.155 2.95996 751.5 59.4375 751.5 c 0
 109.852 751.5 130.626 714.568 136.805 679.53 c 0
 138.297 671.066 138.938 662.713 138.938 655.018 c 0
 138.938 625.944 131.836 453.5 53.4375 453.5 c 0
 11.1201 453.5 -8.16016 502.046 -16.9111 551.673 c 0
 -23.4395 588.701 -24.1065 626.331 -24.1065 644.848 c 0
 -24.1065 649.604 -24.0625 653.099 -24.0625 655 c 0
EndSplineSet
EndChar

StartChar: quotedbl
Encoding: 34 34 82
Width: 388
VWidth: 0
Flags: W
HStem: 450.5 301
LayerCount: 2
Fore
SplineSet
14.5 655 m 0
 14.5 710.928 60.5156 751.5 111 751.5 c 0
 151.799 751.5 184.427 727.013 199.094 694.166 c 1
 215.171 727.189 249.412 748.5 286 748.5 c 0
 335.763 748.5 373.367 712.071 381.054 668.479 c 0
 382.006 663.077 382.5 657.566 382.499 652 c 0
 382.5 616.354 355.497 450.5 280 450.5 c 0
 228.713 450.5 206.029 522.526 196.329 581.051 c 1
 182.216 522.496 153.695 453.5 105 453.5 c 0
 55.1504 453.5 32.3232 521.546 22.1748 579.101 c 0
 15.96 614.349 14.5 645.662 14.5 655 c 0
EndSplineSet
EndChar

StartChar: exclam
Encoding: 33 33 83
Width: 235
VWidth: 0
Flags: W
HStem: -51.5 193<47.6946 174.306> 731.5 20G<91.7583 141.881>
VStem: 14.5 193.001<-17.4761 107.476 350.188 710.111>
LayerCount: 2
Fore
SplineSet
14.5 45 m 0
 14.5 100.928 60.5166 141.5 111 141.5 c 0
 160.764 141.5 198.368 105.071 206.056 61.4775 c 0
 207.008 56.0762 207.5 50.5654 207.501 45 c 0
 207.499 -10.9277 161.483 -51.5 111 -51.5 c 0
 61.2373 -51.5 23.6328 -15.0713 15.9463 28.5215 c 0
 14.9932 33.9229 14.5 39.4346 14.5 45 c 0
20.5 655 m 0
 20.5 710.928 66.5166 751.5 117 751.5 c 0
 166.763 751.5 204.368 715.071 212.055 671.479 c 0
 213.007 666.077 213.5 660.566 213.499 655 c 0
 213.5 634.046 196.602 151.5 111 151.5 c 0
 81.2305 151.5 61.2373 208.967 47.8174 285.08 c 0
 21.9951 431.525 20.5 646.999 20.5 655 c 0
EndSplineSet
EndChar

StartChar: asciitilde
Encoding: 126 126 84
Width: 455
VWidth: -1282
Flags: W
HStem: 326.774 146.896<257.372 326.172> 375.354 146.146<131.84 203.812> 485.5 20G<357.145 395.329>
LayerCount: 2
Fore
SplineSet
7.5 405 m 0x40
 7.5 458.62 74.0996 521.5 155 521.5 c 0x40
 243.721 521.5 288.113 473.67 303.542 473.67 c 0
 306.133 473.67 307.776 474.161 309.345 474.749 c 0
 318.184 478.064 338.289 505.5 376 505.5 c 0
 414.658 505.5 442.684 476.802 448.418 444.282 c 0
 449.132 440.231 449.5 436.121 449.501 432 c 0
 449.5 362.398 358.6 326.774 302.662 326.774 c 0xa0
 223.399 326.774 173.05 375.354 157.477 375.354 c 0
 154.856 375.354 154.025 374.913 152.644 374.123 c 0
 147.068 370.938 143.961 367.461 143.848 367.306 c 1
 129.358 342.467 103.028 331.5 81 331.5 c 0
 42.3418 331.5 14.3174 360.197 8.58301 392.716 c 0
 7.86816 396.768 7.5 400.878 7.5 405 c 0x40
EndSplineSet
EndChar

StartChar: braceleft
Encoding: 123 123 85
Width: 397
VWidth: -1282
Flags: W
VStem: 175.5 147.008<27.6333 175.036> 186.435 144.093<475.703 589.059> 191.288 147.534<52.9188 197.137 450.593 573.414> 195.815 173.685<-127.689 -48.8>
LayerCount: 2
Fore
SplineSet
251.491 320.214 m 0x40
 251.491 320.004 251.495 320.087 251.498 320.047 c 1
 251.498 320.047 322.604 286.345 336.487 207.606 c 0
 337.989 199.088 338.821 190.042 338.821 180.455 c 0x20
 338.821 134.754 322.917 99.7588 322.508 77.1348 c 1x80
 326.78 28.3906 323.767 3.66211 327.039 -14.8955 c 0
 329.274 -27.5723 334.443 -37.3691 346.868 -49.9736 c 1
 360.077 -62.3799 366.048 -76.1719 368.319 -89.0537 c 0
 369.168 -93.8691 369.5 -98.5586 369.5 -103 c 0
 369.5 -146.475 333.208 -176.5 296 -176.5 c 0
 239.52 -176.5 208.918 -114.183 195.815 -84.0449 c 1x10
 187.221 -64.6104 182.138 -46.7295 179.154 -29.8105 c 0
 175.646 -9.91992 175.041 8.6416 175.041 26.8359 c 0
 175.041 43.8652 175.501 59.6162 175.5 75 c 0x80
 175.5 114.647 191.288 148.557 191.288 176.343 c 0x20
 191.288 179.942 191.023 183.438 190.425 186.83 c 0
 187.491 203.466 100.081 246.027 88.7139 310.492 c 0
 87.9229 314.98 87.5 319.575 87.5 324.274 c 1
 89.0625 402.461 184.904 452.817 185.523 466.136 c 1
 186.334 488.553 186.435 506.431 186.435 521.554 c 0x40
 186.435 536.52 186.329 548.008 186.329 557.724 c 0
 186.329 623.119 194.077 665.604 242.895 714.783 c 1
 260.095 733.097 279.645 737.5 296 737.5 c 0
 334.658 737.5 362.683 708.803 368.417 676.284 c 0
 369.131 672.232 369.5 668.122 369.5 664 c 0x10
 369.499 616.963 334.237 596.606 331.097 589.205 c 1
 330.704 586.142 330.528 579.09 330.527 574.424 c 0
 330.528 553.61 333.577 485.366 333.578 475.184 c 0
 333.578 362.985 251.49 346.704 251.491 320.214 c 0x40
EndSplineSet
EndChar

StartChar: braceright
Encoding: 125 125 86
Width: 397
VWidth: -1282
Flags: W
VStem: 121.53 148.012<77.3872 208.09 443.497 573.606> 134.492 147.467<-25.8699 179.883>
LayerCount: 2
Fore
SplineSet
118.179 180.455 m 0x80
 118.18 285.154 205.503 320.055 205.503 320.055 c 1
 205.513 320.152 205.509 320.182 205.51 320.214 c 0
 205.509 343.498 140.166 363.598 126.078 443.494 c 0
 124.376 453.147 123.422 463.673 123.422 475.184 c 0
 123.422 488.567 126.472 557.78 126.473 574.424 c 0
 126.472 584.747 126.022 588.28 125.902 589.206 c 1
 120.999 600.771 94.7188 615.657 88.7197 649.678 c 0
 87.9375 654.115 87.5 658.877 87.5 664 c 0
 87.5 707.475 123.792 737.5 161 737.5 c 0
 217.473 737.5 248.115 675.102 261.129 645.173 c 1
 264.274 638.252 266.498 630.333 268.054 621.508 c 0
 270.804 605.914 271.471 587.493 271.471 566.757 c 0
 271.471 547.205 270.878 525.594 270.878 502.353 c 0
 270.878 490.674 271.027 478.584 271.478 466.136 c 1
 272.094 452.876 356.41 404.5 368.163 337.848 c 0
 368.947 333.403 369.407 328.878 369.5 324.275 c 1
 369.5 246.555 266.5 202.464 266.5 186 c 0
 266.499 176.628 267.756 166.887 269.542 156.761 c 0x80
 271.799 143.957 274.903 130.539 277.383 116.477 c 0
 279.719 103.231 281.5 89.4141 281.5 75 c 0
 281.5 56.0596 281.959 40.7871 281.959 26.8359 c 0
 281.959 -34.5078 266.446 -100.905 214.119 -153.769 c 1
 196.892 -172.11 177.361 -176.5 161 -176.5 c 0
 122.342 -176.5 94.3174 -147.803 88.583 -115.284 c 0
 87.8682 -111.232 87.5 -107.122 87.5 -103 c 0
 87.5 -55.0371 122.908 -36.0312 126.458 -26.8047 c 1
 134.588 -7.15723 130.674 31.3643 134.492 77.1484 c 1x40
 134.4 82.2363 133.731 87.6807 132.714 93.4541 c 0
 130.031 108.669 124.92 126.159 121.53 145.384 c 0
 119.565 156.527 118.179 168.253 118.179 180.455 c 0x80
EndSplineSet
EndChar

StartChar: equal
Encoding: 61 61 87
Width: 498
VWidth: 0
Flags: W
HStem: 26.5 149.997<81.7614 418.154> 176.5 149.998<81.7614 418.157>
LayerCount: 2
Fore
SplineSet
297.37 176.497 m 1
 366.199 175.5 l 1
 406.076 175.5 432.657 145.252 438.354 112.947 c 0
 439.112 108.644 439.5 104.307 439.5 99.9983 c 0
 439.5 54.4456 400.8 26.5 363.831 26.5 c 1
 200.633 28.502 l 1
 131.801 29.5 l 1
 91.9238 29.5 65.3428 59.748 59.6465 92.0527 c 0
 58.8877 96.3545 58.5 100.692 58.499 105 c 0
 58.5 150.554 97.2002 178.5 134.169 178.5 c 1
 297.37 176.497 l 1
297.366 326.498 m 1
 366.198 325.5 l 1
 406.077 325.5 432.657 295.252 438.354 262.947 c 0
 439.11 258.652 439.5 254.318 439.5 250.016 c 0
 439.5 204.451 400.809 176.5 363.831 176.5 c 2
 200.628 178.503 l 1
 131.801 179.5 l 1
 91.9238 179.5 65.3428 209.748 59.6465 242.053 c 0
 58.8877 246.355 58.5 250.692 58.5 255 c 0
 58.5 300.554 97.1992 328.5 134.169 328.5 c 1
 297.366 326.498 l 1
EndSplineSet
EndChar

StartChar: ampersand
Encoding: 38 38 88
Width: 727
VWidth: -1282
Flags: W
HStem: -28.5 147<225.564 417.395> 313.5 144<275.109 392.588> 323.5 144.094<341.795 432.779 591.086 666.491> 607.5 146<239.528 352.064>
VStem: 43.5 147.988<147.846 272.247> 82.5 146.999<499.203 595.795>
LayerCount: 2
Fore
SplineSet
82.5 553 m 0x94
 82.5 655.756 163 753.5 290.999 753.5 c 0
 387.288 753.5 433.424 721.219 498.821 639.251 c 1
 510.242 625.075 514.577 614.642 516.323 604.742 c 0
 517.091 600.39 517.357 596.141 517.506 591.723 c 1
 539.891 583.526 553.324 569.055 560.22 552.965 c 1
 572.806 524.436 582.787 493.779 588.369 468.103 c 1
 608.633 471.518 608.233 473.5 622 473.5 c 0
 652.896 473.5 701.443 454.012 708.605 413.39 c 0
 709.191 410.068 709.5 406.605 709.501 403 c 0
 709.499 370.422 675.613 337.229 594.33 325.33 c 1
 587.049 265.492 570.146 228.674 562.515 204.251 c 1
 576.613 215.188 592.133 219.5 606 219.5 c 0
 637.274 219.5 684.52 199.604 691.6 159.453 c 0
 692.189 156.109 692.501 152.625 692.5 149 c 0
 692.5 142.355 l 1
 692.304 140.724 l 0
 687.134 97.6387 649.402 73.1768 633.663 59.9229 c 1
 609.614 39.8818 581.039 28.5 550.999 28.5 c 0
 547.313 28.5 l 1
 546.626 28.5342 l 0
 527.076 29.5117 511.199 34.4336 498.523 39.9863 c 1
 461.265 9.13574 403.785 -28.5 310.001 -28.5 c 0
 182.167 -28.5 97.2148 47.8643 80.9121 73.0605 c 0
 63.4902 99.9844 52.7939 130.075 47.5176 159.998 c 0
 44.7783 175.533 43.5 191.022 43.5 206 c 0x98
 43.5 294.562 87.54 363.316 139.68 405.146 c 1
 104.235 446.625 90.752 487.393 85.6289 516.445 c 0
 82.6621 533.274 82.5 546.172 82.5 553 c 0x94
299 313.5 m 0xd8
 239.86 313.5 191.499 266.495 191.5 207 c 0
 191.5 202.243 191.488 200.78 191.488 199.399 c 0
 191.492 188.81 192.105 180.773 193.142 174.895 c 0
 194.412 167.689 196.308 163.583 198.445 161.445 c 0
 230.754 129.137 279.249 118.5 327.001 118.5 c 0
 340.755 118.5 356.033 120.69 367.199 122.885 c 1
 405.5 131.694 401.911 129.239 418.951 143.193 c 1
 417.733 157.297 417.5 168.612 417.5 178.935 c 0
 417.5 253.351 441.252 273.863 450.566 320.892 c 1
 405.038 323.141 412.184 323.5 405 323.5 c 0
 389.493 323.5 l 1xb8
 369.121 322.648 369.904 316.725 318.193 312.588 c 0
 315.225 312.35 l 1
 312.273 312.754 l 0
 312.273 312.754 304.899 313.5 299 313.5 c 0xd8
341 457.5 m 0xd4
 358.148 457.5 363.506 468.5 393.999 468.5 c 0
 395.489 468.5 402.904 467.594 402.904 467.594 c 1xb4
 414.4 467.452 416.696 467.5 421.001 467.5 c 0
 430.407 467.5 l 1
 432.779 467.082 l 0
 437.911 466.176 441.103 465.696 442.912 465.419 c 1
 436.334 484.91 429.367 497.837 426.591 513.583 c 0
 426.235 515.598 425.949 517.66 425.741 519.788 c 1
 341.804 542.743 379.905 607.5 295 607.5 c 0
 242.39 607.5 229.499 574.837 229.499 551 c 0
 229.499 547.518 229.813 544.074 230.412 540.679 c 0
 238.541 494.576 299.227 457.5 341 457.5 c 0xd4
EndSplineSet
EndChar

StartChar: asterisk
Encoding: 42 42 89
Width: 498
VWidth: 0
Flags: W
HStem: -12.5 21G<170.195 200.296 291.005 319.531> 319.5 20G<178.469 206.995 297.704 327.805>
VStem: 58.5 381.001<106.029 218.971>
LayerCount: 2
Fore
SplineSet
192 -12.5 m 0
 148.39 -12.5 121.256 19.5527 115.604 51.6064 c 0
 114.872 55.7607 114.5 59.915 114.5 64 c 0
 114.5 74.6836 116.985 83.2998 118.979 88.8193 c 1
 82.2666 93.0898 64.5303 123.728 59.8164 150.458 c 0
 58.9248 155.514 58.5 160.429 58.5 165 c 0
 58.5 202.033 84.3486 235.175 120.938 239.295 c 1
 116.1 252.685 116.5 258.043 116.5 264 c 0
 116.5 314.523 161.938 339.5 195 339.5 c 0
 218.99 339.5 238.89 328.242 250.92 312.07 c 1
 267.01 333.104 289.408 337.5 306 337.5 c 0
 349.61 337.5 376.743 305.447 382.396 273.393 c 0
 383.128 269.239 383.5 265.085 383.5 261 c 0
 383.5 250.316 381.015 241.7 379.021 236.181 c 1
 415.733 231.91 433.471 201.272 438.184 174.542 c 0
 439.075 169.486 439.5 164.571 439.501 160 c 0
 439.5 122.967 413.651 89.8242 377.062 85.7051 c 1
 381.9 72.3154 381.5 66.957 381.5 61 c 0
 381.5 10.4766 336.062 -14.5 303 -14.5 c 0
 279.01 -14.5 259.111 -3.24219 247.08 12.9297 c 1
 230.99 -8.10449 208.592 -12.5 192 -12.5 c 0
EndSplineSet
EndChar

StartChar: slash
Encoding: 47 47 90
Width: 492
VWidth: 0
Flags: W
HStem: 700.5 20G<405.734 437.031>
LayerCount: 2
Fore
SplineSet
418 720.5 m 0
 456.062 720.5 485.269 693.777 491.336 659.362 c 0
 492.103 655.017 492.5 650.551 492.5 646 c 0
 492.5 634.429 489.553 623.262 485.748 614.948 c 1
 142.595 -175.099 l 1
 128.26 -209.585 98.5332 -220.5 74 -220.5 c 0
 35.9385 -220.5 6.73145 -193.777 0.663086 -159.362 c 0
 -0.102539 -155.017 -0.5 -150.551 -0.5 -146 c 0
 -0.5 -134.43 2.44727 -123.26 6.25195 -114.95 c 1
 349.404 675.101 l 1
 363.739 709.583 393.468 720.5 418 720.5 c 0
EndSplineSet
EndChar

StartChar: question
Encoding: 63 63 92
Width: 486
VWidth: -1282
Flags: W
HStem: -51.0967 193.192<167.74 293.26> 480.117 21G<31.9355 65.7964> 612.828 151.652<166.554 294.372>
VStem: 133.904 193.191<-17.7004 108.7> 199.554 115.64<180.952 234.428> 295.477 175.362<483.509 610.316>
LayerCount: 2
Fore
SplineSet
133.904 44.9434 m 0xf0
 133.904 100.554 178.493 142.096 229.943 142.096 c 0
 279.492 142.096 317.873 106.697 325.65 62.5869 c 0
 326.603 57.1898 327.096 51.6631 327.096 46.0548 c 0
 327.096 -9.55462 282.506 -51.0967 231.057 -51.0967 c 0
 181.508 -51.0967 143.127 -15.6973 135.35 28.4131 c 0
 134.397 33.8096 133.904 39.3359 133.904 44.9434 c 0xf0
247.599 150.487 m 0
 216.826 150.487 204.28 174.522 199.554 201.328 c 0xe8
 197.573 212.563 196.965 224.284 196.965 234.927 c 0
 196.965 251.811 198.494 265.981 198.494 271.188 c 0
 198.494 276.258 198.5 277.578 198.5 279.011 c 0
 198.523 340.995 222.744 382.979 241.311 420.114 c 1
 282.358 505.366 295.477 523.551 295.477 576.891 c 0
 295.477 582.426 295.758 587.587 294.949 592.172 c 0
 292.755 604.616 282.537 612.828 236.906 612.828 c 0
 182.108 612.828 131.848 570.004 122.679 533.33 c 0
 122.524 532.711 l 1
 122.341 532.098 l 0
 112.186 498.245 80.1416 480.117 51.4512 480.117 c 0
 12.4199 480.117 -15.1035 509.369 -20.7529 541.411 c 0
 -21.4619 545.43 -21.8262 549.493 -21.8262 553.548 c 0
 -21.8262 559.979 -21.4229 561.252 -21.418 561.309 c 1
 -19.6357 585.846 18.5957 693.357 133.96 738.602 c 0
 174.6 754.54 216.107 764.48 257.294 764.48 c 0
 316.909 764.48 447.106 734.171 467.358 619.314 c 0
 467.674 617.526 467.962 615.718 468.223 613.889 c 0
 470.24 599.78 470.839 588.575 470.839 579.099 c 0xe4
 470.839 480.493 407.11 428.878 315.193 257.927 c 1xe8
 307.711 244.142 303.302 150.487 247.599 150.487 c 0
EndSplineSet
EndChar

StartChar: percent
Encoding: 37 37 93
Width: 899
VWidth: 0
Flags: W
HStem: -138.5 149<627.573 723.84> 119.5 149<626.409 724.277> 278.5 149<175.444 284.39> 509 149<175.915 282.659> 673 20G<610.109 644.93>
VStem: 19 150.669<436.83 499.102> 451.399 163.954<22.9987 108.171> 735.294 150.706<22.6015 106.235>
LayerCount: 2
Fore
SplineSet
548.128 647.601 m 2
 563.9 682.083 596.611 693 623.607 693 c 0
 666.252 693 698.794 666.979 704.644 633.806 c 0
 705.264 630.288 705.584 626.689 705.584 623.032 c 0
 705.584 612.166 702.34 601.678 698.153 593.87 c 2
 489.76 178.921 l 1
 530.467 233.387 599.311 268.5 675.324 268.5 c 0
 783.788 268.5 866.349 194.147 882.944 100.031 c 0
 884.957 88.6123 886 76.9023 886 65 c 0
 886 -49.4473 792.513 -138.5 675.323 -138.5 c 0
 561.84 -138.5 471.046 -62.5811 454.204 32.9336 c 0
 452.356 43.4111 451.399 54.125 451.399 65 c 0
 451.399 80.5869 453.308 95.7041 456.91 110.188 c 1
 320.561 -175.099 l 2
 304.787 -209.585 272.076 -220.5 245.081 -220.5 c 0
 202.725 -220.5 170.335 -193.168 164.167 -158.189 c 0
 163.467 -154.215 163.104 -150.143 163.104 -146 c 0
 163.104 -134.43 166.349 -123.26 170.533 -114.95 c 2
 386.445 336.808 l 1
 345.647 300.551 289.912 278.5 229.676 278.5 c 0
 120.335 278.5 37.3184 348.955 21.666 437.719 c 0
 19.9082 447.689 19 457.891 19 468.25 c 0
 19 574.964 112.488 658 229.676 658 c 0
 343.161 658 433.954 582.081 450.796 486.566 c 0
 452.643 476.089 453.6 465.375 453.601 454.5 c 0
 453.6 452.893 453.58 451.29 453.54 449.692 c 2
 548.128 647.601 l 2
229.677 509 m 0
 197.263 509 169.669 491.663 169.669 468.598 c 0
 169.669 466.892 169.82 465.155 170.131 463.392 c 0
 173.791 442.636 200.574 427.5 229.676 427.5 c 0
 262.09 427.5 289.683 444.838 289.683 467.903 c 0
 289.683 469.608 289.533 471.345 289.222 473.108 c 0
 285.562 493.864 258.777 509 229.677 509 c 0
675.323 119.5 m 0
 641.168 119.5 615.354 93.4707 615.354 65 c 0
 615.354 62.0586 615.611 59.1855 616.104 56.3936 c 0
 620.806 29.7246 646.964 10.5 675.324 10.5 c 0
 709.479 10.5 735.294 36.5293 735.294 65 c 0
 735.293 67.9414 735.037 70.8145 734.545 73.6064 c 0
 729.842 100.276 703.685 119.5 675.323 119.5 c 0
EndSplineSet
EndChar

StartChar: less
Encoding: 60 60 94
Width: 430
VWidth: 0
Flags: W
HStem: 422.5 20G<285.645 309.989>
VStem: 25.5 338
LayerCount: 2
Fore
SplineSet
290.999 442.5 m 0
 328.979 442.5 356.643 415.246 362.394 382.634 c 0
 363.122 378.499 363.5 374.278 363.5 370.017 c 0
 363.5 343.461 349.965 322.067 331.377 309.198 c 2
 232.502 244.265 l 1
 331.259 180.884 l 1
 349.948 167.945 359.316 150.335 362.357 133.085 c 0
 363.136 128.672 363.5 124.282 363.5 120 c 0
 363.5 77.4922 329.279 47.5 291.001 47.5 c 0
 275.868 47.5 262.231 51.9268 251.252 58.7881 c 1
 59.1006 182.886 l 1
 40.0098 195.159 29.8018 213.236 26.6104 231.332 c 0
 25.8623 235.579 25.5 239.826 25.5 244 c 0
 25.5 272.771 41.415 292.889 58.627 304.804 c 1
 251.166 431.158 l 1
 266.539 440.767 280.29 442.5 290.999 442.5 c 0
EndSplineSet
EndChar

StartChar: greater
Encoding: 62 62 95
Width: 430
VWidth: 0
Flags: W
HStem: 422.5 20G<121.743 150.009>
VStem: 68.5 337.999
LayerCount: 2
Fore
SplineSet
142.001 47.5 m 0
 103.298 47.5 75.2441 75.7275 69.5596 107.962 c 0
 68.8604 111.929 68.5 115.957 68.5 120 c 0
 68.5 147.885 83.8496 168.497 101.704 180.857 c 1
 199.764 244.265 l 1
 101.583 309.226 l 1
 83.3125 321.875 72.7832 339.615 69.5664 357.859 c 0
 68.8535 361.898 68.5 365.961 68.5 370 c 0
 68.5 409.943 101.487 442.5 141.999 442.5 c 0
 158.02 442.5 171.303 437.74 181.833 431.158 c 1
 374.374 304.804 l 1
 392.553 292.218 402.238 274.772 405.359 257.073 c 0
 406.129 252.707 406.499 248.326 406.499 243.997 c 0
 406.499 216.412 391.673 194.954 372.899 182.886 c 1
 180.748 58.7881 l 1
 165.551 49.29 152.189 47.5 142.001 47.5 c 0
EndSplineSet
EndChar

StartChar: at
Encoding: 64 64 96
Width: 954
VWidth: 0
Flags: W
HStem: -201 146<347.756 591.136> 426.944 20G<466.527 470.434 548.314 571.528> 567 146<352.864 596.244>
VStem: -1 146<141.818 369.966> 267.404 141.095<205.387 287.189> 799 146<142.034 370.182>
LayerCount: 2
Fore
SplineSet
472 713 m 0
 705.652 713 900.224 549.018 938.265 333.28 c 0
 942.693 308.162 945 282.343 945 256 c 0
 945 -0.65918 728.678 -201 472 -201 c 0
 238.348 -201 43.7764 -37.0186 5.73633 178.72 c 0
 1.30664 203.838 -1 229.657 -1 256 c 0
 -1 512.659 215.322 713 472 713 c 0
145 256 m 0
 145 238.427 146.541 221.182 149.504 204.383 c 0
 175.369 57.6895 309.583 -55 472 -55 c 0
 656.672 -55 799 88.459 799 256 c 0
 799 273.573 797.459 290.818 794.496 307.617 c 0
 768.631 454.311 634.417 567 472 567 c 0
 287.328 567 145 423.542 145 256 c 0
267.404 223.573 m 0
 267.404 291.802 312.13 446.5 458 446.5 c 0
 459.438 446.5 465.055 446.944 468 446.944 c 0
 469.22 446.944 l 1
 470.434 446.836 l 0
 474.781 446.45 499.492 443.025 520.456 434.385 c 1
 533.946 440.993 543.629 442.5 553 442.5 c 0
 590.056 442.5 617.798 416.084 623.443 384.065 c 0
 624.14 380.116 624.5 376.081 624.5 372 c 0
 624.5 336.439 601.5 312.402 601.501 245 c 0
 601.502 240.816 l 1
 632.054 233.767 650.83 210.453 655.404 184.51 c 0
 656.132 180.388 656.5 176.2 656.499 172 c 0
 656.5 155.568 651.484 145.479 647.597 137.701 c 0
 647.283 137.076 l 1
 633.765 113.158 l 1
 626.867 101.661 619.339 93.9326 610.28 88.498 c 1
 584.491 72.6182 l 1
 569.117 63.1006 558.024 61.5 547 61.5 c 0
 534.78 61.5 508.952 68.0244 492.877 88.1074 c 1
 470.966 72.3857 444.245 61.1758 412.88 61.1758 c 0
 336.302 61.1758 282.979 118.252 270.305 190.134 c 0
 268.39 200.991 267.404 212.185 267.404 223.573 c 0
408.499 221 m 0
 408.499 218.545 408.717 216.355 409.057 214.428 c 0
 409.831 210.034 411.247 207.007 412.199 205.307 c 1
 421.982 214.447 439.392 247.167 459.26 305.5 c 1
 453.339 305.5 l 1
 430.663 302.417 408.5 254.822 408.499 221 c 0
EndSplineSet
EndChar

StartChar: dotlessi
Encoding: 305 305 98
Width: 214
VWidth: -1282
Flags: W
HStem: -4.49512 326.495<53.1642 116.2>
VStem: 28.5 126.5<12.4038 93.5601> 52.5 87.5146<99.4266 278.861>
LayerCount: 2
Fore
SplineSet
52.5 200.991 m 0xa0
 52.5 210.286 51.7354 218.122 50.5361 224.927 c 0
 46.875 245.686 39.1641 256.853 36.7432 270.581 c 0
 36.2715 273.259 36 276.036 36 279 c 0
 36 303 55 322 79 322 c 2
 81 322 l 1
 115.172 319.721 129.771 277.466 135.856 242.951 c 0
 139.29 223.476 140.014 206.465 140.015 200.492 c 0xa0
 140.014 159.495 127.936 128.423 120 98 c 1
 136.916 94.4385 151.455 78.1934 154.439 61.2637 c 0
 154.808 59.1787 155 57.083 155 55 c 2
 155 51 l 1
 153.298 22.0703 128.58 -4.49512 96.2227 -4.49512 c 0
 60.5137 -4.49512 35.2646 21.3594 29.6689 53.0908 c 0
 28.8975 57.4668 28.5 61.9531 28.5 66.5 c 0xc0
 28.5 108.092 52.5 166.425 52.5 200.991 c 0xa0
EndSplineSet
EndChar

StartChar: dieresis
Encoding: 168 168 99
Width: 296
VWidth: -1282
Flags: W
HStem: 449 93<24.93 103.699 184.93 263.699>
VStem: 19 91<454.965 535.782> 179 91<454.965 535.782>
LayerCount: 2
Fore
SplineSet
270 495 m 4
 270 469 249 449 224 449 c 4
 201.816 449 183.568 464.748 179.739 486.463 c 0
 179.254 489.219 179.001 492.071 179 495 c 4
 179 521 199 542 224 542 c 4
 246.286 542 265.394 525.312 269.279 503.271 c 0
 269.753 500.587 270 497.823 270 495 c 4
110 495 m 0
 110 469 89 449 64 449 c 0
 41.8154 449 23.5684 464.748 19.7402 486.463 c 0
 19.2539 489.219 19 492.071 19 495 c 0
 19 521 39 542 64 542 c 0
 86.2861 542 105.394 525.312 109.279 503.271 c 0
 109.753 500.587 110 497.823 110 495 c 0
EndSplineSet
EndChar

StartChar: acute
Encoding: 180 180 100
Width: 379
VWidth: -1282
Flags: W
HStem: 427.278 160.178
VStem: 84.2783 211.178<474.491 541.046>
LayerCount: 2
Fore
SplineSet
295.456 541.046 m 4
 295.456 534.4 294.02 527.587 291 521 c 6
 273 482 l 6
 266.999 469 256.999 460 242.999 456 c 6
 144 429 l 6
 139.833 427.833 135.64 427.278 131.509 427.278 c 4
 109.751 427.278 88.9443 444.082 84.9609 466.671 c 0
 84.5137 469.21 84.2783 471.822 84.2783 474.491 c 4
 84.2783 495.139 98.167 514.167 119 520 c 6
 197.001 541 l 5
 205.999 560 l 6
 213.981 577.413 230.384 587.456 247.954 587.456 c 4
 272.636 587.456 291.156 569.138 294.802 548.463 c 0
 295.233 546.015 295.456 543.534 295.456 541.046 c 4
EndSplineSet
EndChar

StartChar: Euro
Encoding: 8364 8364 216
Width: 717
VWidth: -1282
Flags: W
HStem: 0.0732422 92.1768<269.031 466.002> 211.245 94.457<8.24675 63.6514 177.543 319.754> 374.627 93.7969<21.2467 67.4678 190.455 332.753> 456 21G<561.598 606.5> 611.104 92.1279<305.917 479.198>
VStem: 63.4785 91.04<306.82 374.627>
LayerCount: 2
Fore
SplineSet
225.001 468 m 1xec
 294 467 l 2
 317.033 467 335.357 449.735 339.239 427.718 c 0
 339.739 424.882 340 421.967 340 419 c 0
 340 393 318.001 373 292.001 373 c 2
 159.401 374.627 l 1xec
 156.197 356.172 154.519 337.313 154.519 318.314 c 0
 154.519 314.078 154.612 309.874 154.804 305.702 c 1
 212 305 l 1
 281 304 l 2
 304.033 304 322.357 286.735 326.24 264.718 c 0
 326.74 261.881 327 258.966 327 255.998 c 0
 327 229.999 304.998 210 278.999 210 c 2
 177.543 211.245 l 1
 211.184 139.785 279.417 92.25 367.06 92.25 c 0
 469.812 92.25 544.388 163.71 569.001 227 c 0
 575 243 594 256 611 256 c 0
 633.372 256 652.541 239.182 656.324 217.73 c 0
 656.768 215.215 657 212.638 657 210.016 c 0
 657 173.487 564.397 0.0732422 365.189 0.0732422 c 0
 233.104 0.0732422 119.337 82.7305 79.0527 212.535 c 1
 47 213 l 2
 23.9668 213 5.64258 230.265 1.76074 252.282 c 0
 1.26074 255.118 1 258.033 1 261 c 0
 1 287 23 307 49 307 c 2
 63.6514 306.82 l 1
 63.5359 310.669 63.4785 314.544 63.4785 318.444 c 0
 63.4785 337.535 64.8252 356.76 67.4678 375.892 c 1
 60 376 l 2
 36.9668 376 18.6426 393.266 14.7607 415.283 c 0
 14.2607 418.119 14 421.033 14 424 c 0
 14 450 36 470 62 470 c 2
 91.2363 469.641 l 1
 135.7 588.06 231.742 686.286 366.001 701 c 0
 372.999 702 379 703 386 703 c 0
 389.626 703.154 393.252 703.231 396.876 703.231 c 0
 532.911 703.231 622.542 602.843 638.137 514.405 c 0
 638.455 512.598 638.742 510.796 638.999 509 c 0
 639 507 640 504 640.001 502 c 0
 640.001 477 619 456 594 456 c 0xdc
 529.195 456 569.238 541.806 477 591 c 0
 452.548 604.041 424.109 611.104 395.477 611.104 c 0
 307.764 611.104 232.54 551.446 190.455 468.424 c 1
 225.001 468 l 1xec
EndSplineSet
EndChar

StartChar: multiply
Encoding: 215 215 217
Width: 498
VWidth: 0
Flags: W
HStem: 31.8867 258.474
VStem: 119.217 258.858
LayerCount: 2
Fore
SplineSet
299.205 277.259 m 2
 308.044 286.098 319.5 290.36 331.054 290.36 c 0
 343.531 290.36 356.127 285.389 365.673 275.844 c 0
 372.45 269.066 376.538 260.75 378.075 252.031 c 0
 378.543 249.379 378.774 246.69 378.774 243.995 c 0
 378.774 231.516 373.805 218.921 364.258 209.376 c 2
 314.762 161.293 l 1
 364.258 111.796 l 2
 373.098 102.956 377.36 91.502 377.36 79.9473 c 0
 377.359 67.4688 372.39 54.873 362.844 45.3271 c 0
 353.828 36.3115 342.262 31.8867 330.646 31.8867 c 0
 318.576 31.8867 306.453 36.665 297.083 46.0342 c 2
 247.586 95.5322 l 1
 198.089 47.4482 l 2
 189.249 38.6094 177.794 34.3467 166.239 34.3467 c 0
 153.761 34.3467 141.166 39.3174 131.62 48.8633 c 0
 124.842 55.6416 120.755 63.958 119.217 72.6787 c 0
 118.749 75.3314 118.519 78.0204 118.519 80.7166 c 0
 118.519 93.1929 123.49 105.787 133.034 115.331 c 2
 182.531 163.414 l 1
 134.448 212.912 l 2
 125.433 221.928 121.009 233.494 121.009 245.109 c 0
 121.009 257.18 125.787 269.304 135.156 278.673 c 0
 144.172 287.689 155.738 292.113 167.354 292.113 c 0
 179.424 292.113 191.548 287.335 200.917 277.966 c 2
 249.707 229.175 l 1
 299.205 277.259 l 2
EndSplineSet
EndChar

StartChar: exclamdown
Encoding: 161 161 218
Width: 235
VWidth: 0
Flags: W
HStem: 391 20G<98 121.985> 476 138<65.07 168.929>
VStem: 42 138.001<-116.643 187.25 498.649 591.351>
LayerCount: 2
Fore
SplineSet
185.999 545 m 4
 186 507 155 476 117 476 c 4
 83.084 476 54.7432 500.695 49.0439 533.021 c 0
 48.3574 536.913 47.999 540.916 47.999 545 c 4
 48 583 79 614 117 614 c 4
 150.916 614 179.255 589.306 184.955 556.981 c 0
 185.642 553.088 186 549.084 185.999 545 c 4
180.001 -65 m 4
 180 -103 149 -134 111 -134 c 4
 77.084 -134 48.7451 -109.306 43.0449 -76.9805 c 0
 42.3584 -73.0879 42 -69.084 42 -65 c 4
 42 -27 79 411 117 411 c 4
 126.97 411 136.044 380.854 144.007 335.693 c 0
 166.396 208.714 180 -36.9688 180.001 -65 c 4
EndSplineSet
EndChar

StartChar: questiondown
Encoding: 191 191 219
Width: 486
VWidth: -1282
Flags: W
HStem: -143.597 96.6523<138.187 291.701> 395.396 20G<189.703 206.289> 478.787 138.193<166.637 270.385>
VStem: 5.67285 120.361<-33.7374 101.35> 149.415 138.191<495.818 599.949> 353.011 89.6631<39.9321 80.1929>
LayerCount: 2
Fore
SplineSet
287.606 548.44 m 0
 287.606 510.108 257.561 478.787 219.068 478.787 c 0
 184.838 478.787 156.199 502.747 150.462 535.286 c 0
 149.774 539.186 149.415 543.208 149.415 547.327 c 0
 149.415 585.659 179.463 616.98 217.954 616.98 c 0
 252.184 616.98 280.822 593.021 286.56 560.482 c 0
 287.247 556.583 287.606 552.56 287.606 548.44 c 0
201.412 415.396 m 0
 211.166 415.396 216.521 403.466 219.46 386.799 c 0
 222.8 367.86 223.018 342.805 223.018 322.195 c 0
 223.017 319.509 223.013 316.896 223.012 314.384 c 8
 222.99 261.711 203.013 225.384 183.012 185.384 c 0
 143.907 104.17 126.034 77.71 126.034 16.4922 c 0
 126.034 10.8799 126.361 5.26562 127.32 -0.174805 c 0
 131.775 -25.4404 149.861 -46.9443 212.104 -46.9443 c 0
 277.122 -46.9443 339.842 0.706055 353.011 53.3838 c 0
 358.495 71.6641 378.18 85.7666 397.562 85.7666 c 0
 420.002 85.7666 438.95 68.5088 442.674 47.3877 c 0
 443.112 44.9074 443.338 42.3791 443.338 39.8118 c 0
 443.338 38.017 443.229 36.2057 443.013 34.3838 c 0
 443.012 25.2607 411.582 -77.8232 305.013 -119.616 c 0
 268.582 -133.902 229.604 -143.597 191.717 -143.597 c 0
 137.643 -143.597 25.3555 -115.385 8.69141 -20.8809 c 0
 6.4668 -8.26074 5.67285 3.37012 5.67285 14.2842 c 0
 5.67285 97.4932 62.1963 144.187 158.012 322.384 c 0
 176.854 357.091 177.993 415.396 201.412 415.396 c 0
EndSplineSet
EndChar

StartChar: sterling
Encoding: 163 163 220
Width: 651
VWidth: -1282
Flags: W
HStem: -3 92<279.232 496.365> 15.1387 91.7461<191.993 414.55> 328.303 94.2002<62.2467 133.551 226.824 373.754> 520.044 21G<448.496 459.498> 674.038 91.9756<244.094 387.16>
VStem: 122.516 96.1172<488.9 650.751> 134.55 92.2744<149.621 328.303 423.625 657.44> 404.654 90.9414<525.83 658.875>
LayerCount: 2
Fore
SplineSet
266 422 m 1x7d
 335 421 l 2
 358.033 421 376.357 403.735 380.24 381.718 c 0
 380.74 378.882 381 375.967 381 373 c 0
 381 347 359 327 333 327 c 2
 226.824 328.303 l 1
 225.875 193.444 201.863 134.591 191.001 102 c 1
 218 104 l 2
 238.041 105.485 258.346 106.885 279.081 106.885 c 0x7b
 347.562 106.885 376.529 89 417 89 c 0
 490.9 89 508.504 135 542 135 c 0
 564.372 135 583.541 118.183 587.323 96.7314 c 0
 587.768 94.2102 588 91.6268 588 88.9978 c 0
 588 76.9982 579.999 61.9995 571 54 c 0
 528 17 473 -3 417 -3 c 0xbb
 351.778 -3 350.784 15.1387 272.592 15.1387 c 0
 257.344 15.1387 241.779 14.3926 226 13 c 2
 119 3 l 1
 115 3 l 2
 92.6279 3 73.459 19.8174 69.6768 41.2686 c 0
 69.2324 43.7891 69 46.3721 69 49 c 0
 69 89.0537 133.809 116.041 134.55 329.514 c 1x7b
 101 330 l 2
 77.9668 330 59.6426 347.265 55.7607 369.282 c 0
 55.2607 372.118 55 375.033 55 378 c 0
 55 404 77 424 102.999 424 c 2
 133.551 423.625 l 1
 132.896 447.812 131.833 471.643 130.126 493.398 c 0
 128.292 516.792 122.515 544.17 122.516 575.024 c 0
 122.515 604.938 127.943 638.117 147.657 674.101 c 0
 180.903 734.788 237.26 765.492 301.639 765.999 c 0
 302.921 766.009 304.207 766.014 305.494 766.014 c 0
 369.908 766.014 438.847 752.865 482.021 676.679 c 0
 490.271 662.12 494.974 647.579 497.436 633.617 c 0
 499.127 624.023 499.762 614.702 499.761 605.837 c 0
 499.761 588.271 497.272 572.494 495.596 559.92 c 0
 492.142 534.015 469.569 520.044 449.426 520.044 c 0
 447.565 520.044 445.725 520.163 443.92 520.404 c 0
 426.352 522.746 408.327 537.114 404.654 557.945 c 0
 404.212 560.455 403.978 563.058 403.978 565.746 c 0
 403.978 567.809 404.116 569.922 404.404 572.08 c 0
 405.961 583.763 406.762 594.316 406.762 603.358 c 0
 406.763 615.96 405.207 625.626 401.979 631.321 c 0
 380.587 669.071 363.096 674.038 310.802 674.038 c 0
 308.085 674.038 305.273 674.024 302.362 674.001 c 0
 266.488 673.719 246.524 663.086 228.344 629.899 c 0
 220.846 616.214 218.632 600.929 218.633 581.682 c 0
 218.632 557.755 222.054 527.707 223.001 487 c 0
 223.491 465.867 224.288 444.342 225.031 422.503 c 1
 266 422 l 1x7d
EndSplineSet
EndChar

StartChar: copyright
Encoding: 169 169 221
Width: 954
VWidth: 0
Flags: W
HStem: -173.5 91<345.261 597.971> 86.123 87.4961<430.736 509.146> 328.085 86.915<440.432 522.233> 594.5 91<346.029 598.739>
VStem: 26.5 91<135.793 372.911> 335.938 85.8877<180.473 307.305> 826.5 91<140.216 375.329>
LayerCount: 2
Fore
SplineSet
335.938 242.179 m 0
 335.938 362.685 417.357 415 483 415 c 4
 541.579 415 586.086 374.431 591.455 343.981 c 0
 591.816 341.938 592 339.938 592 338 c 4
 592 314 572 295 548 295 c 4
 514.659 295 515.768 328.085 479.662 328.085 c 4
 471.529 328.085 448.014 316.394 439 304 c 4
 425.687 286.247 421.826 280.312 421.826 249.831 c 4
 421.826 245.972 421.888 241.72 421.999 237 c 4
 422 229.489 422.57 222.842 423.607 216.964 c 0
 430.047 180.441 454.459 173.619 471.521 173.619 c 4
 495.5 173.619 507.553 189.212 509 195 c 4
 515 211 532.999 224 549.999 224 c 4
 571.361 224 588.763 208.948 592.33 188.716 c 0
 592.771 186.217 593 183.639 593 181 c 4
 593 148.222 548.257 86.123 471.842 86.123 c 4
 413.99 86.123 353.246 124.71 339.036 205.3 c 0
 337.018 216.743 335.938 229.033 335.938 242.179 c 0
472 685.5 m 0
 691.139 685.5 875.292 532.101 911.175 328.6 c 0
 915.333 305.019 917.5 280.766 917.5 256 c 0
 917.5 17.502 716.532 -173.5 472 -173.5 c 0
 252.861 -173.5 68.708 -20.1016 32.8252 183.4 c 0
 28.667 206.981 26.5 231.234 26.5 256 c 0
 26.5 494.498 227.468 685.5 472 685.5 c 0
122.417 199.659 m 0
 150.474 40.5469 295.305 -82.5 472 -82.5 c 0
 669.066 -82.5 826.5 70.5616 826.5 255.998 c 0
 826.5 256 l 0
 826.5 275.171 824.817 293.995 821.583 312.341 c 0
 793.526 471.454 648.695 594.5 472 594.5 c 0
 274.934 594.5 117.5 441.438 117.5 256.002 c 0
 117.5 236.83 119.183 218.005 122.417 199.659 c 0
EndSplineSet
EndChar

StartChar: registered
Encoding: 174 174 222
Width: 954
VWidth: 0
Flags: W
HStem: -173.5 91<345.261 597.971> -26.1846 75.5986<629.578 672.239> 164.436 75.2188<419.091 525.77> 409.332 72.3115<241.213 314.346> 451.341 75.5967<412.648 555.669> 538.064 20G<336.095 359.448> 594.5 91<346.029 598.739>
VStem: 26.5 91<135.793 372.911> 346.428 71.124<24.6693 181.713 250.411 259.545 260.123 433.983> 557.253 71.1416<47.9495 162.583> 603.768 70.5781<281.399 405.945> 826.5 91<140.216 375.329>
LayerCount: 2
Fore
SplineSet
388.678 521.087 m 5xf7d0
 415.452 525.639 442.894 526.938 456.446 526.938 c 4
 594.036 526.938 658.482 451.689 671.727 376.577 c 0
 673.49 366.577 674.346 356.58 674.346 346.763 c 4xefb0
 674.346 287.975 647.183 235.235 599.783 199.791 c 5
 599.783 198.969 l 5
 613.63 180.576 622.827 161.181 626.947 137.816 c 0
 628.591 128.492 629.427 118.535 629.426 107.757 c 4
 629.427 94.6094 628.396 83.6533 628.395 74.8877 c 4
 628.395 68.5361 630.036 49.4141 639.221 49.4141 c 4
 656.395 49.4141 671.127 35.7959 674.202 18.3535 c 0
 674.589 16.1611 674.792 13.9092 674.792 11.6152 c 4
 674.792 -8.92773 658.553 -26.1846 639.221 -26.1846 c 4
 597.121 -26.1846 567.034 5.82617 559.243 50.0117 c 0
 557.933 57.4434 557.253 65.2188 557.253 73.2451 c 4
 557.253 88.6523 558.558 101.286 558.559 111.146 c 4
 558.559 114.517 558.311 118.722 557.487 123.393 c 0
 555.043 137.254 547.522 155.228 526.322 167.743 c 5
 514.542 165.553 502.538 164.436 490.523 164.436 c 4
 459.064 164.436 433.405 171.545 411.876 181.713 c 5
 412.044 172.257 412.176 162.762 412.177 153.212 c 4
 412.176 73.2129 398.847 21.7617 387.131 -7.28516 c 5
 382.491 -21.2539 367.026 -31.9365 353.105 -31.9365 c 4
 336.031 -31.9365 321.975 -18.4756 318.924 -1.17676 c 0
 318.521 1.11035 318.31 3.46484 318.31 5.86328 c 4
 318.31 25.6475 340.541 44.2734 340.541 148.33 c 4
 340.541 178.221 339.188 209.651 339.188 242.521 c 5
 336.867 248.272 334.548 254.847 334.548 259.777 c 4
 334.549 267.173 336.868 273.746 339.961 279.498 c 5
 341.775 319.029 346.427 351.413 346.428 388.525 c 4
 346.428 404.148 345.417 419.546 343.055 433.983 c 5
 300.538 420.807 287.995 409.332 274.232 409.332 c 4
 257.059 409.332 242.325 422.95 239.25 440.393 c 0
 238.863 442.585 238.661 444.837 238.66 447.131 c 4
 238.661 461.101 247.94 475.892 260.312 481.644 c 4
 278.099 489.861 296.657 498.078 315.216 503.83 c 5
 312.896 508.761 311.351 515.335 311.35 520.265 c 4
 311.351 539.986 326.815 557.243 345.374 558.064 c 5
 346.921 558.064 l 6
 371.975 558.064 385.979 526.248 388.678 521.087 c 5xf7d0
491.344 239.654 m 4
 511.403 239.654 518.088 244.164 524.775 244.164 c 5
 574.306 258.784 603.768 304.566 603.768 344.835 c 4
 603.768 349.826 603.329 355.109 602.37 360.547 c 0
 595.144 401.533 558.354 451.341 456.918 451.341 c 4
 454.287 451.341 451.646 451.308 448.994 451.24 c 4
 436.621 451.24 425.021 449.597 412.648 447.953 c 5
 416.29 427.318 417.552 407.189 417.552 387.566 c 4
 417.551 340.724 411.199 305.611 410.33 270.459 c 5
 428.333 253.72 458.938 239.654 491.344 239.654 c 4
472 685.5 m 0
 691.139 685.5 875.292 532.101 911.175 328.6 c 0
 915.333 305.019 917.5 280.766 917.5 256 c 0
 917.5 17.502 716.532 -173.5 472 -173.5 c 0
 252.861 -173.5 68.708 -20.1016 32.8252 183.4 c 0
 28.667 206.981 26.5 231.234 26.5 256 c 0
 26.5 494.498 227.468 685.5 472 685.5 c 0
122.417 199.659 m 0
 150.474 40.5469 295.305 -82.5 472 -82.5 c 0
 669.066 -82.5 826.5 70.5616 826.5 255.998 c 0
 826.5 256 l 0
 826.5 275.171 824.817 293.995 821.583 312.341 c 0
 793.526 471.454 648.695 594.5 472 594.5 c 0
 274.934 594.5 117.5 441.438 117.5 256.002 c 0
 117.5 236.83 119.183 218.005 122.417 199.659 c 0
EndSplineSet
EndChar

StartChar: yen
Encoding: 165 165 223
Width: 640
VWidth: -1282
Flags: W
HStem: -23 21G<133.814 148.5> 236.967 94.166<141.689 274.7 408.859 532.932> 604 87<23.9656 85.8375> 692 20G<571.523 598.186>
VStem: 274.7 104.694<189.165 236.967>
LayerCount: 2
Fore
SplineSet
62.001 691 m 1
 64.001 691 l 2
 91.042 691 200.044 627.088 275 537 c 0
 300.878 505.898 318 441 330 402 c 1
 335.999 420 354.027 469.988 362 488 c 0
 427.241 635.388 557.046 712 586 712 c 2
 587 712 l 2
 609.372 712 628.541 695.182 632.324 673.731 c 0
 632.768 671.211 633 668.628 633 666 c 0
 633 651 622 632 608 625 c 0
 537 588 478.315 524.863 446 451 c 0
 430.885 416.45 420.866 375.482 408.859 331.133 c 1
 424.999 331 l 1
 494 330 l 2
 517.033 330 535.357 312.735 539.239 290.718 c 0
 539.739 287.882 540 284.967 539.999 282 c 0
 540.001 256 518 236 492 236 c 2
 379.395 236.967 l 1
 349.927 159.057 302.187 77.6113 205 6 c 0
 204 5 203 5 202 4 c 2
 169.001 -16 l 2
 163 -20 152 -23 145 -23 c 0
 122.628 -23 103.459 -6.18262 99.6758 15.2695 c 0
 99.2314 17.7891 99 20.3721 99 23 c 0
 99 38 109 56 122 63 c 2
 152 81 l 1
 186.077 105.99 254.427 168.768 274.7 237.865 c 1
 259 238 l 1
 180 239 l 2
 156.968 239 138.644 256.265 134.761 278.282 c 0
 134.261 281.119 134 284.034 134 287.002 c 0
 134 313.001 156.003 333.214 182.001 333 c 2
 278.312 332.207 l 1
 267.861 389.16 236.688 438.049 204 478 c 0
 160 530 105 574 44 604 c 0
 31.0488 610.044 21.0801 624.287 18.5977 638.364 c 0
 18.2051 640.591 18 642.814 18 645 c 0
 18 669 38 690 62.001 691 c 1
EndSplineSet
EndChar

StartChar: uni00AD
Encoding: 173 173 224
Width: 498
VWidth: 0
Flags: W
HStem: 114 95<94.3338 404.933>
VStem: 86 326.001<123.109 201.891>
LayerCount: 2
Fore
SplineSet
297 209 m 1
 365.999 208 l 2
 389.033 208 407.357 190.734 411.24 168.717 c 0
 411.74 165.881 412.001 162.967 412.001 160 c 0
 412 134 390 114 364 114 c 2
 201 116 l 1
 132.001 117 l 2
 108.967 117 90.6426 134.266 86.7598 156.283 c 0
 86.2598 159.119 86 162.033 86 165 c 0
 86 191 108 211 134 211 c 2
 297 209 l 1
EndSplineSet
EndChar

StartChar: macron
Encoding: 175 175 225
Width: 498
VWidth: 0
Flags: W
HStem: 664 95<94.3338 404.933>
VStem: 86 326.001<673.109 751.891>
LayerCount: 2
Fore
SplineSet
297 759 m 5
 365.999 758 l 6
 389.033 758 407.357 740.734 411.24 718.717 c 0
 411.74 715.881 412.001 712.967 412.001 710 c 4
 412 684 390 664 364 664 c 6
 201 666 l 5
 132.001 667 l 6
 108.967 667 90.6426 684.266 86.7598 706.283 c 0
 86.2598 709.119 86 712.033 86 715 c 4
 86 741 108 761 134 761 c 6
 297 759 l 5
EndSplineSet
EndChar

StartChar: cedilla
Encoding: 184 184 226
Width: 302
VWidth: -1282
Flags: W
HStem: -239 87.082<113.58 195.453> -20.3398 20G<93.9038 107.305>
VStem: 88.209 87.2588<-39.4531 -1.03417> 196.465 86.4092<-148.89 -120.792>
LayerCount: 2
Fore
SplineSet
176.125 -10.209 m 0
 184.395 -57.1055 268.148 -43.1074 281.176 -116.989 c 0
 282.278 -123.246 282.875 -130.133 282.874 -137.74 c 4
 282.875 -198.496 225.312 -239 163 -239 c 4
 92.5547 -239 36.1436 -186.104 30.0166 -151.356 c 0
 29.6504 -149.284 29.4648 -147.277 29.4648 -145.349 c 4
 29.4648 -121.349 48.4648 -102.349 72.4648 -102.349 c 4
 112.856 -102.349 109.332 -151.918 163.129 -151.918 c 4
 184.488 -151.918 196.465 -141.062 196.465 -138.349 c 6
 196.465 -137.349 l 5
 187.658 -119.734 104.514 -105.812 90.2783 -25.082 c 0
 88.9395 -17.4863 88.21 -9.29883 88.209 -0.461914 c 4
 88.21 -0.379883 91.3545 -0.339844 96.4531 -0.339844 c 0
 118.157 -0.339844 175.242 -1.06543 175.468 -2.34473 c 0
 175.719 -5.19434 175.687 -7.72363 176.125 -10.209 c 0
EndSplineSet
EndChar

StartChar: guillemotleft
Encoding: 171 171 229
Width: 638
VWidth: 0
Flags: W
HStem: 75 340<283 313.232 543 573.232>
LayerCount: 2
Fore
SplineSet
551 415 m 4
 573.232 415 591.485 399.875 595.277 378.372 c 0
 595.752 375.676 596 372.88 596 370 c 4
 596 355 589.001 341 576.001 332 c 6
 441.999 244 l 5
 575.999 158 l 6
 586.595 150.665 593.205 140.008 595.288 128.196 c 0
 595.761 125.515 596 122.775 596 120 c 4
 596 95.0654 577.142 75 551 75 c 4
 543 75 534 77 526 82 c 6
 334 206 l 6
 322.617 213.317 315.862 223.279 313.734 235.348 c 0
 313.244 238.123 313 241.009 312.999 244 c 4
 313 260 321.001 273 334 282 c 6
 526 408 l 6
 534 413 542 415 551 415 c 4
291 415 m 4
 313.232 415 331.485 399.875 335.277 378.372 c 0
 335.752 375.676 336 372.88 336 370 c 4
 336 355 329.001 341 316.001 332 c 6
 181.999 244 l 5
 315.999 158 l 6
 326.595 150.665 333.205 140.009 335.287 128.197 c 0
 335.76 125.516 336 122.775 336 120 c 4
 336 95.0654 317.142 75 291 75 c 4
 283 75 274 77 266 82 c 6
 74 206 l 6
 62.6172 213.317 55.8613 223.279 53.7334 235.348 c 0
 53.2441 238.123 53 241.009 53 244 c 4
 53 260 61 273 74 282 c 6
 266 408 l 6
 274 413 282 415 291 415 c 4
EndSplineSet
EndChar

StartChar: guillemotright
Encoding: 187 187 230
Width: 638
VWidth: 0
Flags: W
HStem: 75 340<65.7666 96 325.768 356>
LayerCount: 2
Fore
SplineSet
88 75 m 4
 65.7666 75 47.5146 90.124 43.7236 111.627 c 0
 43.248 114.324 43 117.12 43 120 c 4
 43 135 50 149 63 158 c 6
 197.001 246 l 5
 63 332 l 6
 52.4053 339.335 45.7949 349.991 43.7119 361.803 c 0
 43.2393 364.484 43 367.225 43 370 c 4
 43 394.935 61.8584 415 88 415 c 4
 96 415 105 413 113 408 c 6
 305 284 l 6
 316.383 276.683 323.138 266.721 325.266 254.652 c 0
 325.756 251.877 326 248.991 326.001 246 c 4
 326 230 317.999 217 305 208 c 6
 113 82 l 6
 105 77 97 75 88 75 c 4
348 75 m 4
 325.768 75 307.515 90.125 303.723 111.628 c 0
 303.248 114.324 303 117.12 303 120 c 4
 303 135 309.999 149 322.999 158 c 6
 457.001 246 l 5
 323.001 332 l 6
 312.405 339.335 305.795 349.991 303.713 361.803 c 0
 303.24 364.484 303 367.225 303 370 c 4
 303.001 394.934 321.858 415 348 415 c 4
 356 415 365 413 373 408 c 6
 565 284 l 6
 576.383 276.683 583.139 266.721 585.268 254.652 c 0
 585.756 251.877 586 248.991 586.001 246 c 4
 586 230 577.999 217 565 208 c 6
 373 82 l 6
 365 77 357 75 348 75 c 4
EndSplineSet
EndChar

StartChar: uni00B9
Encoding: 185 185 231
Width: 307
VWidth: 0
Flags: W
HStem: 474 175<89 157.999>
VStem: 42 187.144
LayerCount: 2
Fore
SplineSet
89 474 m 4
 66.3994 474 46.5078 491.619 42.668 513.396 c 0
 42.2295 515.884 42 518.425 42 521 c 4
 42 534 48 547 59 557 c 6
 88 581 l 5
 117 625 l 5
 125 641 140.999 649 157.999 649 c 4
 185.702 649 202.937 628.704 205 606 c 6
 229 348 l 6
 229.097 346.741 229.144 345.489 229.144 344.246 c 0
 229.144 319.822 210.742 298.903 186.001 297 c 5
 182.001 297 l 6
 158.001 297 137.001 315 135 340 c 6
 122 487 l 5
 112.394 480.596 104.65 474 89 474 c 4
EndSplineSet
EndChar

StartChar: Eth
Encoding: 208 208 232
Width: 758
VWidth: -1282
Flags: W
HStem: -0.103516 92.0674<273.699 486.161> 87 87<70.1824 135.354> 311.899 94.0742<96.7821 201.637 301.759 407.932> 559.449 91.623<297.168 529.735> 626 88<115.183 160.479> 703 20G<181.29 194.5>
VStem: 201.637 92.1279<146.22 311.899> 213.407 91.8633<407.113 561.408> 607.11 92.3594<217.35 462.571>
LayerCount: 2
Fore
SplineSet
295.415 562.417 m 1xb280
 296.909 556.651 298.511 549.733 299.979 541.401 c 0
 302.885 524.922 305.271 502.903 305.271 473.357 c 0xb180
 305.271 450.189 303.72 427.689 301.759 405.974 c 1
 369 405 l 2
 392.034 405 410.357 387.734 414.239 365.717 c 0
 414.739 362.881 415 359.967 415 357 c 0
 414.999 331 393 311 367 311 c 2
 293.765 311.899 l 1
 292.081 276.442 291.655 237.759 285 197 c 0
 279.076 162.299 270.286 133.329 268.937 110.089 c 1
 321.488 93.9375 356.588 91.9639 378.501 91.9639 c 0
 474.503 91.9639 607.11 140.586 607.11 335.075 c 0
 607.11 358.297 605.257 381.645 601.297 404.106 c 0
 585.78 492.102 537.916 566.5 442.375 566.5 c 0
 406.654 566.5 372.708 559.449 334.563 559.449 c 0
 321.872 559.449 308.769 560.249 295.415 562.417 c 1xb280
110 174 m 0x6180
 123.96 174 125.101 170.643 179.798 145.033 c 1
 183.76 170.401 190.406 192.492 194 212 c 0
 199.666 242.756 200.091 276.788 201.637 313.034 c 1x6280
 135 314 l 2
 111.968 314 93.6426 331.265 89.7607 353.282 c 0
 89.2607 356.118 89 359.033 89 362 c 0
 89 388 111 408 137 408 c 2
 209.275 407.113 l 1
 211.567 431.379 213.407 454.537 213.407 476.587 c 0
 213.407 493.857 212.126 509.812 209.548 524.431 c 0
 200.804 574.024 177.142 608.208 138 626 c 0
 123.942 632.15 112.201 646.791 109.557 661.785 c 0
 109.191 663.857 109 665.936 109 668 c 0
 109.001 693 130 714 155 714 c 2
 156 714 l 2x6980
 157.342 714 158.899 713.856 160.557 713.607 c 1
 167.775 719.134 176.579 722.607 186 723 c 2
 188 723 l 2
 201 723 216.975 714.982 225 704 c 0
 235.946 689.021 268.031 651.072 332.577 651.072 c 0
 367.598 651.072 407.086 658.53 445.318 658.53 c 0
 574.491 658.53 667.19 560.803 692.521 417.151 c 0
 697.093 391.218 699.47 363.789 699.47 335.167 c 0
 699.47 123.422 559.629 -0.1035 380.576 -0.103516 c 0xb580
 348.606 -0.103516 315.566 3.2998 274.071 13.2568 c 1
 265.305 2.23047 251.67 -5 237 -5 c 0
 207.869 -5 195.319 21.3799 188.45 40.627 c 1
 168.062 48.6396 127.271 65.7373 89 87 c 0
 76.9258 93.0371 67.083 107.256 64.6035 121.317 c 0
 64.208 123.56 64 125.799 64 128 c 0
 64 153 85 174 110 174 c 0x6180
EndSplineSet
EndChar

StartChar: AE
Encoding: 198 198 233
Width: 1028
VWidth: -1282
Flags: W
HStem: -9 91.7812<195.414 280.528> 9.33789 91.5742<694.914 879.171> 188 180<132.531 216.455> 196 92<419.458 526.058> 350.423 89.8516<662.071 807.298> 459 120<162.043 222.986> 522 21G<311.265 349.5 870 888.5> 604.188 91.8125<157.134 249.636 435.016 460.895> 644.885 91.1152<626.447 781.911>
VStem: 60 91.5488<551.15 600.672> 461 139.188<535.331 604.171> 538.673 101.007<301.567 344.112>
LayerCount: 2
Fore
SplineSet
726.982 81 m 2x0040
 727 81 l 2
 727.001 81.2178 726.996 81.2002 726.982 81 c 2x0040
517.377 505.13 m 1
 483.039 457.409 438.247 423.48 421 320 c 0
 419.999 314 419.999 307 418.999 301 c 0
 419.208 300.931 440.89 288 473.001 288 c 0
 486.148 288 520.73 293.954 538.791 329.584 c 1
 538.714 331.664 538.673 333.727 538.673 335.771 c 0x1050
 538.673 365.81 547.502 391.835 580 411 c 1
 551.275 437.114 529.025 468.874 517.377 505.13 c 1
551.616 199.605 m 1
 550.328 203.989 549.031 208.299 548 215 c 1
 526 204 501 197 476 196 c 0
 474 196 472 196 470 196 c 0x58d0
 448 196 428 201 410 206 c 1
 410 205 408.999 203 409 202 c 0
 399.7 127.611 379.476 61.0537 322 20 c 0
 301 4 274 -7 246 -9 c 1
 236 -9 l 2
 165.42 -9 112.493 42.6455 105.732 80.9883 c 0
 105.248 83.7354 105 86.4141 105 89 c 0
 105 114 125 135 150 135 c 0
 166 135 185.001 123 192 109 c 0
 200.208 92.584 216.326 82.7812 234.353 82.7812 c 0
 254.272 82.7812 276.522 94.7529 293.001 123 c 0
 317.258 164.583 319.826 233.083 320.999 246 c 1
 255.977 277.098 243.789 273.535 235.001 275 c 1
 235.999 271 238 265 238.001 261 c 0
 238 259 237 257 236.999 255 c 0
 230.937 209.528 193.311 188 161 188 c 0
 134.161 188 95.2383 205.938 87.4043 250.369 c 0
 86.4912 255.548 86 261.087 86 267 c 0
 86 327.6 146.545 368 220.001 368 c 0
 264.801 368 311.365 351.171 332 342 c 1
 360.7 510.1 461 519.604 461 588 c 0
 461 600.132 454.45 604.188 452.812 604.188 c 0
 451.612 604.188 449.252 603.467 447 600 c 2
 434 580 l 2
 418.967 557.451 395.803 528.019 359 523 c 0
 355 523 351 522 348 522 c 0xa360
 274.529 522 255.037 601.138 207 608 c 0
 205 608 202 609 200 609 c 0
 167.865 609 151.547 584.831 151.549 567.26 c 0
 151.547 559.974 154.353 553.823 160.001 551 c 1
 166 567 186 579 203 579 c 0
 225.371 579 244.542 562.182 248.324 540.731 c 0
 248.769 538.211 249 535.628 249.001 533 c 0
 249 517.1 227.7 459 161 459 c 2
 154 459 l 1
 106.472 462.169 70.1748 501.854 61.8203 549.235 c 0
 60.6229 556.028 60 562.977 60 570.002 c 0
 60 636.151 116.266 701 196.001 701 c 0
 279.834 701 332.447 627.553 341 619 c 0
 343 617 344.999 616 346.001 615 c 1
 359.07 628.07 383.891 696 451 696 c 0x0560
 494.063 696 520.826 671.062 532.978 653.224 c 1
 564.603 704.942 623.312 736 689 736 c 0
 822.2 736 893.596 651.856 911 630 c 0
 915.832 624.362 920.017 614.833 921.462 606.635 c 0
 921.811 604.654 922.001 602.751 922 601 c 0
 922 576 901 555 876 555 c 0
 864 555 848.034 563.027 840 573 c 0
 793.367 630.891 725.769 644.885 692.571 644.885 c 0
 629.295 644.885 600.188 602.927 600.188 560.641 c 0x00e0
 600.188 555.604 600.645 550.571 601.524 545.578 c 0
 611.224 490.573 672.469 440.274 744.066 440.274 c 0
 779.371 440.274 793.011 451 808 451 c 0
 830.372 451 849.541 434.183 853.323 412.731 c 0
 853.768 410.211 854 407.628 853.999 405 c 0
 854.001 386 838.999 366 821.001 361 c 0
 795.637 352.794 769.162 348.484 742.817 348.484 c 0
 733.847 348.484 724.891 348.984 715.999 350 c 1
 707.999 350 l 2
 704.219 350.28 700.417 350.423 696.609 350.423 c 0
 649.012 350.423 639.68 327.35 639.68 293.251 c 0
 639.68 271.258 643.562 244.679 643.562 216.744 c 0
 643.562 206.121 644.109 194.162 646.072 183.031 c 0
 648.249 170.688 652.165 159.361 659 152 c 0
 695.58 112.606 753.793 100.912 806.6 100.912 c 0
 883.722 100.912 886 136 912 178 c 0
 918.338 188.239 933.999 194 945.999 194 c 0
 968.372 194 987.542 177.182 991.324 155.731 c 0
 991.769 153.211 992 150.628 992 148 c 0
 992 138 984.502 125.817 980 117 c 0
 956 70 899.277 9.33789 803.461 9.33789 c 0x48d0
 727.09 9.33789 653 28 593 87 c 0
 574.546 105.147 561.345 133.189 555.145 168.353 c 0
 553.403 178.229 552.214 188.667 551.616 199.605 c 1
EndSplineSet
EndChar

StartChar: ae
Encoding: 230 230 234
Width: 553
VWidth: -1282
Flags: W
HStem: -2 86<106.255 160.804 296.086 380.219> 243 86.4443<131.222 212.464 306.546 366.299>
VStem: 14.9043 86.0957<87.0024 210.348>
LayerCount: 2
Fore
SplineSet
101 131 m 0
 101 127.052 101.343 123.25 101.979 119.639 c 0
 105.192 101.417 115.903 88.0234 128 85 c 1
 153.671 85 175.938 118.486 207.687 213.76 c 0
 208.328 215.802 208.998 217.827 209.697 219.834 c 2
 213 230 l 1
 204 237 193 242 183 243 c 1
 172 243 l 1
 123.867 238.989 101.001 169.961 101 131 c 0
14.9043 133.57 m 0
 14.9043 195.679 55.624 329 178 329 c 0
 181.333 329 184.668 329.444 188.001 329.444 c 0
 193.428 328.962 236.373 316.818 266.643 302.159 c 1
 288.416 319.121 313.928 329 341 329 c 0
 392.16 329 432.541 291.668 437.49 263.6 c 0
 437.827 261.685 438 259.814 438 258 c 1
 463.882 276.486 476.4 282 485.999 282 c 0
 507.361 282 524.763 266.948 528.33 246.716 c 0
 528.771 244.217 529 241.639 528.999 239 c 0
 529 228 522 212 513 205 c 0
 442.215 148.094 364.069 124.938 290 120 c 1
 299.373 95.0059 315.2 84 332 84 c 0
 342.4 84 368.161 92.5225 384 111 c 0
 391 120 406 127 417 127 c 0
 438.362 127 455.762 111.948 459.33 91.7148 c 0
 459.771 89.2158 460.001 86.6387 460 84 c 0
 460 44.9004 390.691 -2 331.999 -2 c 0
 286.707 -2 251.642 19.2373 228.762 50.7529 c 1
 223.664 45.3477 185.426 -1.32422 132.88 -1.32422 c 0
 73.7637 -1.32422 28.3984 41.8232 17.4424 103.957 c 0
 15.7754 113.416 14.9043 123.316 14.9043 133.57 c 0
368 223 m 1
 362.581 226.612 355.146 242.657 341.972 242.657 c 1
 313.965 238.956 313.584 229.875 299.001 208 c 1
 326.887 211.984 307.571 204.116 368 223 c 1
294.949 123.56 m 2
 294.999 123 l 2
 295.41 123.137 295.353 123.329 294.949 123.56 c 2
EndSplineSet
EndChar

StartChar: Thorn
Encoding: 222 222 235
Width: 383
VWidth: -1282
Flags: W
HStem: -255 21G<60.3193 78.5> -3.25 86.6943<142 238.702> 239 86.2549<203.963 261.322> 552 20G<50 75.0786>
VStem: 58.1982 86.1943<-187.273 -3.5691> 265.75 85.9062<110.978 235.437>
LayerCount: 2
Fore
SplineSet
60.5654 199.198 m 0
 60.5654 248.222 49.9883 317.256 39.1406 378.779 c 0
 32.791 414.789 26.3486 448.225 21.8789 473.571 c 0
 18.3105 493.81 16 508.889 16 516 c 0
 16 540 38 572 62 572 c 2
 63 572 l 2
 87.1572 572 103.364 515.502 114.735 451.014 c 0
 127.37 379.355 134.034 297.831 139 273 c 1
 157.61 297.812 193.411 325.255 242.854 325.255 c 0
 280.014 325.255 333.038 307.541 347.744 224.137 c 0
 350.262 209.86 351.657 193.657 351.656 175.289 c 0
 351.657 133.776 349.517 35.0273 215 3 c 0
 195.001 -1.16699 175 -3.25 154.421 -3.25 c 0
 150.306 -3.25 146.167 -3.16699 142 -3 c 1
 143.464 -22.7656 144.392 -44.1387 144.393 -66.335 c 0
 144.393 -115.553 138.409 -171.07 111 -230 c 0
 105 -244 86 -255 71 -255 c 0
 49.6387 -255 32.2383 -239.948 28.6699 -219.715 c 0
 28.2295 -217.216 28 -214.638 28 -212 c 0
 28 -189.715 58.1982 -155.348 58.1982 -74.5322 c 0
 58.1982 -47.9061 55.7267 -18.9451 54 13 c 1
 48.8008 19.9316 44.2207 34.2783 42.6123 43.3984 c 0
 42.2158 45.6465 42 47.5762 42 49 c 0
 42 67.3096 50.1514 68.9111 54 92 c 1
 56.8574 134.864 60.5654 167.059 60.5654 199.198 c 0
265.75 169.875 m 0
 265.75 182.152 265.001 195.844 262.896 207.782 c 0
 259.812 225.273 253.816 239 243 239 c 0
 214.893 239 198.785 209.178 188 193 c 0
 167 159 151 123 140.999 84 c 1
 147 83.667 153.111 83.4443 159.259 83.4443 c 0
 227.164 83.4443 261.69 115.589 265 152 c 0
 265.499 157.5 265.75 163.5 265.75 169.875 c 0
EndSplineSet
EndChar

StartChar: divide
Encoding: 247 247 236
Width: 380
VWidth: 0
Flags: W
HStem: -54 138<139.07 242.929> 114 95<34.3338 344.932> 245 138<139.071 242.93>
VStem: 122 138<-36.6427 66.6428 262.357 365.642>
LayerCount: 2
Fore
SplineSet
237 209 m 1
 306 208 l 2
 329.033 208 347.358 190.734 351.24 168.717 c 0
 351.74 165.881 352 162.967 352 160 c 0
 352 134 330 114 304 114 c 2
 141 116 l 1
 72 117 l 2
 48.9668 117 30.6426 134.266 26.7598 156.283 c 0
 26.2598 159.119 26 162.033 26 165 c 0
 26 191 48 211 74 211 c 2
 237 209 l 1
122 314 m 0
 122.001 352 153 383 191 383 c 0
 224.916 383 253.256 358.305 258.956 325.979 c 0
 259.643 322.087 260 318.084 260 314 c 0
 260 276 229 245 191 245 c 0
 157.085 245 128.744 269.694 123.045 302.019 c 0
 122.358 305.912 122 309.916 122 314 c 0
122 15 m 0
 122 53 153 84 191 84 c 0
 224.915 84 253.256 59.3057 258.955 26.9805 c 0
 259.642 23.0879 260 19.084 260 15 c 0
 259.999 -23 229 -54 191 -54 c 0
 157.084 -54 128.744 -29.3057 123.044 3.02051 c 0
 122.357 6.91309 122 10.916 122 15 c 0
EndSplineSet
EndChar

StartChar: degree
Encoding: 176 176 237
Width: 450
VWidth: 0
Flags: W
HStem: 316 94<137.611 252.123> 574 94<137.877 252.389>
VStem: 19 94<434.712 549.123> 277 94<434.877 549.288>
LayerCount: 2
Fore
SplineSet
194.999 668 m 4
 281.562 668 353.789 605.087 368.331 522.613 c 0
 370.085 512.668 371 502.438 371 492 c 4
 371 395 292.001 316 195.001 316 c 4
 108.438 316 36.2109 378.913 21.6689 461.387 c 0
 19.915 471.332 19 481.562 19 492 c 4
 19 589 97.999 668 194.999 668 c 4
113 492 m 4
 113 487.192 113.422 482.476 114.231 477.886 c 0
 120.997 439.516 154.808 410 195 410 c 4
 240 410 277 447 277 492 c 4
 277 496.808 276.578 501.524 275.769 506.114 c 0
 269.003 544.484 235.192 574 195 574 c 4
 150 574 113 537 113 492 c 4
EndSplineSet
EndChar
